<svg xmlns="http://www.w3.org/2000/svg" xmlns:svg="http://www.w3.org/2000/svg" id="svg2" width="16" height="16" version="1.1" viewBox="0 0 16 16"><metadata id="metadata10"/><path style="fill:#53cded" id="path4" d="M 3.484375,1.9998125 C 2.660156,1.9998125 2,2.6599685 2,3.4841875 L 2,12.515625 C 2,13.335937 2.660156,14 3.484375,14 l 9.031437,0 c 0.820312,0 1.484375,-0.664063 1.484375,-1.484375 l 0,-9.0314375 c 0,-0.824219 -0.664063,-1.484375 -1.484375,-1.484375 z M 5,3.5 11,3.5 11,9 9,9 9,9.5 7,9.5 7,7 9,7 9,5.5 7,5.5 7,6 5,6 Z m 2,7 2,0 0,2 -2,0 z"/></svg>