<svg xmlns="http://www.w3.org/2000/svg" xmlns:svg="http://www.w3.org/2000/svg" id="svg2" width="16" height="16" version="1.1" viewBox="0 0 16 16"><metadata id="metadata10"/><path style="fill:#78cf72" id="path4" d="M 3.484375,1.9998125 C 2.660156,1.9998125 2,2.6599685 2,3.4841875 L 2,12.515625 C 2,13.335937 2.660156,14 3.484375,14 l 9.031437,0 c 0.820312,0 1.484375,-0.664063 1.484375,-1.484375 l 0,-9.0314375 c 0,-0.824219 -0.664063,-1.484375 -1.484375,-1.484375 z M 7,4 9,4 9,6 7,6 Z m -1,3 3,0 0,4 1,0 0,1.019531 -4,0 L 6,11 7,11 7,8 6,8 Z"/></svg>