<svg xmlns="http://www.w3.org/2000/svg" xmlns:svg="http://www.w3.org/2000/svg" xmlns:xlink="http://www.w3.org/1999/xlink" id="svg2" width="32" height="32" version="1.1"><defs id="defs4"><radialGradient id="radialGradient3981" cx="32.5" cy="56.5" r="33.5" fx="32.5" fy="56.5" gradientTransform="matrix(1,0,0,0.10447761,0,50.597015)" gradientUnits="userSpaceOnUse" xlink:href="#linearGradient3958"/><linearGradient id="linearGradient3958"><stop id="stop3960" offset="0" style="stop-color:#000;stop-opacity:1"/><stop id="stop3962" offset="1" style="stop-color:#000;stop-opacity:0"/></linearGradient><radialGradient id="radialGradient3964" cx="32.5" cy="56.5" r="33.5" fx="32.5" fy="56.5" gradientTransform="matrix(1,0,0,0.10447761,0,50.597015)" gradientUnits="userSpaceOnUse" xlink:href="#linearGradient3958"/></defs><metadata id="metadata7"/><g id="layer1" transform="translate(0,-1020.3622)"><path id="path3029" d="m 0,1023.8916 0,21.4118 32,0 0,-10.7059 -1.523809,-9.1765 -11.976191,-0.059 -1.5,-3 -15.4761905,0 C 0.761905,1022.3622 0,1023.1269 0,1023.8916 z" style="fill:#ef6c00;fill-opacity:1;stroke:none"/><rect style="fill:#fffdf0;fill-opacity:1;stroke:none" id="rect3799" width="15.786" height="5.941" x="2.5" y="1026.362"/><path style="opacity:.02999998;fill:#000;fill-opacity:1;stroke:none" id="path3790" d="M 1.53125,1022.3622 C 0.7693455,1022.3622 0,1023.1287 0,1023.8935 l 0,1 c 0,-0.7648 0.7693455,-1.5313 1.53125,-1.5313 l 14.96875,0 1.5,3 12.46875,0.062 1.53125,9.1719 0,-1 -1.53125,-9.1719 -11.96875,-0.062 -1.5,-3 z"/><path style="fill:#ffa726;fill-opacity:1;stroke:none" id="rect2987" d="m 32,1026.9505 0,21.4117 -32,0 0,-20 15,0 1.5,-3 13.976191,0.059 c 0.761904,0 1.523809,0.7648 1.523809,1.5295 z"/><path id="path3794" d="m 0,1047.3622 0,1 32,0 0,-1 z" style="opacity:.15;fill:#000;fill-opacity:1;stroke:none"/><path style="fill:none;stroke:none" id="path3801" d="m 16.761905,1026.1858 -3.809524,2.2941 2.285714,0 z"/><path style="opacity:.02999998;fill:#000;fill-opacity:1;stroke:none" id="path3015" d="m 16.5,1025.3622 -1.5,3 -15,0 0,1 15.5,0 1.5,-3 13.46875,0.062 c 0.761904,0 1.53125,0.7666 1.53125,1.5313 l 0,-1 c 0,-0.7647 -0.769346,-1.5313 -1.53125,-1.5313 z"/><path style="fill:#4caf50;fill-opacity:1" id="path2996-3" d="m 30,1039.3622 -6,0 0,-6 -5,0 0,6 -6,0 0,5 6,0 0,6 5,0 0,-6 6,0 z"/></g></svg>