<svg xmlns="http://www.w3.org/2000/svg" xmlns:svg="http://www.w3.org/2000/svg" id="svg2" width="32" height="32" version="1.1" viewBox="0 0 32 32"><metadata id="metadata16"/><defs id="defs14"><clipPath id="clip1"><path id="path4225" d="m 17,10 14,0 0,20 -14,0 m 0,-20"/></clipPath><clipPath id="clip2"><path id="path4228" d="m 41.895,19.992 c 0,10.582 -8.02,19.16 -17.895,19.16 -9.875,0 -17.891,-8.574 -17.891,-19.16 0,-10.586 8.02,-19.16 17.891,-19.16 9.879,0 17.895,8.574 17.895,19.16 m 0,0"/></clipPath></defs><path id="path4152" d="M 5.7336668,0 20.266562,0 c 3.733334,0 3.733334,0 3.733334,3.600439 l 0,21.799341 c 0,3.600439 0,3.600439 -3.733334,3.600439 l -14.5328952,0 c -3.7333336,0 -3.7333336,0 -3.7333336,-3.600439 l 0,-21.799341 C 2.0003332,0 2.0003332,0 5.7336668,0 Z" style="fill:#fff;fill-opacity:1;fill-rule:evenodd"/><g style="fill:#888" id="g4154" transform="matrix(0.93333336,0,0,0.90010984,-15.199937,-10.802966)"><path id="path4156" d="m 22.714396,18.667806 0,3.332927 14.999889,0 0,-3.332927 z"/><path id="path4158" d="m 22.714396,34.221463 0,3.332927 7.5,0 0,-3.332927 z"/><path id="path4160" d="m 22.714396,26.444635 0,3.332926 14.999889,0 0,-3.332926 z"/></g><path id="path4288" d="m 29.999608,13.002115 c 0,0 0.001,-0.779369 -1.736572,-1.782569 -1.676278,-0.9678 -2.458185,-0.542299 -2.458185,-0.542299 L 16.765,26.335319 16.265435,32 20.917,28.732919" style="fill:#ff6f03;fill-opacity:1;fill-rule:nonzero;stroke:none"/><path id="path4290" d="M 16.765,26.335 16.265435,32 20.917,28.733" style="fill:#ffc13d;fill-opacity:1;fill-rule:nonzero;stroke:none"/><path id="path4292" d="M 16.490397,29.359155 16.265435,32 18.443111,30.486555 m -1.952714,-1.1274" style="fill:#2d2d2d;fill-opacity:1;fill-rule:nonzero;stroke:none"/></svg>