<svg xmlns="http://www.w3.org/2000/svg" xmlns:svg="http://www.w3.org/2000/svg" xmlns:xlink="http://www.w3.org/1999/xlink" id="svg2" width="32" height="32" version="1.1" viewBox="0 0 32 32"><metadata id="metadata98"/><defs id="defs4"><path id="SVGCleanerId_0" d="m 14,12 20,0 c 1.105,0 2,0.895 2,2 l 0,20 c 0,1.105 -0.895,2 -2,2 l -20,0 c -1.105,0 -2,-0.895 -2,-2 l 0,-20 c 0,-1.105 0.895,-2 2,-2 m 0,0"/></defs><use style="fill:none;stroke:#af8566;stroke-width:2.87999988;stroke-linecap:butt;stroke-linejoin:miter;stroke-miterlimit:4;stroke-dasharray:none;stroke-opacity:1" id="use72" width="100%" height="100%" x="0" y="0" stroke-miterlimit="4" transform="matrix(1.0416667,0,0,1.0416667,-9.0000008,-9.0000008)" xlink:href="#SVGCleanerId_0"/><use style="fill:#fff4ab;fill-opacity:1;fill-rule:nonzero;stroke:none" id="use74" width="100%" height="100%" x="0" y="0" transform="translate(-8.0000005,-8.0000008)" xlink:href="#SVGCleanerId_0"/><path style="fill:#e4d66a;fill-opacity:1;fill-rule:nonzero;stroke:none" id="path84" d="m 3.9999994,21.999999 23.9999996,0 0,2 -23.9999996,0 z"/><path style="fill:#e4d66a;fill-opacity:1;fill-rule:nonzero;stroke:none" id="path84-3" d="m 3.9999996,15.999999 23.9999994,0 0,2 -23.9999994,0 z"/><path style="fill:#e4d66a;fill-opacity:1;fill-rule:nonzero;stroke:none" id="path84-3-9" d="m 3.9999996,9.9999993 23.9999994,0 0,1.9999997 -23.9999994,0 z"/><path style="fill:#e6b2a9;fill-opacity:1;fill-rule:nonzero;stroke:none" id="path86" d="m 9.9999993,3.9999991 1.9999997,0 0,23.9999999 -1.9999997,0 z"/></svg>