<svg xmlns="http://www.w3.org/2000/svg" xmlns:svg="http://www.w3.org/2000/svg" id="svg2" width="22" height="22" version="1.1" viewBox="0 0 22 22"><metadata id="metadata16"/><defs id="defs14"><clipPath id="clip1"><path id="path4225" d="m 17,10 14,0 0,20 -14,0 m 0,-20"/></clipPath><clipPath id="clip2"><path id="path4228" d="m 41.895,19.992 c 0,10.582 -8.02,19.16 -17.895,19.16 -9.875,0 -17.891,-8.574 -17.891,-19.16 0,-10.586 8.02,-19.16 17.891,-19.16 9.879,0 17.895,8.574 17.895,19.16 m 0,0"/></clipPath></defs><path id="path4152" d="M 4.3333335,1 13.666666,1 C 16,1 16,1 16,3.250275 l 0,13.49945 C 16,19 16,19 13.666666,19 L 4.3333335,19 C 2,19 2,19 2,16.749725 L 2,3.250275 C 2,1 2,1 4.3333335,1 Z" style="fill:#fff;fill-opacity:1;fill-rule:evenodd"/><g style="fill:#888" id="g4154" transform="matrix(0.58333335,0,0,0.56256865,-8.5,-5.751923)"><path id="path4156" d="m 23.142968,19.112197 0,3.555122 13.714285,0 0,-3.555122 z"/><path id="path4158" d="m 23.142968,33.332684 0,3.555122 6.857032,0 0,-3.555122 z"/><path id="path4160" d="m 23.142968,26.22244 0,3.555121 13.714285,0 0,-3.555121 z"/></g><path id="path4288" d="m 20.00013,9.126322 c 0,0 6.5e-4,-0.487106 -1.085358,-1.114106 C 17.867098,7.407341 17.378407,7.673279 17.378407,7.673279 L 11.728,17.459575 11.416272,21 14.324,18.958074" style="fill:#ff6f03;fill-opacity:1;fill-rule:nonzero;stroke:none"/><path id="path4290" d="M 11.728,17.46 11.416272,21 14.324,18.958" style="fill:#ffc13d;fill-opacity:1;fill-rule:nonzero;stroke:none"/><path id="path4292" d="M 11.556873,19.349472 11.416272,21 12.777319,20.054096" style="fill:#2d2d2d;fill-opacity:1;fill-rule:nonzero;stroke:none"/></svg>