<svg xmlns="http://www.w3.org/2000/svg" xmlns:svg="http://www.w3.org/2000/svg" xmlns:xlink="http://www.w3.org/1999/xlink" id="svg2" width="22" height="22" version="1.1" viewBox="0 0 22 22"><metadata id="metadata98"/><defs id="defs4"><path id="SVGCleanerId_0" d="m 14,12 20,0 c 1.105,0 2,0.895 2,2 l 0,20 c 0,1.105 -0.895,2 -2,2 l -20,0 c -1.105,0 -2,-0.895 -2,-2 l 0,-20 c 0,-1.105 0.895,-2 2,-2 m 0,0"/></defs><use style="fill:none;stroke:#af8566;stroke-width:2.48275852;stroke-linecap:butt;stroke-linejoin:miter;stroke-miterlimit:4;stroke-dasharray:none;stroke-opacity:1" id="use72" width="100%" height="100%" x="0" y="0" stroke-miterlimit="4" transform="matrix(0.60416667,0,0,0.60416667,-3.5000001,-3.5000001)" xlink:href="#SVGCleanerId_0"/><use style="fill:#fff4ab;fill-opacity:1;fill-rule:nonzero;stroke:none" id="use74" width="100%" height="100%" x="0" y="0" transform="matrix(0.58333333,0,0,0.58333333,-2.9999999,-2.9999999)" xlink:href="#SVGCleanerId_0"/><path style="fill:#e4d66a;fill-opacity:1;fill-rule:nonzero;stroke:none" id="path84" d="m 4,14 14,0 0,1 -14,0 z"/><path style="fill:#e4d66a;fill-opacity:1;fill-rule:nonzero;stroke:none" id="path84-3" d="M 4.0000001,11 18,11 18,12 4.0000001,12 Z"/><path style="fill:#e4d66a;fill-opacity:1;fill-rule:nonzero;stroke:none" id="path84-3-9" d="M 4.0000001,8.0000002 18,8.0000002 18,9 4.0000001,9 Z"/><path style="fill:#e6b2a9;fill-opacity:1;fill-rule:nonzero;stroke:none" id="path86" d="M 8,4 9,4 9,18 8,18 Z"/></svg>