<svg xmlns="http://www.w3.org/2000/svg" xmlns:svg="http://www.w3.org/2000/svg" id="svg2" width="22" height="22" version="1.1" viewBox="0 0 22 22"><metadata id="metadata12"/><path style="fill:#859900;fill-opacity:1" id="path4-0" d="M 5.004406,4.4601974 C 4.4052793,6.5297051 4.3920995,9.393292 5.4584822,10.805798 c 0.4482537,0.671275 1.0605583,1.552473 0.5815431,2.353725 -0.8862019,1.251103 -2.3642469,1.92666 -3.7104368,2.60793 C 2,15.958571 2,15.903125 2,16.531532 2,17 2,17 2.2973641,17 L 15.202626,17 C 15.5,17 15.5,17 15.5,16.531532 c 0,-0.628407 0,-0.588978 -0.329598,-0.764079 -1.34618,-0.68127 -2.824226,-1.356827 -3.710427,-2.60793 -0.479015,-0.801252 0.13329,-1.68245 0.581543,-2.353725 C 13.167974,9.2690146 13.314443,5.9226974 12.492683,4.4145089 11.75,3.10625 11,2.4249824 8.75,2.375 6.4970754,2.463569 5.7500004,3.10625 5.004406,4.4601974 Z"/><path style="fill:#6c71c4" id="path4" d="M 9.5044058,7.4601977 C 8.9052788,9.529705 8.8920996,12.393293 9.9584829,13.805799 10.406735,14.477073 11.019041,15.35827 10.540025,16.159521 9.6538231,17.410627 8.1757785,18.086185 6.8295885,18.767451 6.5,18.958571 6.5,18.903125 6.5,19.531532 6.5,20 6.5,20 6.7973641,20 L 19.702624,20 C 20,20 20,20 20,19.531532 20,18.903125 20,18.942554 19.670401,18.767451 18.324222,18.086185 16.846177,17.410627 15.959976,16.159521 15.480958,15.35827 16.093265,14.477073 16.541517,13.805799 17.667974,12.269014 17.81444,8.9226977 16.992682,7.4145092 16.249999,6.1062501 15.499999,5.4249824 13.25,5.375 c -2.252925,0.088569 -3,0.7312501 -3.7455942,2.0851977 z"/></svg>