<svg xmlns="http://www.w3.org/2000/svg" xmlns:svg="http://www.w3.org/2000/svg" xmlns:xlink="http://www.w3.org/1999/xlink" id="svg2" width="96" height="96" version="1.1"><defs id="defs4"><linearGradient id="linearGradient3855"><stop style="stop-color:#000;stop-opacity:1" id="stop3857" offset="0"/><stop style="stop-color:#000;stop-opacity:.29411766" id="stop3859" offset="1"/></linearGradient><linearGradient id="linearGradient3833"><stop id="stop3835" offset="0" style="stop-color:#fdfeff;stop-opacity:1"/><stop id="stop3837" offset="1" style="stop-color:#dfe4e4;stop-opacity:1"/></linearGradient><linearGradient id="linearGradient3823"><stop style="stop-color:#49b7ef;stop-opacity:1" id="stop3825" offset="0"/><stop style="stop-color:#1d8de2;stop-opacity:1" id="stop3827" offset="1"/></linearGradient><linearGradient id="linearGradient3956"><stop style="stop-color:#f8f4e1;stop-opacity:1" id="stop3958" offset="0"/><stop style="stop-color:#eae5c8;stop-opacity:1" id="stop3960" offset="1"/></linearGradient><linearGradient id="linearGradient3915"><stop style="stop-color:#f8f4e1;stop-opacity:1" id="stop3917" offset="0"/><stop style="stop-color:#ad9e57;stop-opacity:1" id="stop3919" offset="1"/></linearGradient><linearGradient id="linearGradient3861"><stop style="stop-color:#000;stop-opacity:1" id="stop3863" offset="0"/><stop style="stop-color:#000;stop-opacity:0" id="stop3865" offset="1"/></linearGradient><linearGradient id="linearGradient3844"><stop style="stop-color:#000;stop-opacity:.39215687" id="stop3846" offset="0"/><stop style="stop-color:#000;stop-opacity:0" id="stop3848" offset="1"/></linearGradient><linearGradient id="linearGradient3810"><stop style="stop-color:#f2c66f;stop-opacity:1" id="stop3812" offset="0"/><stop style="stop-color:#fbd68f;stop-opacity:1" id="stop3814" offset="1"/></linearGradient><linearGradient id="linearGradient3816" x1="24" x2="24" y1="1046.362" y2="1014.362" gradientUnits="userSpaceOnUse" xlink:href="#linearGradient3810"/><radialGradient id="radialGradient3850" cx="24.076" cy="41.383" r="21.076" fx="24.076" fy="41.383" gradientTransform="matrix(1,0,0,0.11307633,0,36.703704)" gradientUnits="userSpaceOnUse" xlink:href="#linearGradient3844"/><linearGradient id="linearGradient3856" x1="24" x2="24" y1="1046.362" y2="1014.362" gradientTransform="translate(0,-3)" gradientUnits="userSpaceOnUse" xlink:href="#linearGradient3810"/><linearGradient id="linearGradient3858" x1="24" x2="24" y1="1046.362" y2="1014.362" gradientTransform="translate(0,-1004.3622)" gradientUnits="userSpaceOnUse" xlink:href="#linearGradient3810"/><linearGradient id="linearGradient3867" x1="1.995" x2="46.005" y1="28.563" y2="28.563" gradientUnits="userSpaceOnUse" xlink:href="#linearGradient3861"/><linearGradient id="linearGradient3921" x1="35" x2="38" y1="8" y2="5" gradientUnits="userSpaceOnUse" xlink:href="#linearGradient3915"/><linearGradient id="linearGradient3933" x1="35" x2="38" y1="8" y2="5" gradientTransform="matrix(1.0436562,0,0,1.2222222,26.301501,1003.2511)" gradientUnits="userSpaceOnUse" xlink:href="#linearGradient3915"/><linearGradient id="linearGradient3954" x1="35" x2="44" y1="11" y2="5" gradientTransform="translate(22,1004.3622)" gradientUnits="userSpaceOnUse" xlink:href="#linearGradient3915"/><linearGradient id="linearGradient3829" x1="21" x2="20" y1="14" y2="24" gradientUnits="userSpaceOnUse" xlink:href="#linearGradient3823"/><linearGradient id="linearGradient3839" x1="21" x2="20" y1="14" y2="26" gradientUnits="userSpaceOnUse" xlink:href="#linearGradient3833"/><linearGradient id="linearGradient3862" x1="22" x2="20" y1="15" y2="30" gradientUnits="userSpaceOnUse" xlink:href="#linearGradient3855"/><linearGradient id="linearGradient3862-1" x1="22" x2="20" y1="15" y2="30" gradientUnits="userSpaceOnUse" xlink:href="#linearGradient3855-6"/><linearGradient id="linearGradient3839-6" x1="21" x2="20" y1="14" y2="26" gradientUnits="userSpaceOnUse" xlink:href="#linearGradient3833-9"/><linearGradient id="linearGradient3829-2" x1="21" x2="20" y1="14" y2="24" gradientUnits="userSpaceOnUse" xlink:href="#linearGradient3823-9"/><linearGradient id="linearGradient3954-2" x1="35" x2="44" y1="11" y2="5" gradientTransform="translate(22,1004.3622)" gradientUnits="userSpaceOnUse" xlink:href="#linearGradient3915-8"/><linearGradient id="linearGradient3933-6" x1="35" x2="38" y1="8" y2="5" gradientTransform="matrix(1.0436562,0,0,1.2222222,26.301501,1003.2511)" gradientUnits="userSpaceOnUse" xlink:href="#linearGradient3915-8"/><linearGradient id="linearGradient3921-3" x1="35" x2="38" y1="8" y2="5" gradientUnits="userSpaceOnUse" xlink:href="#linearGradient3915-8"/><linearGradient id="linearGradient3867-4" x1="1.995" x2="46.005" y1="28.563" y2="28.563" gradientUnits="userSpaceOnUse" xlink:href="#linearGradient3861-5"/><linearGradient id="linearGradient3858-0" x1="24" x2="24" y1="1046.362" y2="1014.362" gradientTransform="translate(0,-1004.3622)" gradientUnits="userSpaceOnUse" xlink:href="#linearGradient3810-7"/><linearGradient id="linearGradient3856-1" x1="24" x2="24" y1="1046.362" y2="1014.362" gradientTransform="translate(0,-3)" gradientUnits="userSpaceOnUse" xlink:href="#linearGradient3810-7"/><radialGradient id="radialGradient3850-5" cx="24.076" cy="41.383" r="21.076" fx="24.076" fy="41.383" gradientTransform="matrix(1,0,0,0.11307633,0,36.703704)" gradientUnits="userSpaceOnUse" xlink:href="#linearGradient3844-2"/><linearGradient id="linearGradient3816-1" x1="24" x2="24" y1="1046.362" y2="1014.362" gradientUnits="userSpaceOnUse" xlink:href="#linearGradient3810-7"/><linearGradient id="linearGradient3810-7"><stop id="stop3812-0" offset="0" style="stop-color:#f2c66f;stop-opacity:1"/><stop id="stop3814-5" offset="1" style="stop-color:#fbd68f;stop-opacity:1"/></linearGradient><linearGradient id="linearGradient3844-2"><stop id="stop3846-6" offset="0" style="stop-color:#000;stop-opacity:.39215687"/><stop id="stop3848-5" offset="1" style="stop-color:#000;stop-opacity:0"/></linearGradient><linearGradient id="linearGradient3861-5"><stop id="stop3863-4" offset="0" style="stop-color:#000;stop-opacity:1"/><stop id="stop3865-0" offset="1" style="stop-color:#000;stop-opacity:0"/></linearGradient><linearGradient id="linearGradient3915-8"><stop id="stop3917-9" offset="0" style="stop-color:#f8f4e1;stop-opacity:1"/><stop id="stop3919-7" offset="1" style="stop-color:#ad9e57;stop-opacity:1"/></linearGradient><linearGradient id="linearGradient3956-6"><stop id="stop3958-9" offset="0" style="stop-color:#f8f4e1;stop-opacity:1"/><stop id="stop3960-2" offset="1" style="stop-color:#eae5c8;stop-opacity:1"/></linearGradient><linearGradient id="linearGradient3823-9"><stop id="stop3825-4" offset="0" style="stop-color:#49b7ef;stop-opacity:1"/><stop id="stop3827-0" offset="1" style="stop-color:#1d8de2;stop-opacity:1"/></linearGradient><linearGradient id="linearGradient3833-9"><stop style="stop-color:#fdfeff;stop-opacity:1" id="stop3835-8" offset="0"/><stop style="stop-color:#dfe4e4;stop-opacity:1" id="stop3837-6" offset="1"/></linearGradient><linearGradient id="linearGradient3855-6"><stop id="stop3857-9" offset="0" style="stop-color:#000;stop-opacity:1"/><stop id="stop3859-8" offset="1" style="stop-color:#000;stop-opacity:.29411766"/></linearGradient></defs><metadata id="metadata7"/><g id="layer3" transform="translate(0,48)"><path style="opacity:.65;fill:url(#radialGradient3850);fill-opacity:1;stroke:none" id="path3842" d="m 45.151344,41.38316 a 21.075672,2.3831596 0 1 1 -42.151344,0 21.075672,2.3831596 0 1 1 42.151344,0 z" transform="matrix(1.992819,0,0,2.098055,0.0215431,-53.824145)"/></g><g id="layer1" transform="translate(0,-956.3622)"><g id="layer1-8" transform="matrix(2,0,0,2,0,-1054.3622)"><path id="path3029" d="m 3,1014.3622 0,28 42,0 0,-14 -2,-12 -16,0 -2,-4 -20,0 c -1,0 -2,1 -2,2 z" style="fill:#ef6c00;fill-opacity:1;stroke:none"/><rect style="fill:#fffdf0;fill-opacity:1;stroke:none" id="rect3799" width="21" height="8" x="6" y="1017.362"/><path style="opacity:.02999998;fill:#000;fill-opacity:1;stroke:none" id="path3810" d="M 5,8 C 4,8 3,9 3,10 l 0,1 C 3,10 4,9 5,9 l 19,0 2,4 17,0 2,12 0,-1 -2,-12 -16,0 -2,-4 z" transform="translate(0,1004.3622)"/><path style="fill:#ffa726;fill-opacity:1;stroke:none" id="rect2987" d="m 45,1018.3622 0,28 -42,0 0,-26 20,0 2,-4 18,0 c 1,0 2,1 2,2 z"/><path id="path3794" d="m 3,1045.3622 0,1 42,0 0,-1 z" style="opacity:.15;fill:#000;fill-opacity:1;stroke:none"/><path style="fill:none;stroke:none" id="path3801" d="m 25,13 -5,3 3,0 z" transform="translate(0,1004.3622)"/><path style="opacity:.02999998;fill:#000;fill-opacity:1;stroke:none" id="path3805" d="m 25,12 -2,4 -20,0 0,1 21,0 2,-4 17,0 c 1,0 2,1 2,2 l 0,-1 c 0,-1 -1,-2 -2,-2 z" transform="translate(0,1004.3622)"/><path id="path4105" d="m 17,1025.3622 0,5 5,0 -1.71875,-1.7188 c 1.022639,-0.8028 2.318003,-1.2812 3.718749,-1.2812 3.313708,0 6,2.6863 6,6 0,3.3137 -2.686292,6 -6,6 -3.313708,0 -5.999999,-2.6863 -5.999999,-6 0,-0.7007 0.122984,-1.3749 0.34375,-2 l -2.09375,0 c -0.163705,0.6377 -0.25,1.3112 -0.25,2 0,4.4183 3.581722,8 7.999999,8 4.418278,0 8,-3.5817 8,-8 0,-4.4183 -3.581722,-8 -8,-8 -1.956871,0 -3.766194,0.6769 -5.156249,1.8437 L 17,1025.3622 z m 6.90625,2.9687 a 1.0001,1.0001 0 0 0 -0.125,0.031 1.0001,1.0001 0 0 0 -0.78125,1 l 0,3.6875 a 1.0001,1.0001 0 0 0 0,0.094 1.0001,1.0001 0 0 0 0.125,0.75 1.0001,1.0001 0 0 0 0.03125,0.031 1.0001,1.0001 0 0 0 0.03125,0.062 1.0001,1.0001 0 0 0 0.03125,0.031 1.0001,1.0001 0 0 0 0.03125,0.031 1.0001,1.0001 0 0 0 0.03125,0.031 1.0001,1.0001 0 0 0 0.03125,0.031 1.0001,1.0001 0 0 0 0.0625,0.031 1.0001,1.0001 0 0 0 0.03125,0.031 1.0001,1.0001 0 0 0 0.03125,0.031 1.0001,1.0001 0 0 0 0.0625,0.031 1.0001,1.0001 0 0 0 0.125,0.062 l 2.468749,1.4375 a 1.0077822,1.0077822 0 1 0 1,-1.75 l -2.09375,-1.2188 0,-3.4062 a 1.0001,1.0001 0 0 0 -1.093749,-1.0313 z" style="line-height:normal;opacity:1;color:#000;fill:#b17621;fill-opacity:1"/></g></g></svg>