<svg xmlns="http://www.w3.org/2000/svg" xmlns:svg="http://www.w3.org/2000/svg" xmlns:xlink="http://www.w3.org/1999/xlink" id="svg2" width="96" height="96" version="1.1"><defs id="defs4"><linearGradient id="linearGradient3855"><stop style="stop-color:#000;stop-opacity:1" id="stop3857" offset="0"/><stop style="stop-color:#000;stop-opacity:.29411766" id="stop3859" offset="1"/></linearGradient><linearGradient id="linearGradient3833"><stop id="stop3835" offset="0" style="stop-color:#fdfeff;stop-opacity:1"/><stop id="stop3837" offset="1" style="stop-color:#dfe4e4;stop-opacity:1"/></linearGradient><linearGradient id="linearGradient3823"><stop style="stop-color:#49b7ef;stop-opacity:1" id="stop3825" offset="0"/><stop style="stop-color:#1d8de2;stop-opacity:1" id="stop3827" offset="1"/></linearGradient><linearGradient id="linearGradient3956"><stop style="stop-color:#f8f4e1;stop-opacity:1" id="stop3958" offset="0"/><stop style="stop-color:#eae5c8;stop-opacity:1" id="stop3960" offset="1"/></linearGradient><linearGradient id="linearGradient3915"><stop style="stop-color:#f8f4e1;stop-opacity:1" id="stop3917" offset="0"/><stop style="stop-color:#ad9e57;stop-opacity:1" id="stop3919" offset="1"/></linearGradient><linearGradient id="linearGradient3861"><stop style="stop-color:#000;stop-opacity:1" id="stop3863" offset="0"/><stop style="stop-color:#000;stop-opacity:0" id="stop3865" offset="1"/></linearGradient><linearGradient id="linearGradient3844"><stop style="stop-color:#000;stop-opacity:.39215687" id="stop3846" offset="0"/><stop style="stop-color:#000;stop-opacity:0" id="stop3848" offset="1"/></linearGradient><linearGradient id="linearGradient3810"><stop style="stop-color:#f2c66f;stop-opacity:1" id="stop3812" offset="0"/><stop style="stop-color:#fbd68f;stop-opacity:1" id="stop3814" offset="1"/></linearGradient><linearGradient id="linearGradient3816" x1="24" x2="24" y1="1046.362" y2="1014.362" gradientUnits="userSpaceOnUse" xlink:href="#linearGradient3810"/><radialGradient id="radialGradient3850" cx="24.076" cy="41.383" r="21.076" fx="24.076" fy="41.383" gradientTransform="matrix(1,0,0,0.11307633,0,36.703704)" gradientUnits="userSpaceOnUse" xlink:href="#linearGradient3844"/><linearGradient id="linearGradient3856" x1="24" x2="24" y1="1046.362" y2="1014.362" gradientTransform="translate(0,-3)" gradientUnits="userSpaceOnUse" xlink:href="#linearGradient3810"/><linearGradient id="linearGradient3858" x1="24" x2="24" y1="1046.362" y2="1014.362" gradientTransform="translate(0,-1004.3622)" gradientUnits="userSpaceOnUse" xlink:href="#linearGradient3810"/><linearGradient id="linearGradient3867" x1="1.995" x2="46.005" y1="28.563" y2="28.563" gradientUnits="userSpaceOnUse" xlink:href="#linearGradient3861"/><linearGradient id="linearGradient3921" x1="35" x2="38" y1="8" y2="5" gradientUnits="userSpaceOnUse" xlink:href="#linearGradient3915"/><linearGradient id="linearGradient3933" x1="35" x2="38" y1="8" y2="5" gradientTransform="matrix(1.0436562,0,0,1.2222222,26.301501,1003.2511)" gradientUnits="userSpaceOnUse" xlink:href="#linearGradient3915"/><linearGradient id="linearGradient3954" x1="35" x2="44" y1="11" y2="5" gradientTransform="translate(22,1004.3622)" gradientUnits="userSpaceOnUse" xlink:href="#linearGradient3915"/><linearGradient id="linearGradient3829" x1="21" x2="20" y1="14" y2="24" gradientUnits="userSpaceOnUse" xlink:href="#linearGradient3823"/><linearGradient id="linearGradient3839" x1="21" x2="20" y1="14" y2="26" gradientUnits="userSpaceOnUse" xlink:href="#linearGradient3833"/><linearGradient id="linearGradient3862" x1="22" x2="20" y1="15" y2="30" gradientUnits="userSpaceOnUse" xlink:href="#linearGradient3855"/></defs><metadata id="metadata7"/><g id="layer3" transform="translate(0,48)"><path style="opacity:.65;fill:url(#radialGradient3850);fill-opacity:1;stroke:none" id="path3842" d="m 45.151344,41.38316 a 21.075672,2.3831596 0 1 1 -42.151344,0 21.075672,2.3831596 0 1 1 42.151344,0 z" transform="matrix(1.992819,0,0,2.098055,0.0215431,-53.824145)"/></g><g id="layer1" transform="translate(0,-956.3622)"><path id="path3029" d="m 6,974.3622 0,56 84,0 0,-28 -4,-24 -32,0 -4,-8 -40,0 c -2,0 -4,2 -4,4 z" style="fill:#512da8;fill-opacity:1;stroke:none"/><rect style="fill:#fffdf0;fill-opacity:1;stroke:none" id="rect3799" width="42" height="16" x="12" y="980.362"/><path style="opacity:.02999998;fill:#000;fill-opacity:1;stroke:none" id="path3810" d="m 10,970.3622 c -2,0 -4,2 -4,4 l 0,2 c 0,-2 2,-4 4,-4 l 38,0 4,8 34,0 4,24 0,-2 -4,-24 -32,0 -4,-8 z"/><path style="fill:#7e57c2;fill-opacity:1;stroke:none" id="rect2987" d="m 90,982.3622 0,56 -84,0 0,-52 40,0 4,-8 36,0 c 2,0 4,2 4,4 z"/><path id="path3794" d="m 6,1036.3622 0,2 84,0 0,-2 z" style="opacity:.15;fill:#000;fill-opacity:1;stroke:none"/><path style="fill:none;stroke:none" id="path3801" d="m 50,980.3622 -10,6 6,0 z"/><path style="opacity:.02999998;fill:#000;fill-opacity:1;stroke:none" id="path3805" d="m 50,978.3622 -4,8 -40,0 0,2 42,0 4,-8 34,0 c 2,0 4,2 4,4 l 0,-2 c 0,-2 -2,-4 -4,-4 z"/></g></svg>