<svg xmlns="http://www.w3.org/2000/svg" xmlns:svg="http://www.w3.org/2000/svg" id="svg2" width="503.406" height="503.406" version="1.1" viewBox="0 0 471.943 471.943"><metadata id="metadata7"/><g id="layer1" transform="translate(1059.9287,-2764.262)"><rect style="color:#000;display:inline;overflow:visible;visibility:visible;opacity:0;fill:#fff;fill-opacity:1;fill-rule:nonzero;stroke:none;stroke-width:3;stroke-linecap:butt;stroke-linejoin:round;stroke-miterlimit:4;stroke-dasharray:none;stroke-dashoffset:0;stroke-opacity:1;marker:none;enable-background:accumulate" id="rect4229" width="454.286" height="454.286" x="-1043.274" y="2787.233"/><g id="g4221" transform="matrix(0.7704918,0,0,0.7704918,-139.29277,1210.3112)"><circle style="color:#000;display:inline;overflow:visible;visibility:visible;opacity:1;fill:gray;fill-opacity:1;fill-rule:nonzero;stroke:none;stroke-width:3;stroke-linecap:butt;stroke-linejoin:round;stroke-miterlimit:4;stroke-dasharray:none;stroke-dashoffset:0;stroke-opacity:1;marker:none;enable-background:accumulate" id="circle4223" cx="-888.607" cy="2323.091" r="246.477"/><g id="g4225" transform="matrix(0.8063266,0,0,0.8063266,503.52422,2326.9875)" style="fill:#000"><path id="path4227" d="m -2005.3531,376.96865 c 66.8859,-553.16789 493.2081,-662.05224 609.7166,-718.07597 -87.1102,267.642221 -228.37,458.49231 -524.0034,551.44511 103.4822,-195.784379 261.9912,-326.08916 435.469,-459.88102 -148.4827,124.801 -297.0438,249.5153211 -393.871,431.44196 138.2913,-45.70146 419.6753,-307.72068 325.729,-313.41669 32.0063,-3.42141 70.1653,-26.69892 105.5059,-157.3018 -107.7232,39.11218 -425.5892,184.41539 -558.5461,665.78841 z" style="opacity:1;fill:#000;fill-rule:evenodd;stroke:none;stroke-width:1px;stroke-linecap:butt;stroke-linejoin:miter;stroke-opacity:1"/></g></g></g></svg>