<svg xmlns="http://www.w3.org/2000/svg" xmlns:svg="http://www.w3.org/2000/svg" id="svg2" width="24" height="24" version="1.1" viewBox="0 0 24 24"><metadata id="metadata10"/><path style="fill:#002b36;stroke:none;stroke-width:1px;stroke-linecap:butt;stroke-linejoin:miter;stroke-opacity:1" id="path2989" d="M 4,4 4,20 20,20 20,7 17,4 z"/><path style="fill:#93a1a1;stroke:none;stroke-width:1px;stroke-linecap:butt;stroke-linejoin:miter;stroke-opacity:1" id="path3759" d="m 16,4 0,4 -6,0 0,-4 z"/><path style="fill:#eee8d5;stroke:none;stroke-width:1px;stroke-linecap:butt;stroke-linejoin:miter;stroke-opacity:1" id="path3761" d="m 6,10 0,10 12,0 0,-10 z"/><path style="fill:#002b36;stroke:none;stroke-width:1px;stroke-linecap:butt;stroke-linejoin:miter;stroke-opacity:1" id="path3763" d="m 15,5 0,2 -1,0 0,-2 z"/><path style="fill:#002b36;stroke:none;stroke-width:1px;stroke-linecap:butt;stroke-linejoin:miter;stroke-opacity:1" id="path3765" d="m 7,13 0,1 10,0 0,-1 z"/><path style="fill:#002b36;stroke:none;stroke-width:1px;stroke-linecap:butt;stroke-linejoin:miter;stroke-opacity:1" id="path3767" d="m 17,17 -10,0 0,1 10,0 z"/><path style="fill:#fdf6e3;stroke:none;stroke-width:1px;stroke-linecap:butt;stroke-linejoin:miter;stroke-opacity:1;fill-opacity:.22891566" id="path3769" d="m 18,5 0,15 1,0 0,-14 z"/></svg>