<svg xmlns="http://www.w3.org/2000/svg" xmlns:svg="http://www.w3.org/2000/svg" id="svg2" width="256" height="256" version="1.1" viewBox="0 0 256 256"><metadata id="metadata10"/><path style="fill:#53cded" id="path4" d="M 55.749628,32 C 42.624836,32 32,42.62484 32,55.74962 l 0,144.50076 C 32,213.40642 42.624836,224 55.749628,224 l 144.500752,0 C 213.40642,224 224,213.40642 224,200.25038 L 224,55.74962 C 224,42.62484 213.40642,32 200.25038,32 Z m 24.249624,24.00262 95.998498,0 0,87.99862 -31.9995,0 0,7.99988 -31.9995,0 0,-39.99938 31.9995,0 0,-23.99962 -31.9995,0 0,7.99988 -31.999498,0 z m 31.999498,111.99826 31.9995,0 0,31.9995 -31.9995,0 z"/></svg>