<svg xmlns="http://www.w3.org/2000/svg" xmlns:svg="http://www.w3.org/2000/svg" id="svg2" width="256" height="256" version="1.1" viewBox="0 0 256 256"><metadata id="metadata10"/><path style="fill:#78cf72" id="path4" d="M 55.749628,32 C 42.624832,32 32,42.62484 32,55.74962 l 0,144.50074 C 32,213.4064 42.624832,224 55.749628,224 l 144.500752,0 C 213.40642,224 224,213.4064 224,200.25036 L 224,55.74962 C 224,42.62484 213.40642,32 200.25038,32 Z m 56.249122,24.00262 31.9995,0 0,31.9995 -31.9995,0 z m -7.99987,47.99926 39.99937,0 0,71.99888 15.99975,0 0,15.99972 -63.999,0 0,-15.99972 15.99975,0 0,-55.99914 -7.99987,0 z"/></svg>