<svg xmlns="http://www.w3.org/2000/svg" xmlns:svg="http://www.w3.org/2000/svg" id="svg2" width="64" height="64" version="1.1" viewBox="0 0 18.062 18.062"><metadata id="metadata17"/><path id="path4" d="m 3.386955,0.56444811 0,1.35466419 -1.6937552,0 c -0.3386669,0 -0.5644446,0.2822401 -0.5642309,0.5644441 l -7.92e-5,15.0142516 c -1.345e-4,0.2822 0.2820876,0.564424 0.5643101,0.564416 l 14.6755612,0 c 0.282224,8e-6 0.564444,-0.2822 0.56418,-0.564308 l 3.93e-4,-15.0143596 c -1.29e-4,-0.28224 -0.282352,-0.5644441 -0.564573,-0.5644441 l -1.692995,0 0,-1.35466419 C 14.675427,0 14.675427,0 14.110982,0 l -1.467556,0 c -0.564445,0 -0.564445,0 -0.564445,0.56444811 l 0,1.12888819 -6.0960018,0 0,-1.12888819 C 5.9829792,0 5.9829792,0 5.4185343,0 L 3.9509783,0 C 3.3865337,0 3.386955,0 3.386955,0.56444811 Z m 0.751419,0.18740003 1.0927647,0 0,2.26212036 c 0,0.9371522 -1.0927647,0.9371522 -1.0927647,0 z m 8.692447,0 1.092765,0 0,2.26212036 c 0,0.9371522 -1.092765,0.9371522 -1.092765,0 z M 2.2575099,5.6444571 l 13.5466771,0 0,11.2891549 -13.5466771,-2.16e-4 z" style="color:#000;fill:#cacaca"/><g style="font-style:normal;font-variant:normal;font-weight:400;font-stretch:normal;font-size:6.42840672px;line-height:125%;font-family:Ubuntu;-inkscape-font-specification:Ubuntu;letter-spacing:0;word-spacing:0;fill:#3798d6;fill-opacity:1;stroke:none;stroke-width:1px;stroke-linecap:butt;stroke-linejoin:miter;stroke-opacity:1" id="text4155" transform="scale(1.1417405,0.87585576)"><path style="font-style:normal;font-variant:normal;font-weight:700;font-stretch:normal;font-size:9.87778091px;font-family:'droid sans';-inkscape-font-specification:'droid sans Bold';text-align:center;letter-spacing:-.11288894px;word-spacing:.22577785px;text-anchor:middle;fill:#3798d6;fill-opacity:1" id="path4142" d="m 6.2174036,17.186131 2.5080303,-5.787763 -3.2411469,0 0,-1.254015 4.86172,0 0,0.935688 -2.5707307,6.10609 -1.5578727,0 z"/></g></svg>