<svg xmlns="http://www.w3.org/2000/svg" xmlns:svg="http://www.w3.org/2000/svg" id="svg2" width="64" height="64" version="1.1" viewBox="0 0 18.062 18.062"><metadata id="metadata17"/><path id="path4" d="m 3.386955,0.56444811 0,1.35466419 -1.6937552,0 c -0.3386669,0 -0.5644446,0.2822401 -0.5642309,0.5644441 l -7.92e-5,15.0142516 c -1.345e-4,0.2822 0.2820876,0.564424 0.5643101,0.564416 l 14.6755612,0 c 0.282224,8e-6 0.564444,-0.2822 0.56418,-0.564308 l 3.93e-4,-15.0143596 c -1.29e-4,-0.28224 -0.282352,-0.5644441 -0.564573,-0.5644441 l -1.692995,0 0,-1.35466419 C 14.675427,0 14.675427,0 14.110982,0 l -1.467556,0 c -0.564445,0 -0.564445,0 -0.564445,0.56444811 l 0,1.12888819 -6.0960018,0 0,-1.12888819 C 5.9829792,0 5.9829792,0 5.4185343,0 L 3.9509783,0 C 3.3865337,0 3.386955,0 3.386955,0.56444811 Z m 0.751419,0.18740003 1.0927647,0 0,2.26212036 c 0,0.9371522 -1.0927647,0.9371522 -1.0927647,0 z m 8.692447,0 1.092765,0 0,2.26212036 c 0,0.9371522 -1.092765,0.9371522 -1.092765,0 z M 2.2575099,5.6444571 l 13.5466771,0 0,11.2891549 -13.5466771,-2.16e-4 z" style="color:#000;fill:#cacaca"/><g style="font-style:normal;font-variant:normal;font-weight:400;font-stretch:normal;font-size:6.42840672px;line-height:125%;font-family:Ubuntu;-inkscape-font-specification:Ubuntu;letter-spacing:0;word-spacing:0;fill:#3798d6;fill-opacity:1;stroke:none;stroke-width:1px;stroke-linecap:butt;stroke-linejoin:miter;stroke-opacity:1" id="text4155" transform="scale(1.1417405,0.87585576)"><path style="font-style:normal;font-variant:normal;font-weight:700;font-stretch:normal;font-size:9.87778091px;font-family:'droid sans';-inkscape-font-specification:'droid sans Bold';text-align:center;letter-spacing:-.11288894px;word-spacing:.22577785px;text-anchor:middle;fill:#3798d6;fill-opacity:1" id="path4142" d="m 10.346007,17.186131 -4.7314953,0 0,-1.036975 1.6591585,-1.789383 q 0.3135038,-0.337619 0.56913,-0.622184 0.2556261,-0.284565 0.4389053,-0.554661 0.1832791,-0.270095 0.2845649,-0.549837 0.1012859,-0.279742 0.1012859,-0.602892 0,-0.356912 -0.2170411,-0.554661 -0.2122179,-0.197748 -0.5739531,-0.197748 -0.3810277,0 -0.7331165,0.188102 -0.3520889,0.188102 -0.7379397,0.535368 L 5.5952192,11.041456 q 0.217041,-0.197748 0.4533747,-0.376204 0.2363336,-0.183279 0.5208986,-0.32315 0.2845649,-0.139871 0.6270075,-0.221865 0.3424426,-0.08682 0.7668785,-0.08682 0.5064292,0 0.9067495,0.139871 0.4051433,0.139871 0.6897083,0.40032 0.284565,0.255626 0.4340822,0.622185 0.1543405,0.366558 0.1543405,0.824756 0,0.414789 -0.144694,0.795817 -0.1446943,0.376205 -0.3954973,0.742763 -0.2508031,0.361735 -0.5835994,0.72347 -0.3279732,0.356912 -0.7041778,0.728294 l -0.8488717,0.853694 0,0.06752 2.8745882,0 0,1.254016 z"/></g></svg>