<svg xmlns="http://www.w3.org/2000/svg" xmlns:svg="http://www.w3.org/2000/svg" id="svg2" width="64" height="64" version="1.1" viewBox="0 0 18.062 18.062"><metadata id="metadata17"/><path id="path4" d="m 3.386955,0.56444811 0,1.35466419 -1.6937552,0 c -0.3386669,0 -0.5644446,0.2822401 -0.5642309,0.5644441 l -7.92e-5,15.0142516 c -1.345e-4,0.2822 0.2820876,0.564424 0.5643101,0.564416 l 14.6755612,0 c 0.282224,8e-6 0.564444,-0.2822 0.56418,-0.564308 l 3.93e-4,-15.0143596 c -1.29e-4,-0.28224 -0.282352,-0.5644441 -0.564573,-0.5644441 l -1.692995,0 0,-1.35466419 C 14.675427,0 14.675427,0 14.110982,0 l -1.467556,0 c -0.564445,0 -0.564445,0 -0.564445,0.56444811 l 0,1.12888819 -6.0960018,0 0,-1.12888819 C 5.9829792,0 5.9829792,0 5.4185343,0 L 3.9509783,0 C 3.3865337,0 3.386955,0 3.386955,0.56444811 Z m 0.751419,0.18740003 1.0927647,0 0,2.26212036 c 0,0.9371522 -1.0927647,0.9371522 -1.0927647,0 z m 8.692447,0 1.092765,0 0,2.26212036 c 0,0.9371522 -1.092765,0.9371522 -1.092765,0 z M 2.2575099,5.6444571 l 13.5466771,0 0,11.2891549 -13.5466771,-2.16e-4 z" style="color:#000;fill:#cacaca"/><g style="font-style:normal;font-variant:normal;font-weight:400;font-stretch:normal;font-size:6.42840672px;line-height:125%;font-family:Ubuntu;-inkscape-font-specification:Ubuntu;letter-spacing:0;word-spacing:0;fill:#3798d6;fill-opacity:1;stroke:none;stroke-width:1px;stroke-linecap:butt;stroke-linejoin:miter;stroke-opacity:1" id="text4155" transform="scale(1.1417405,0.87585576)"><path style="font-style:normal;font-variant:normal;font-weight:700;font-stretch:normal;font-size:9.87778091px;font-family:'droid sans';-inkscape-font-specification:'droid sans Bold';text-align:center;letter-spacing:-.11288894px;word-spacing:.22577785px;text-anchor:middle;fill:#3798d6;fill-opacity:1" id="path4142" d="m 8.1032495,12.681322 q 0.4533747,0 0.8440486,0.139871 0.390674,0.139871 0.6800621,0.409967 0.2893881,0.270095 0.4533748,0.675239 0.163986,0.40032 0.163986,0.921218 0,0.573953 -0.178456,1.032151 -0.1784555,0.453375 -0.5257212,0.771702 -0.3472658,0.313504 -0.8633412,0.482313 -0.5112524,0.16881 -1.176845,0.16881 -0.2652725,0 -0.5257218,-0.02411 -0.2604493,-0.02412 -0.501606,-0.07235 -0.2363337,-0.04341 -0.4533747,-0.115756 -0.212218,-0.07235 -0.3858509,-0.168809 l 0,-1.287778 q 0.1688098,0.09646 0.390674,0.18328 0.2218642,0.08199 0.4581978,0.144694 0.2411568,0.05788 0.4823136,0.09646 0.2411567,0.03376 0.4581978,0.03376 0.6463001,0 0.9839196,-0.265272 0.3376194,-0.270096 0.3376194,-0.853695 0,-0.520899 -0.3327963,-0.790994 -0.3279732,-0.274919 -1.0176815,-0.274919 -0.1254015,0 -0.2700956,0.01447 -0.1398709,0.01447 -0.2797418,0.03859 -0.1350478,0.02412 -0.2604493,0.05305 -0.1254015,0.02412 -0.2170411,0.05306 l -0.5932456,-0.318327 0.2652724,-3.593236 3.7234604,0 0,1.263661 -2.4308602,0 -0.1157552,1.38424 q 0.1543403,-0.03376 0.356912,-0.06752 0.2073948,-0.03376 0.5305449,-0.03376 z"/></g></svg>