<svg xmlns="http://www.w3.org/2000/svg" xmlns:svg="http://www.w3.org/2000/svg" id="svg2" width="22" height="22" version="1.1" viewBox="0 0 22 22"><metadata id="metadata10"/><path style="fill:#002b36;stroke:none" id="path2989" d="M 2.9999999,2.9999998 2.9999999,19 19,19 19,5.9999998 l -3,-3 z"/><path style="fill:#93a1a1;stroke:none" id="path3759" d="m 15,2.9999998 0,4 -5.9999999,0 0,-4 z"/><path style="fill:#eee8d5;stroke:none" id="path3761" d="M 4.9999998,8.9999998 4.9999998,19 17,19 17,8.9999998 z"/><path style="fill:#002b36;stroke:none" id="path3763" d="m 14,3.9999998 0,2 -1,0 0,-2 z"/><path style="fill:#002b36;stroke:none" id="path3765" d="m 5.9999998,12 0,1 L 16,13 16,12 z"/><path style="fill:#002b36;stroke:none" id="path3767" d="m 16,16 -10.0000002,0 0,1 L 16,17 z"/><path style="fill:#fdf6e3;fill-opacity:.22891564;stroke:none" id="path3769" d="M 17,3.9999998 17,19 18,19 18,4.9999998 z"/></svg>