<svg xmlns="http://www.w3.org/2000/svg" xmlns:svg="http://www.w3.org/2000/svg" xmlns:xlink="http://www.w3.org/1999/xlink" id="svg2" width="48" height="48" version="1.1"><defs id="defs4"><linearGradient id="linearGradient3855"><stop style="stop-color:#000;stop-opacity:1" id="stop3857" offset="0"/><stop style="stop-color:#000;stop-opacity:.29411766" id="stop3859" offset="1"/></linearGradient><linearGradient id="linearGradient3833"><stop id="stop3835" offset="0" style="stop-color:#fdfeff;stop-opacity:1"/><stop id="stop3837" offset="1" style="stop-color:#dfe4e4;stop-opacity:1"/></linearGradient><linearGradient id="linearGradient3823"><stop style="stop-color:#49b7ef;stop-opacity:1" id="stop3825" offset="0"/><stop style="stop-color:#1d8de2;stop-opacity:1" id="stop3827" offset="1"/></linearGradient><linearGradient id="linearGradient3956"><stop style="stop-color:#f8f4e1;stop-opacity:1" id="stop3958" offset="0"/><stop style="stop-color:#eae5c8;stop-opacity:1" id="stop3960" offset="1"/></linearGradient><linearGradient id="linearGradient3915"><stop style="stop-color:#f8f4e1;stop-opacity:1" id="stop3917" offset="0"/><stop style="stop-color:#ad9e57;stop-opacity:1" id="stop3919" offset="1"/></linearGradient><linearGradient id="linearGradient3861"><stop style="stop-color:#000;stop-opacity:1" id="stop3863" offset="0"/><stop style="stop-color:#000;stop-opacity:0" id="stop3865" offset="1"/></linearGradient><linearGradient id="linearGradient3844"><stop style="stop-color:#000;stop-opacity:.39215687" id="stop3846" offset="0"/><stop style="stop-color:#000;stop-opacity:0" id="stop3848" offset="1"/></linearGradient><linearGradient id="linearGradient3810"><stop style="stop-color:#f2c66f;stop-opacity:1" id="stop3812" offset="0"/><stop style="stop-color:#fbd68f;stop-opacity:1" id="stop3814" offset="1"/></linearGradient><linearGradient id="linearGradient3816" x1="24" x2="24" y1="1046.362" y2="1014.362" gradientUnits="userSpaceOnUse" xlink:href="#linearGradient3810"/><radialGradient id="radialGradient3850" cx="24.076" cy="41.383" r="21.076" fx="24.076" fy="41.383" gradientTransform="matrix(1,0,0,0.11307633,0,36.703704)" gradientUnits="userSpaceOnUse" xlink:href="#linearGradient3844"/><linearGradient id="linearGradient3856" x1="24" x2="24" y1="1046.362" y2="1014.362" gradientTransform="translate(0,-3)" gradientUnits="userSpaceOnUse" xlink:href="#linearGradient3810"/><linearGradient id="linearGradient3858" x1="24" x2="24" y1="1046.362" y2="1014.362" gradientTransform="translate(0,-1004.3622)" gradientUnits="userSpaceOnUse" xlink:href="#linearGradient3810"/><linearGradient id="linearGradient3867" x1="1.995" x2="46.005" y1="28.563" y2="28.563" gradientUnits="userSpaceOnUse" xlink:href="#linearGradient3861"/><linearGradient id="linearGradient3921" x1="35" x2="38" y1="8" y2="5" gradientUnits="userSpaceOnUse" xlink:href="#linearGradient3915"/><linearGradient id="linearGradient3933" x1="35" x2="38" y1="8" y2="5" gradientTransform="matrix(1.0436562,0,0,1.2222222,26.301501,1003.2511)" gradientUnits="userSpaceOnUse" xlink:href="#linearGradient3915"/><linearGradient id="linearGradient3954" x1="35" x2="44" y1="11" y2="5" gradientTransform="translate(22,1004.3622)" gradientUnits="userSpaceOnUse" xlink:href="#linearGradient3915"/><linearGradient id="linearGradient3829" x1="21" x2="20" y1="14" y2="24" gradientUnits="userSpaceOnUse" xlink:href="#linearGradient3823"/><linearGradient id="linearGradient3839" x1="21" x2="20" y1="14" y2="26" gradientUnits="userSpaceOnUse" xlink:href="#linearGradient3833"/><linearGradient id="linearGradient3862" x1="22" x2="20" y1="15" y2="30" gradientUnits="userSpaceOnUse" xlink:href="#linearGradient3855"/></defs><metadata id="metadata7"/><g id="layer3"><path style="opacity:.65;fill:url(#radialGradient3850);fill-opacity:1;stroke:none" id="path3842" d="m 45.151344,41.38316 a 21.075672,2.3831596 0 1 1 -42.151344,0 21.075672,2.3831596 0 1 1 42.151344,0 z" transform="matrix(1.1387537,0,0,1.0490275,-3.4162611,-1.9120725)"/></g><g id="layer1" transform="translate(0,-1004.3622)"><path id="path3029" d="m 3,1014.3622 0,28 42,0 0,-14 -2,-12 -16,0 -2,-4 -20,0 c -1,0 -2,1 -2,2 z" style="fill:#ef6c00;fill-opacity:1;stroke:none"/><rect style="fill:#fffdf0;fill-opacity:1;stroke:none" id="rect3799" width="21" height="8" x="6" y="1017.362"/><path style="fill:#000;fill-opacity:1;stroke:none;opacity:.03" id="path3810" d="M 5,8 C 4,8 3,9 3,10 l 0,1 C 3,10 4,9 5,9 l 19,0 2,4 17,0 2,12 0,-1 -2,-12 -16,0 -2,-4 z" transform="translate(0,1004.3622)"/><path style="fill:#ffa726;fill-opacity:1;stroke:none" id="rect2987" d="m 45,1018.3622 0,28 -42,0 0,-26 20,0 2,-4 18,0 c 1,0 2,1 2,2 z"/><path id="path3794" d="m 3,1045.3622 0,1 42,0 0,-1 z" style="opacity:.15;fill:#000;fill-opacity:1;stroke:none"/><path style="fill:none;stroke:none;stroke-width:1px;stroke-linecap:butt;stroke-linejoin:miter;stroke-opacity:1;fill-opacity:1" id="path3801" d="m 25,13 -5,3 3,0 z" transform="translate(0,1004.3622)"/><path style="opacity:.03;fill:#000;fill-opacity:1;stroke:none" id="path3805" d="m 25,12 -2,4 -20,0 0,1 21,0 2,-4 17,0 c 1,0 2,1 2,2 l 0,-1 c 0,-1 -1,-2 -2,-2 z" transform="translate(0,1004.3622)"/><g id="g3956" transform="translate(38.421265,-0.1145)" style="opacity:1"><g id="g8" transform="translate(-22.421265,1025.4767)" style="fill:#b17621;fill-opacity:1"><g id="g10" transform="translate(0,-1036.3622)" style="fill:#b17621;fill-opacity:1;fill-rule:evenodd"><path style="fill:#b17621;fill-opacity:1" id="path12" d="m 0.04535494,1046.7965 c 0.22886095,-0.1684 0.76009966,-0.6684 1.63017986,-1.5329 0.8668571,-0.87 2.0267664,-2.0604 3.528738,-3.6237 0.9828535,1.3976 1.7062383,2.4057 2.2405305,3.0686 0.5219982,0.6546 0.8119968,0.9418 0.8822068,0.8617 0.555492,-0.4971 1.0227091,-0.9197 1.4256542,-1.2898 0.3968387,-0.3701 0.7049827,-0.6739 0.9492797,-0.9225 1.221044,1.5356 2.234512,2.8006 3.122824,3.8695 0.872959,1.0606 1.566074,1.8643 2.103334,2.4554 l -3.324382,-2.762 c -0.274735,0.7071 -0.723383,1.0717 -1.358412,1.1048 -0.653343,0.019 -1.6453591,-0.7733 -2.4451436,-0.9197 -0.7997849,-0.1464 -1.5965161,0.3038 -2.3078612,0.061 -0.7265206,-0.2569 -1.2881156,-1.2733 -1.9688495,-1.5357 -0.6837852,-0.2596 -1.3767284,-0.2596 -2.1033348,0 -0.7905419,0.3867 -1.58116915,0.7761 -2.37476462,1.1655 z"/><path style="fill:#b17621;fill-opacity:1" id="path14" d="m 0,1046.3622 5,-5 3.2817389,3.6779 2.2182611,-2.1779 5.5,6.5 -3,2 -11,0 z"/></g></g><path id="rect3007-9" d="m -20.421265,1025.4767 c -1.108,0 -2,0.892 -2,2 l 0,12 c 0,1.108 0.892,2 2,2 l 12,0 c 1.108,0 2,-0.892 2,-2 l 0,-12 c 0,-1.108 -0.892,-2 -2,-2 l -12,0 z m 0,2 12,0 0,12 -12,0 0,-12 z" style="fill:#b17621;fill-opacity:1"/></g></g></svg>