<svg xmlns="http://www.w3.org/2000/svg" xmlns:svg="http://www.w3.org/2000/svg" xmlns:xlink="http://www.w3.org/1999/xlink" id="svg2" width="256" height="256" version="1.1"><defs id="defs4"><radialGradient id="radialGradient3964-7" cx="32.5" cy="56.5" r="33.5" fx="32.5" fy="56.5" gradientTransform="matrix(1,0,0,0.10447761,0,50.597015)" gradientUnits="userSpaceOnUse" xlink:href="#linearGradient3958-9"/><linearGradient id="linearGradient3958-9"><stop style="stop-color:#000;stop-opacity:1" id="stop3960-3" offset="0"/><stop style="stop-color:#000;stop-opacity:0" id="stop3962-01" offset="1"/></linearGradient><radialGradient id="radialGradient3964-4" cx="32.5" cy="56.5" r="33.5" fx="32.5" fy="56.5" gradientTransform="matrix(1,0,0,0.10447761,0,50.597015)" gradientUnits="userSpaceOnUse" xlink:href="#linearGradient3958-1"/><linearGradient id="linearGradient3958-1"><stop style="stop-color:#000;stop-opacity:1" id="stop3960-7" offset="0"/><stop style="stop-color:#000;stop-opacity:0" id="stop3962-0" offset="1"/></linearGradient><radialGradient id="radialGradient3981" cx="32.5" cy="56.5" r="33.5" fx="32.5" fy="56.5" gradientTransform="matrix(1,0,0,0.10447761,0,50.597015)" gradientUnits="userSpaceOnUse" xlink:href="#linearGradient3958-1"/><linearGradient id="linearGradient3958-6"><stop style="stop-color:#000;stop-opacity:1" id="stop3960-6" offset="0"/><stop style="stop-color:#000;stop-opacity:0" id="stop3962-4" offset="1"/></linearGradient><radialGradient id="radialGradient3964-3" cx="32.5" cy="56.5" r="33.5" fx="32.5" fy="56.5" gradientTransform="matrix(1,0,0,0.10447761,0,50.597015)" gradientUnits="userSpaceOnUse" xlink:href="#linearGradient3958-6"/><linearGradient id="linearGradient3958"><stop style="stop-color:#000;stop-opacity:1" id="stop3960" offset="0"/><stop style="stop-color:#000;stop-opacity:0" id="stop3962" offset="1"/></linearGradient><radialGradient id="radialGradient3964" cx="32.5" cy="56.5" r="33.5" fx="32.5" fy="56.5" gradientTransform="matrix(1,0,0,0.10447761,0,50.597015)" gradientUnits="userSpaceOnUse" xlink:href="#linearGradient3958"/><linearGradient id="linearGradient3958-7"><stop style="stop-color:#000;stop-opacity:1" id="stop3960-0" offset="0"/><stop style="stop-color:#000;stop-opacity:0" id="stop3962-1" offset="1"/></linearGradient><radialGradient id="radialGradient3964-2" cx="32.5" cy="56.5" r="33.5" fx="32.5" fy="56.5" gradientTransform="matrix(1,0,0,0.10447761,0,50.597015)" gradientUnits="userSpaceOnUse" xlink:href="#linearGradient3958-7"/><linearGradient id="linearGradient3958-6-6"><stop style="stop-color:#000;stop-opacity:1" id="stop3960-6-7" offset="0"/><stop style="stop-color:#000;stop-opacity:0" id="stop3962-4-0" offset="1"/></linearGradient><radialGradient id="radialGradient3964-3-2" cx="32.5" cy="56.5" r="33.5" fx="32.5" fy="56.5" gradientTransform="matrix(1,0,0,0.10447761,0,50.597015)" gradientUnits="userSpaceOnUse" xlink:href="#linearGradient3958-6-6"/><linearGradient id="linearGradient3958-92"><stop style="stop-color:#000;stop-opacity:1" id="stop3960-68" offset="0"/><stop style="stop-color:#000;stop-opacity:0" id="stop3962-49" offset="1"/></linearGradient><radialGradient id="radialGradient3964-1" cx="32.5" cy="56.5" r="33.5" fx="32.5" fy="56.5" gradientTransform="matrix(1,0,0,0.10447761,0,50.597015)" gradientUnits="userSpaceOnUse" xlink:href="#linearGradient3958-92"/><radialGradient id="radialGradient3964-4-9" cx="32.5" cy="56.5" r="33.5" fx="32.5" fy="56.5" gradientTransform="matrix(1,0,0,0.10447761,0,50.597015)" gradientUnits="userSpaceOnUse" xlink:href="#linearGradient3958-1-5"/><linearGradient id="linearGradient3958-1-5"><stop style="stop-color:#000;stop-opacity:1" id="stop3960-7-3" offset="0"/><stop style="stop-color:#000;stop-opacity:0" id="stop3962-0-9" offset="1"/></linearGradient><radialGradient id="radialGradient3981-5" cx="32.5" cy="56.5" r="33.5" fx="32.5" fy="56.5" gradientTransform="matrix(1,0,0,0.10447761,0,50.597015)" gradientUnits="userSpaceOnUse" xlink:href="#linearGradient3958-1-5"/><linearGradient id="linearGradient3958-6-7"><stop style="stop-color:#000;stop-opacity:1" id="stop3960-6-1" offset="0"/><stop style="stop-color:#000;stop-opacity:0" id="stop3962-4-5" offset="1"/></linearGradient><radialGradient id="radialGradient3964-3-5" cx="32.5" cy="56.5" r="33.5" fx="32.5" fy="56.5" gradientTransform="matrix(1,0,0,0.10447761,0,50.597015)" gradientUnits="userSpaceOnUse" xlink:href="#linearGradient3958-6-7"/><linearGradient id="linearGradient3958-12"><stop style="stop-color:#000;stop-opacity:1" id="stop3960-1" offset="0"/><stop style="stop-color:#000;stop-opacity:0" id="stop3962-2" offset="1"/></linearGradient><radialGradient id="radialGradient3964-8" cx="32.5" cy="56.5" r="33.5" fx="32.5" fy="56.5" gradientTransform="matrix(1,0,0,0.10447761,0,50.597015)" gradientUnits="userSpaceOnUse" xlink:href="#linearGradient3958-12"/></defs><metadata id="metadata7"/><g id="layer1" transform="translate(0,-796.3622)"><g id="layer1-2" transform="matrix(2,0,0,2,0,-1052.3622)"><g id="layer1-1" transform="matrix(2,0,0,2,0,-1056.3622)"><path id="path3029" d="m 0,997.42103 0,42.82347 64,0 0,-21.4117 -3.047619,-18.353 L 37,1000.3622 l -3,-6 -30.952381,0 C 1.52381,994.3622 0,995.89161 0,997.42103 z" style="fill:#ef6c00;fill-opacity:1;stroke:none"/><rect style="fill:#fffdf0;fill-opacity:1;stroke:none" id="rect3799" width="31.571" height="11.882" x="5" y="1002.362"/><path style="opacity:.02999998;fill:#000;fill-opacity:1;stroke:none" id="path3790" d="M 3.0625,6 C 1.538691,6 0,7.53308 0,9.0625 l 0,2 C 0,9.53308 1.538691,8 3.0625,8 L 33,8 36,14 60.9375,14.125 64,32.46875 l 0,-2 L 60.9375,12.125 37,12 34,6 z" transform="translate(0,988.3622)"/><path style="fill:#ffa726;fill-opacity:1;stroke:none" id="rect2987-9" d="m 64,1003.5387 0,42.8235 -64,0 0,-40 30,0 3,-6 27.952381,0.1176 c 1.523809,0 3.047619,1.5295 3.047619,3.0589 z"/><path id="path3794-2" d="m 0,1044.3622 0,2 64,0 0,-2 z" style="opacity:.15;fill:#000;fill-opacity:1;stroke:none"/><path style="fill:none;stroke:none" id="path3801" d="m 33.52381,1002.0093 -7.619048,4.5882 4.571428,0 z"/><path style="opacity:.02999998;fill:#000;fill-opacity:1;stroke:none" id="path3015-9" d="m 33,12 -3,6 -30,0 0,2 31,0 3,-6 26.9375,0.125 c 1.523809,0 3.0625,1.5331 3.0625,3.0625 l 0,-2 C 64,13.6581 62.461309,12.125 60.9375,12.125 z" transform="translate(0,988.3622)"/><path style="fill:#4caf50;fill-opacity:1" id="path2996" d="m 60,1025.3622 -12,0 0,-13 -13,0 0,13 -13,0 0,13 13,0 0,12 13,0 0,-12 12,0 z"/></g></g></g></svg>