<svg xmlns="http://www.w3.org/2000/svg" xmlns:svg="http://www.w3.org/2000/svg" xmlns:xlink="http://www.w3.org/1999/xlink" id="svg2" width="256" height="256" version="1.1" viewBox="0 0 256 256"><metadata id="metadata98"/><defs id="defs4"><path id="SVGCleanerId_0" d="m 14,12 20,0 c 1.105,0 2,0.895 2,2 l 0,20 c 0,1.105 -0.895,2 -2,2 l -20,0 c -1.105,0 -2,-0.895 -2,-2 l 0,-20 c 0,-1.105 0.895,-2 2,-2 m 0,0"/></defs><use style="fill:none;stroke:#af8566;stroke-width:2.87999988;stroke-linecap:butt;stroke-linejoin:miter;stroke-miterlimit:4;stroke-dasharray:none;stroke-opacity:1" id="use72" width="100%" height="100%" x="0" y="0" stroke-miterlimit="4" transform="matrix(8.3333334,0,0,8.3333334,-72.000002,-72.000002)" xlink:href="#SVGCleanerId_0"/><use style="fill:#fff4ab;fill-opacity:1;fill-rule:nonzero;stroke:none" id="use74" width="100%" height="100%" x="0" y="0" transform="matrix(7.9999998,0,0,7.9999998,-63.999998,-64.000002)" xlink:href="#SVGCleanerId_0"/><path style="fill:#e4d66a;fill-opacity:1;fill-rule:nonzero;stroke:none" id="path84" d="M 31.999999,176 224,176 l 0,16 -192.000001,0 z"/><path style="fill:#e4d66a;fill-opacity:1;fill-rule:nonzero;stroke:none" id="path84-3" d="M 32.000001,128 224,128 l 0,16 -191.999999,0 z"/><path style="fill:#e4d66a;fill-opacity:1;fill-rule:nonzero;stroke:none" id="path84-3-9" d="M 32.000001,80 224,80 l 0,15.999999 -191.999999,0 z"/><path style="fill:#e6b2a9;fill-opacity:1;fill-rule:nonzero;stroke:none" id="path86" d="m 80.000001,32 15.999996,0 0,192 -15.999996,0 z"/></svg>