<svg xmlns="http://www.w3.org/2000/svg" xmlns:svg="http://www.w3.org/2000/svg" id="svg2" width="256" height="256" version="1.1" viewBox="0 0 256 256"><metadata id="metadata12"/><path style="fill:#859900;fill-opacity:1" id="path4-0" d="m 40.94894,28.51554 c -8.165874,28.30098 -8.345512,67.46116 6.188892,86.77746 6.109532,9.17982 14.455016,21.2303 7.926216,32.1876 C 42.985444,164.5898 22.840238,173.82816 4.4921696,183.14468 0,185.75832 0,185 0,193.59368 0,200 0,200 4.0529616,200 L 179.94689,200 C 184,200 184,200 184,193.59368 c 0,-8.59368 0,-8.05452 -4.49231,-10.449 -18.34791,-9.31652 -38.49314,-18.55488 -50.57174,-35.66408 -6.5288,-10.9573 1.81669,-23.00778 7.92622,-32.1876 15.35318,-21.01582 17.34949,-66.77748 6.14921,-87.40224 C 132.88889,10 122.66667,0.68356 92,0 61.293472,1.211 51.111116,10 40.94894,28.51554 Z"/><path style="fill:#6c71c4" id="path4" d="m 112.94894,84.51554 c -8.16588,28.30098 -8.34551,67.46114 6.1889,86.77746 6.10952,9.1798 14.45502,21.23032 7.92621,32.1876 -12.07861,17.1092 -32.22381,26.34756 -50.571882,35.66404 C 72,241.75832 72,241 72,249.59368 72,256 72,256 76.052964,256 l 175.893916,0 C 256,256 256,256 256,249.59368 c 0,-8.59368 0,-8.05452 -4.49232,-10.44904 -18.3479,-9.31648 -38.49312,-18.55484 -50.57172,-35.66404 -6.52882,-10.95728 1.81668,-23.0078 7.9262,-32.1876 15.35318,-21.0158 17.34948,-66.77746 6.14922,-87.40224 C 204.88888,66 194.66666,56.68356 164,56 133.29346,57.211 123.11111,66 112.94894,84.51554 Z"/></svg>