<svg xmlns="http://www.w3.org/2000/svg" xmlns:svg="http://www.w3.org/2000/svg" id="svg2" width="24" height="24" version="1.1" viewBox="0 0 24 24"><metadata id="metadata22"/><path style="fill:#df1818;fill-opacity:1" id="path4" d="M 5,1 C 4.527343,1 4,1.527344 4,2 l 0,20 c 0,0.445312 0.554687,1 1,1 l 14,0 c 0.445313,0 0.992367,-0.554753 1,-1 L 20,7 14,1 z"/><path style="fill:#fff" id="path12" d="m 12.020826,7.966798 c 0,0 0.32556,3.15112 -1.975437,7.317794 C 7.7499124,19.445463 7.0767202,18.888357 6.8339295,18.74328 6.5911386,18.5982 6.282132,18.133947 7.2974392,17.193833 c 1.0208249,-0.934309 1.418119,-0.9169 1.418119,-0.9169 0,0 -0.9325372,0.591924 -1.2967229,1.172238 -0.364187,0.574516 -0.6566392,0.934311 -0.5683516,1.0968 0.088288,0.162487 1.1256666,-0.661561 1.5615856,-1.369548 C 9.0962994,16.062215 10.393022,13.984682 11,12 11.60146,10.021119 12.020826,7.966798 12.020826,7.966798 z"/><path style="fill:#000;fill-opacity:.19599998" id="path6" d="m 15,7 5,5 0,-5 z"/><path style="fill:#fff" id="path14" d="m 17.687784,15.267181 c 0,0 -0.05518,0.145086 -0.65664,0.08705 -0.606975,-0.05222 -2.957634,-0.829847 -4.221248,-2.414111 -1.258099,-1.584265 -1.36294,-3.766256 -1.451227,-4.9036767 -0.08277,-1.1374208 0.391776,-0.8182462 0.463509,-0.6731673 0.104843,0.092849 0.160021,0.400418 0.160021,0.400418 0,0 -0.03863,-0.4642534 -0.226237,-0.6615617 -0.193129,-0.1973144 -0.358667,-0.2031171 -0.551797,0.1392686 -0.187612,0.3423873 -0.2759,1.2999095 -0.121395,2.2168111 0.154501,0.922704 0.794587,3.02925 1.589176,4.004185 0.794588,0.974932 2.389284,1.822195 3.564612,2.07173 1.175326,0.255341 1.451226,-0.266946 1.451226,-0.266946 z"/><path style="fill:#fff;fill-opacity:.39200003" id="path8" d="m 14,1 6,6 -5,0 C 14.554688,7 14,6.445312 14,6 z"/><path style="fill:#fff" id="path16" d="m 10.028837,15.679206 c 0,0 2.284441,-0.77182 4.441968,-0.992341 2.163045,-0.214717 2.902453,0.01741 3.095583,0.179898 0.187611,0.162489 0.187611,0.342387 0.187611,0.342387 0,0 0.242792,-0.249536 0.08277,-0.504875 -0.132431,-0.266946 -0.342109,-0.481664 -2.052683,-0.429434 -1.710571,0.05223 -1.831966,0.127675 -3.404588,0.429434 -1.572622,0.307568 -2.350656,0.974931 -2.350656,0.974931 z"/></svg>