<svg xmlns="http://www.w3.org/2000/svg" xmlns:svg="http://www.w3.org/2000/svg" id="svg2" width="24" height="24" version="1.1" viewBox="0 0 24 24"><metadata id="metadata18"/><path style="fill:#7c9c35;fill-opacity:1" id="path4-0" d="m 5,0.9999998 c -0.472657,0 -1,0.527344 -1,1 L 4,22 c 0,0.445312 0.554687,1 1,1 l 14,0 c 0.445313,0 0.992367,-0.554753 1,-1 L 20,7 14,0.9999998 z"/><path style="fill:#000;fill-opacity:.19599998" id="path6" d="m 15,7 5,5 0,-5 z"/><path style="fill:#fff;fill-opacity:.39200003" id="path8" d="M 14,0.9999998 20,7 15,7 C 14.554688,7 14,6.445312 14,6 z"/><path style="fill:#fff" id="path12" d="M 12,16.172512 8.7456483,12.91816 12,9.659392 13.086256,10.745648 10.913744,12.91816 12,14 15.254352,10.745648 12.419489,7.9107849 c -0.229615,-0.2340305 -0.609363,-0.2340305 -0.838978,0 L 6.9926248,12.498671 c -0.2296139,0.229615 -0.2296139,0.604947 0,0.838977 l 4.5878862,4.587886 c 0.229615,0.229615 0.609363,0.229615 0.838978,0 l 4.587886,-4.587886 c 0.229614,-0.23403 0.229614,-0.609362 0,-0.838977 l -0.666767,-0.666767 z"/></svg>