<svg xmlns="http://www.w3.org/2000/svg" xmlns:svg="http://www.w3.org/2000/svg" id="svg2989" width="24" height="24" version="1.1" viewBox="0 0 24 24"><metadata id="metadata3017"/><path style="fill:#dcdcdc;fill-opacity:1" id="path4-1" d="M 5,1 C 4.527343,1 4,1.527344 4,2 l 0,20 c 0,0.445312 0.554687,1 1,1 l 14,0 c 0.445313,0 1,-0.554688 1,-1 L 20,2 C 20,1.527344 19.472657,1 19,1 z"/><path style="fill:#888" id="path16" d="m 7,11 0,1 10,0 0,-1 z"/><path style="fill:#888" id="path22" d="m 7,13 0,1 10,0 0,-1 z"/><path style="fill:#888" id="path28" d="m 7,17 0,1 10,0 0,-1 z"/><path style="fill:#888" id="path16-4" d="M 7,7 7,8 17,8 17,7 z"/><path style="fill:#888" id="path22-9" d="m 7,15 0,1 10,0 0,-1 z"/><path style="fill:#888" id="path16-6" d="m 7,9 0,1 10,0 0,-1 z"/></svg>