<svg xmlns="http://www.w3.org/2000/svg" xmlns:svg="http://www.w3.org/2000/svg" id="svg2" width="24" height="24" version="1.1" viewBox="0 0 24 24"><metadata id="metadata34"/><path style="fill:#7099c3;fill-opacity:1" id="path4" d="m 5,1.0000002 c -0.472657,0 -1,0.527344 -1,1 L 4,22 c 0,0.445312 0.554687,1 1,1 l 14,0 c 0.445313,0 0.992367,-0.554753 1,-1 l 0,-14.9999998 -6,-6 z"/><path style="fill:#000;fill-opacity:.19599998" id="path6" d="M 15,7.0000002 20,12 20,7.0000002 z"/><path style="fill:#fff;fill-opacity:.39200003" id="path8" d="m 14,1.0000002 6,6 -5,0 c -0.445312,0 -1,-0.554688 -1,-1 z"/><g style="fill:#fff" id="g10" transform="matrix(1.6669746,0,0,1.6670988,-1.3361114,-1.5043514)"><path id="path12" d="m 5.6006321,7.5006661 0,0.5998444 4.7991129,0 0,-0.5998444 z"/><path id="path14" d="m 5.2668101,8.700355 0.00663,0.5998445 5.4663799,0 0.01326,-0.5998445 z"/><path id="path16" d="m 5.6006321,9.900044 0,0.599844 4.7991129,0 0,-0.599844 z"/><path id="path18" d="m 7.726562,6.273438 0,5.453124 0.546876,0 0,-5.453124 z"/></g><g style="fill:none;stroke:#fff" id="g20" transform="matrix(1.6669746,0,0,1.6670988,-1.3361114,-1.5043514)"><g style="stroke-width:2" id="g22"><path id="path24" d="m 20.447975,32.994922 c -2.005237,-6.001389 -2.005237,-11.988455 0,-17.989844" transform="matrix(0.27272,0,0,0.27272,1.45461,2.45464)"/><path id="path26" d="m 27.466306,32.994922 c 2.005237,-4.998771 2.005237,-11.988455 0,-17.989844" transform="matrix(0.27272,0,0,0.27272,1.45461,2.45464)"/></g><path style="stroke-width:1.82099998;stroke-linecap:round" id="path28" d="m 33.055052,27.317092 c 0,5.033344 -4.068402,9.101746 -9.101746,9.101746 -5.033344,0 -9.101747,-4.068402 -9.101747,-9.101746 0,-5.033344 4.068403,-9.101747 9.101747,-9.101747 5.033344,0 9.101746,4.068403 9.101746,9.101747 z" transform="matrix(0.29957,0,0,0.29957,0.82443,0.81676)"/></g></svg>