<svg xmlns="http://www.w3.org/2000/svg" xmlns:svg="http://www.w3.org/2000/svg" id="svg2" width="24" height="24" version="1.1" viewBox="0 0 24 24"><metadata id="metadata34"/><path style="fill:#dcdcdc" id="path4" d="M 5,1 C 4.527343,1 4,1.527344 4,2 l 0,20 c 0,0.445312 0.554687,1 1,1 l 14,0 c 0.445313,0 0.992367,-0.554753 1,-1 L 20,7 14,1 z"/><path style="fill:#000;fill-opacity:.19599998" id="path6" d="m 15,7 5,5 0,-5 z"/><path style="fill:#fff;fill-opacity:.39200003" id="path8" d="m 14,1 6,6 -5,0 C 14.554688,7 14,6.445312 14,6 z"/><path style="fill:#888" id="path16" d="m 7,12 0,1 10,0 0,-1 z"/><path style="fill:#888" id="path22" d="m 7,14 0,1 10,0 0,-1 z"/><path style="fill:#888" id="path28" d="m 7,18 0,1 10,0 0,-1 z"/><path style="fill:#888" id="path22-9" d="m 7,16 0,1 10,0 0,-1 z"/><path style="fill:#888" id="path16-6" d="m 7,10 0,1 10,0 0,-1 z"/></svg>