<svg xmlns="http://www.w3.org/2000/svg" xmlns:svg="http://www.w3.org/2000/svg" id="svg2" width="64" height="64" version="1.1" viewBox="0 0 64 64"><metadata id="metadata10"/><path style="fill:#53cded" id="path4" d="M 13.937407,8 C 10.656209,8 8,10.656208 8,13.937407 L 8,50.062593 C 8,53.351603 10.656209,56 13.937407,56 l 36.125186,0 C 53.351603,56 56,53.351603 56,50.062593 L 56,13.937407 C 56,10.656208 53.351603,8 50.062593,8 Z m 6.062406,6.000656 23.999625,0 0,21.999656 -7.999875,0 0,1.999969 -7.999875,0 0,-9.999844 7.999875,0 0,-5.999906 -7.999875,0 0,1.999969 -7.999875,0 z m 7.999875,27.999563 7.999875,0 0,7.999875 -7.999875,0 z"/></svg>