<svg xmlns="http://www.w3.org/2000/svg" xmlns:svg="http://www.w3.org/2000/svg" id="svg2" width="100%" height="100%" version="1.1" viewBox="0 0 48 48"><metadata id="metadata12"/><path style="fill:#002b36;stroke:none;stroke-width:1px;stroke-linecap:butt;stroke-linejoin:miter;stroke-opacity:1;fill-opacity:1" id="path2991" d="M 8,8 8,40 40,40 40,12 36,8 z"/><path style="fill:#93a1a1;stroke:none;stroke-width:1px;stroke-linecap:butt;stroke-linejoin:miter;stroke-opacity:1" id="path3761" d="m 19,8 0,8 15,0 0,-8 z"/><path style="fill:#eee8d5;stroke:none;stroke-width:1px;stroke-linecap:butt;stroke-linejoin:miter;stroke-opacity:1" id="path3763" d="m 12,19 0,19 24,0 0,-19 z"/><path style="fill:#002b36;stroke:none;stroke-width:1px;stroke-linecap:butt;stroke-linejoin:miter;stroke-opacity:1" id="path3765" d="m 13,25 0,1 22,0 0,-1 z"/><path style="fill:#002b36;stroke:none" id="path3765-4" d="m 13,32.11865 0,1 22,0 0,-1 z"/><path style="fill:#002b36;stroke:none;stroke-width:1px;stroke-linecap:butt;stroke-linejoin:miter;stroke-opacity:1" id="path3785" d="m 32,10 -3,0 0,4 3,0 z"/><path style="fill:#fdf6e3;fill-opacity:.27710847;stroke:none" id="path3787" d="m 38,40 -2,0 0,-32 0,0 2,2 z"/></svg>