<svg xmlns="http://www.w3.org/2000/svg" xmlns:svg="http://www.w3.org/2000/svg" id="svg2" width="100%" height="100%" version="1.1" viewBox="0 0 48 48"><metadata id="metadata62"/><defs id="defs4"><linearGradient id="linearGradient2854" x2="0" y1="42" y2="9" gradientUnits="userSpaceOnUse"><stop style="stop-color:#aa1e1e" id="stop7" offset="0"/><stop style="stop-color:#e35d5d" id="stop9" offset="1"/></linearGradient><radialGradient id="radialGradient2857" cx="10.388" cy="11.314" r="17.094" gradientTransform="matrix(2.3433 .18294 -.12394 1.5875 -12.552 -10.696)" gradientUnits="userSpaceOnUse"><stop style="stop-color:#fff" id="stop12" offset="0"/><stop style="stop-color:#fff;stop-opacity:0" id="stop14" offset="1"/></radialGradient><radialGradient id="radialGradient2860" cx="15.047" cy="18.977" r="18.094" gradientTransform="matrix(2.9507 .0686 -.02067 .88929 -29.188 1.2014)" gradientUnits="userSpaceOnUse"><stop style="stop-color:#505050" id="stop17" offset="0"/><stop style="stop-color:#1e1e1e" id="stop19" offset="1"/></radialGradient><radialGradient id="radialGradient2863" cx="24.218" cy="45.26" r="21.39" gradientTransform="matrix(1.0285 0 0 .16363 -.90909 36.094)" gradientUnits="userSpaceOnUse"><stop id="stop22" offset="0"/><stop style="stop-opacity:0" id="stop24" offset="1"/></radialGradient></defs><path style="fill:#073642;stroke:none" id="path3041" d="m 7.0002094,14 -1,0 0,-8.9999999 c -0.0339,-2.0000001 2,-2 2,-2 l 30.0000006,0 4,5 0,6.9999999 -1,0 0,3 1,0 0,25 c -0.0339,2 -2,2 -2,2 L 8.0002094,45 c 0,0 -2.033898,0 -2,-2 l 0,-18 1,0 z"/><rect style="fill:#cd322f;fill-opacity:1;stroke:none" id="rect3811" width="26" height="33" x="10.966" y="9"/><rect style="fill:#002b36;fill-opacity:1;stroke:none" id="rect3813" width="12" height="12" x="17.966" y="9.102"/><path style="fill:#fdf6e3;fill-opacity:1;stroke:none" id="path3815" d="m 26.939142,31.768555 -4,0 0.02696,2.045005 2,0 c 0,0 2,0 2,2 l 0,2 c 0,0 0,2 -2,2 l -4.026963,-0.04501 0,-2 4,0 0,-2 -2,0 c 0,5e-6 -1.973037,0.04501 -1.973037,-1.95499 l 0,-2 c 0,-2 2,-2 2,-2 l 3.973037,-0.045 z"/><path style="fill:#fdf6e3;fill-opacity:1;stroke:none" id="path3817" d="m 29.00206,32.79546 2,0 -0.02696,5.045005 2,0 0,-6 -4,0 0,-2 3.991005,-0.0269 c 2,0 2,2 2,2 l 0,6 c 0,2 -2,2 -2,2 l -3.991005,0.0269 z"/><path style="fill:#fdf6e3;fill-opacity:.12449799;stroke:none" id="rect3819" d="m 36,3 0,42 4,0 L 40,5.5 38,3 z"/><rect style="fill:#fdf6e3;fill-opacity:.19678715;stroke:none" id="rect3840" width="10" height="3" x="19" y="17"/></svg>