<svg xmlns="http://www.w3.org/2000/svg" xmlns:svg="http://www.w3.org/2000/svg" id="svg2" width="16" height="16" version="1.1" viewBox="0 0 16 16"><metadata id="metadata18"/><path style="fill:#7c9c35;fill-opacity:1" id="path4-2" d="M 2.667969,-4.457e-4 C 2.324219,-4.457e-4 2,0.3378123 2,0.696447 L 2,15.303108 C 2,15.641365 2.34375,16 2.667969,16 l 10.664062,0 C 13.65625,16 14,15.641365 14,15.303108 L 14,3.9995541 10,-4.457e-4 z"/><path style="fill:#000;fill-opacity:.19599998" id="path6" d="m 10.583223,3.3315851 0.0154,0.01953 0.04005,-0.01953 z m 0.02978,0.667969 3.387,3.664062 0,-3.664062 z"/><path style="fill:#fff;fill-opacity:.39200003" id="path8" d="m 10,-4.457e-4 3.996396,3.9999998 -3.383784,0 C 10.313513,3.9995541 10,3.6824371 10,3.3833381 z"/><path style="fill:#fff" id="path12" d="M 8,11.246461 5.4216211,8.6680821 8,6.0848919 8.8610634,6.9459553 7.1389366,8.6680821 8,9.5243342 10.578379,6.9459553 8.3319179,4.6994943 c -0.1827949,-0.1827949 -0.4810409,-0.1827949 -0.6638358,0 l -3.6366687,3.63667 C 3.8486172,8.5189592 3.8486172,8.8172039 4.0314134,9 l 3.6366687,3.631859 c 0.1827949,0.187605 0.4810409,0.187605 0.6638358,0 L 11.968587,9 c 0.182796,-0.1827961 0.182796,-0.4810408 0,-0.6638357 L 11.439442,7.8070187 z"/></svg>