<svg xmlns="http://www.w3.org/2000/svg" xmlns:svg="http://www.w3.org/2000/svg" id="svg2" width="16" height="16" version="1.1" viewBox="0 0 16 16"><metadata id="metadata30"/><path style="fill:#3468ce;fill-opacity:1" id="path4-9" d="M 2.667969,-4.4634e-4 C 2.324219,-4.4634e-4 2,0.33781166 2,0.6964464 L 2,15.303108 C 2,15.641365 2.34375,16 2.667969,16 l 10.664062,0 C 13.65625,16 14,15.641365 14,15.303108 L 14,3.9995535 10,-4.4634e-4 z"/><path style="fill:#000;fill-opacity:.19599998" id="path6-9" d="m 10.583223,3.3315845 0.0154,0.01953 0.04005,-0.01953 z m 0.02978,0.667969 3.387,3.664062 0,-3.664062 z"/><path style="fill:#fff;fill-opacity:.39200003" id="path8-0" d="m 10,-4.4634e-4 3.996396,3.99999984 -3.383784,0 C 10.313513,3.9995535 10,3.6824365 10,3.3833375 z"/><path style="fill:#f9f9f9;fill-opacity:1" id="path16-7" d="m 8,8 0,1 4,0 0,-1 z"/><path style="fill:#f9f9f9;fill-opacity:1" id="path22-4" d="m 4,10 0,1 8,0 0,-1 z"/><path style="fill:#f9f9f9;fill-opacity:1" id="path28" d="m 4,12 0,1 8,0 0,-1 z"/><path style="fill:#f9f9f9;fill-opacity:1" id="path16-4" d="m 8,6 0,1 4,0 0,-1 z"/><rect style="fill:#f9f9f9;fill-opacity:1;fill-rule:evenodd;stroke:none" id="rect3030" width="3" height="3" x="4" y="6"/></svg>