<svg xmlns="http://www.w3.org/2000/svg" xmlns:svg="http://www.w3.org/2000/svg" id="svg2989" width="16" height="16" version="1.1" viewBox="0 0 16 16"><metadata id="metadata3017"/><path style="fill:#dcdcdc" id="path2991" d="M 2.667969,0 C 2.324219,0 2,-0.0097655 2,0.3339845 L 2,15.332031 C 2,15.65625 2.34375,16 2.667969,16 l 10.664062,0 C 13.65625,16 14,15.65625 14,15.332031 L 14,0.667969 C 14,0.324219 13.675781,0 13.332031,0 z"/><path style="fill:#888" id="path16" d="m 4,7 0,1 8,0 0,-1 z"/><path style="fill:#888" id="path22" d="m 4,9 0,1 8,0 0,-1 z"/><path style="fill:#888" id="path28" d="m 4,11 0,1 8,0 0,-1 z"/><path style="fill:#888" id="path16-4" d="m 4.0000005,5 0,1 L 12,6 12,5 z"/></svg>