<svg xmlns="http://www.w3.org/2000/svg" xmlns:svg="http://www.w3.org/2000/svg" id="svg2" width="16" height="16" version="1.1" viewBox="0 0 16 16"><metadata id="metadata22"/><path style="fill:#dcdcdc;fill-opacity:1" id="path4" d="M 2.667969,-4.46e-4 C 2.324219,-4.46e-4 2,0.337812 2,0.6964467 L 2,15.303108 C 2,15.641365 2.34375,16 2.667969,16 l 10.664061,0 c 0.324219,0 0.667969,-0.358635 0.667969,-0.696892 l 0,-11.3035542 L 10,-4.46e-4 z"/><path style="fill:#000;fill-opacity:.19599998" id="path6" d="m 10.583223,3.3315848 0.0154,0.01953 0.04005,-0.01953 z m 0.02978,0.667969 3.386999,3.664062 0,-3.664062 z"/><path style="fill:#fff;fill-opacity:.39200003" id="path8" d="m 10.000001,-4.46e-4 3.996395,3.9999998 -3.383784,0 c -0.299098,0 -0.612611,-0.317117 -0.612611,-0.616216 z"/><g style="fill:#888" id="g10"><path id="path12" d="M 6 7 L 4 9 C 4 9.332031 4 9.332031 4 9.667969 L 6 11.667969 L 6 10.332031 L 5 9.332031 L 6 8.332031 Z"/><path id="path14" d="M 10 7 L 12 9 C 12 9.332031 12 9.332031 12 9.667969 L 10 11.667969 L 10 10.332031 L 11 9.332031 L 10 8.332031 Z"/><path id="path16" d="M 8.667969 7 L 9.332031 7 L 8 11.667969 L 7.332031 11.667969 Z"/></g></svg>