<svg xmlns="http://www.w3.org/2000/svg" xmlns:svg="http://www.w3.org/2000/svg" id="svg2" width="16" height="16" version="1.1" viewBox="0 0 16 16"><metadata id="metadata22"/><path style="fill:#dcdcdc;fill-opacity:1" id="path4" d="M 2.667969,-4.463e-4 C 2.324219,-4.463e-4 2,0.3378117 2,0.6964467 L 2,15.303108 C 2,15.641365 2.34375,16 2.667969,16 l 10.664062,0 C 13.65625,16 14,15.641365 14,15.303108 L 14,3.9995538 10,-4.463e-4 z"/><path style="fill:#000;fill-opacity:.19599998" id="path6" d="m 10.583223,3.3315848 0.0154,0.01953 0.04005,-0.01953 z m 0.02978,0.667969 3.387,3.664062 0,-3.664062 z"/><path style="fill:#fff;fill-opacity:.39200003" id="path8" d="m 10,-4.463e-4 3.996396,4.0000001 -3.383784,0 C 10.313513,3.9995538 10,3.6824368 10,3.3833378 z"/><g style="fill:#888" id="g10"><path id="path12" d="m 5,6 0,2 -1,0 0,1 1,0 0,1 -1,0 0,1 1,0 0,2 1,0 0,-2 1,0 0,2 1,0 0,-2 1,0 L 9,10 8,10 8,9 9,9 9,8 8,8 8,6 7,6 7,8 6,8 6,6 z m 1,3 1,0 0,1 -1,0 z"/><path id="path14" d="m 11,12 0,1 1,0 0,-1 z"/><path id="path16" d="m 11,11 1,0 0,-5 -1,0 z"/></g></svg>