<svg xmlns="http://www.w3.org/2000/svg" xmlns:svg="http://www.w3.org/2000/svg" id="svg2" width="16" height="16" version="1.1" viewBox="0 0 16 16"><metadata id="metadata34"/><path style="fill:#7099c3;fill-opacity:1" id="path4-2" d="M 2.667969,-4.46e-4 C 2.324219,-4.46e-4 2,0.337812 2,0.6964467 L 2,15.303108 C 2,15.641365 2.34375,16 2.667969,16 l 10.664062,0 C 13.65625,16 14,15.641365 14,15.303108 L 14,3.9995538 9.9999999,-4.46e-4 z"/><g style="fill:#fff" id="g10" transform="matrix(1.3331238,0,0,1.3395672,-2.665153,-3.0709949)"><path id="path12" d="m 5.546875,7.636719 0,0.546875 4.90625,0 0,-0.546875 z"/><path id="path14" d="m 5.273438,8.726562 0,0.546876 5.453124,0 0,-0.546876 z"/><path id="path16" d="m 5.546875,9.816406 0,0.546875 4.90625,0 0,-0.546875 z"/><path id="path18" d="m 7.726562,6.273438 0,5.453124 0.546876,0 0,-5.453124 z"/></g><path style="fill:#000;fill-opacity:.19599998" id="path6" d="m 10.583223,3.3315848 0.0154,0.01953 0.04005,-0.01953 z m 0.02978,0.667969 3.387,3.664062 0,-3.664062 z"/><g style="fill:none;stroke:#fff" id="g20" transform="matrix(1.3331238,0,0,1.3395672,-2.665153,-3.0709949)"><g style="stroke-width:2" id="g22"><path id="path24" d="m 20.447975,32.994922 c -2.005237,-6.001389 -2.005237,-11.988455 0,-17.989844" transform="matrix(0.27272,0,0,0.27272,1.45461,2.45464)"/><path id="path26" d="m 27.466306,32.994922 c 2.005237,-4.998771 2.005237,-11.988455 0,-17.989844" transform="matrix(0.27272,0,0,0.27272,1.45461,2.45464)"/></g><path style="stroke-width:1.82099998;stroke-linecap:round" id="path28" d="m 33.055052,27.317092 c 0,5.033344 -4.068402,9.101746 -9.101746,9.101746 -5.033344,0 -9.101747,-4.068402 -9.101747,-9.101746 0,-5.033344 4.068403,-9.101747 9.101747,-9.101747 5.033344,0 9.101746,4.068403 9.101746,9.101747 z" transform="matrix(0.29957,0,0,0.29957,0.82443,0.81676)"/></g><path style="fill:#fff;fill-opacity:.39200003" id="path8" d="m 9.9999999,-4.46e-4 3.9963961,3.9999998 -3.383784,0 c -0.299099,0 -0.6126121,-0.317117 -0.6126121,-0.616216 z"/></svg>