<svg xmlns="http://www.w3.org/2000/svg" xmlns:svg="http://www.w3.org/2000/svg" id="svg2" width="16" height="16" version="1.1" viewBox="0 0 16 16"><metadata id="metadata34"/><path style="fill:#dcdcdc;fill-opacity:1" id="path4" d="M 2.667969,-4.458e-4 C 2.324219,-4.458e-4 2,0.3378122 2,0.6964469 L 2,15.303108 C 2,15.641365 2.34375,16 2.667969,16 l 10.664062,0 C 13.65625,16 14,15.641365 14,15.303108 L 14,3.999554 10,-4.458e-4 z"/><path style="fill:#888" id="path16" d="m 4,8 0,1 8,0 0,-1 z"/><path style="fill:#888" id="path22" d="m 4,10 0,1 8,0 0,-1 z"/><path style="fill:#888" id="path28" d="m 4,12 0,1 8,0 0,-1 z"/><path style="fill:#000;fill-opacity:.19599998" id="path6" d="m 10.583223,3.331585 0.0154,0.01953 0.04005,-0.01953 z m 0.02978,0.667969 3.387,3.664062 0,-3.664062 z"/><path style="fill:#fff;fill-opacity:.39200003" id="path8" d="m 10,-4.458e-4 3.996396,3.9999998 -3.383784,0 C 10.313513,3.999554 10,3.682437 10,3.383338 z"/><path style="fill:#888" id="path16-4" d="m 4.0000005,6 0,1 L 12,7 12,6 z"/></svg>