<svg xmlns="http://www.w3.org/2000/svg" xmlns:svg="http://www.w3.org/2000/svg" id="svg2" width="32" height="32" version="1.1" viewBox="0 0 9.031 9.031"><metadata id="metadata17"/><path id="path4" d="m 1.6934771,0.28222062 0,0.67733364 -0.84687768,0 c -0.16933346,0 -0.28222236,0.14111204 -0.2821155,0.28222234 l -3.96e-5,7.507126 c -6.726e-5,0.1411001 0.14104385,0.2822113 0.2821551,0.2822081 l 7.33778138,0 c 0.1411121,3.2e-6 0.2822223,-0.141108 0.2820905,-0.2821547 L 8.4666675,1.2417766 C 8.4666031,1.1006655 8.3254919,0.95955426 8.1843808,0.95955426 l -0.8464973,0 0,-0.67733364 C 7.3377137,-1.6790706e-6 7.3377137,-1.6790706e-6 7.0554912,-1.6790706e-6 l -0.733778,0 c -0.2822223,0 -0.2822223,0 -0.2822223,0.2822222990706 l 0,0.5644446 -3.0480015,0 0,-0.5644446 c 0,-0.2822222990706 0,-0.2822222990706 -0.2822225,-0.2822222990706 l -0.7337781,0 c -0.2822224,0 -0.2820117,0 -0.2820117,0.2822222990706 z m 0.3757096,0.093698 0.5463824,0 0,1.13106048 c 0,0.4685759 -0.5463824,0.4685759 -0.5463824,0 z m 4.3462243,0 0.5463824,0 0,1.13105988 c 0,0.4685765 -0.5463824,0.4685765 -0.5463824,0 z m -5.2866565,2.44630308 6.7733396,0 0,5.6445786 -6.7733396,-1.072e-4 z" style="color:#000;fill:#cacaca"/><g style="font-style:normal;font-variant:normal;font-weight:400;font-stretch:normal;font-size:3.21420383px;line-height:125%;font-family:Ubuntu;-inkscape-font-specification:Ubuntu;letter-spacing:0;word-spacing:0;fill:#3798d6;fill-opacity:1;stroke:none;stroke-width:1px;stroke-linecap:butt;stroke-linejoin:miter;stroke-opacity:1" id="text4155" transform="scale(1.1417405,0.87585576)"><path style="font-style:normal;font-variant:normal;font-weight:700;font-stretch:normal;font-size:4.93889141px;font-family:'droid sans';-inkscape-font-specification:'droid sans Bold';text-align:center;letter-spacing:-.05644448px;word-spacing:.11288894px;text-anchor:middle;fill:#3798d6;fill-opacity:1" id="path4142" d="m 3.247856,8.5930634 -0.7451745,0 0,-2.0401866 q 0,-0.062701 0,-0.1495173 0.00241,-0.089228 0.00482,-0.1832791 0.00482,-0.096463 0.00723,-0.1929255 0.00482,-0.096463 0.00723,-0.1760444 -0.012058,0.014469 -0.040997,0.043408 -0.028939,0.028939 -0.065112,0.065112 -0.036174,0.033762 -0.074759,0.069935 -0.038585,0.036174 -0.074759,0.065112 L 1.8612044,6.4202405 1.4994692,5.9716889 2.6353177,5.0673508 l 0.6125383,0 0,3.5257126 z"/><path style="font-style:normal;font-variant:normal;font-weight:700;font-stretch:normal;font-size:4.93889141px;font-family:'droid sans';-inkscape-font-specification:'droid sans Bold';text-align:center;letter-spacing:-.05644448px;word-spacing:.11288894px;text-anchor:middle;fill:#3798d6;fill-opacity:1" id="path4144" d="m 6.5097292,6.8302071 q 0,0.4268475 -0.067524,0.7620555 -0.065112,0.335208 -0.212218,0.5691301 -0.1446941,0.2339221 -0.3762046,0.356912 -0.229099,0.12299 -0.5546607,0.12299 -0.3062691,0 -0.5329565,-0.12299 Q 4.5394781,8.3953148 4.3899608,8.1613927 4.2404436,7.9274706 4.165685,7.5922626 4.093338,7.2570546 4.093338,6.8302071 q 0,-0.4268476 0.065112,-0.7644671 0.067524,-0.3376195 0.212218,-0.5715416 0.1446941,-0.2339221 0.373793,-0.3569121 0.229099,-0.1254015 0.5546607,-0.1254015 0.3038576,0 0.530545,0.1229899 0.2266874,0.12299 0.3786162,0.3569121 0.1519288,0.2339221 0.2266874,0.5715416 0.074759,0.3376196 0.074759,0.7668787 z m -1.6736283,0 q 0,0.602892 0.1036975,0.9067496 0.1036974,0.3038576 0.3593236,0.3038576 0.2508031,0 0.3593236,-0.301446 0.1109322,-0.3014461 0.1109322,-0.9091612 0,-0.6053036 -0.1109322,-0.9091612 Q 5.5499251,5.6147768 5.299122,5.6147768 q -0.1278131,0 -0.2170411,0.07717 -0.086817,0.07717 -0.1422825,0.2290989 -0.055466,0.1519288 -0.079582,0.3810278 -0.024116,0.2266874 -0.024116,0.5281334 z"/></g></svg>