<svg xmlns="http://www.w3.org/2000/svg" xmlns:svg="http://www.w3.org/2000/svg" id="svg2" width="32" height="32" version="1.1" viewBox="0 0 9.031 9.031"><metadata id="metadata17"/><path id="path4" d="m 1.6934771,0.28222062 0,0.67733364 -0.84687768,0 c -0.16933346,0 -0.28222236,0.14111204 -0.2821155,0.28222234 l -3.96e-5,7.507126 c -6.726e-5,0.1411001 0.14104385,0.2822113 0.2821551,0.2822081 l 7.33778138,0 c 0.1411121,3.2e-6 0.2822223,-0.141108 0.2820905,-0.2821547 L 8.4666675,1.2417766 C 8.4666031,1.1006655 8.3254919,0.95955426 8.1843808,0.95955426 l -0.8464973,0 0,-0.67733364 C 7.3377137,-1.6790706e-6 7.3377137,-1.6790706e-6 7.0554912,-1.6790706e-6 l -0.733778,0 c -0.2822223,0 -0.2822223,0 -0.2822223,0.2822222990706 l 0,0.5644446 -3.0480015,0 0,-0.5644446 c 0,-0.2822222990706 0,-0.2822222990706 -0.2822225,-0.2822222990706 l -0.7337781,0 c -0.2822224,0 -0.2820117,0 -0.2820117,0.2822222990706 z m 0.3757096,0.093698 0.5463824,0 0,1.13106048 c 0,0.4685759 -0.5463824,0.4685759 -0.5463824,0 z m 4.3462243,0 0.5463824,0 0,1.13105988 c 0,0.4685765 -0.5463824,0.4685765 -0.5463824,0 z m -5.2866565,2.44630308 6.7733396,0 0,5.6445786 -6.7733396,-1.072e-4 z" style="color:#000;fill:#cacaca"/><g style="font-style:normal;font-variant:normal;font-weight:400;font-stretch:normal;font-size:3.21420383px;line-height:125%;font-family:Ubuntu;-inkscape-font-specification:Ubuntu;letter-spacing:0;word-spacing:0;fill:#3798d6;fill-opacity:1;stroke:none;stroke-width:1px;stroke-linecap:butt;stroke-linejoin:miter;stroke-opacity:1" id="text4155" transform="scale(1.1417405,0.87585576)"><path style="font-style:normal;font-variant:normal;font-weight:700;font-stretch:normal;font-size:4.93889141px;font-family:'droid sans';-inkscape-font-specification:'droid sans Bold';text-align:center;letter-spacing:-.05644448px;word-spacing:.11288894px;text-anchor:middle;fill:#3798d6;fill-opacity:1" id="path4142" d="m 5.2260584,7.8623582 -0.424436,0 0,0.7307052 -0.725882,0 0,-0.7307052 -1.4565871,0 0,-0.5184871 1.4975838,-2.2765203 0.6848853,0 0,2.2162311 0.424436,0 0,0.5787763 z m -1.150318,-0.5787763 0,-0.5980689 q 0,-0.03135 0,-0.089228 0.00241,-0.060289 0.00482,-0.1350478 0.00241,-0.074759 0.00482,-0.1543404 0.00482,-0.079582 0.00723,-0.1519288 0.00482,-0.072347 0.00723,-0.1254015 0.00482,-0.055466 0.00723,-0.079582 l -0.021704,0 q -0.043408,0.1012859 -0.098874,0.2146296 -0.053055,0.1133437 -0.12299,0.2266874 l -0.5884226,0.8922802 0.8006406,0 z"/></g></svg>