<svg xmlns="http://www.w3.org/2000/svg" xmlns:svg="http://www.w3.org/2000/svg" id="svg2" width="32" height="32" version="1.1" viewBox="0 0 9.031 9.031"><metadata id="metadata17"/><path id="path4" d="m 1.6934771,0.28222062 0,0.67733364 -0.84687768,0 c -0.16933346,0 -0.28222236,0.14111204 -0.2821155,0.28222234 l -3.96e-5,7.507126 c -6.726e-5,0.1411001 0.14104385,0.2822113 0.2821551,0.2822081 l 7.33778138,0 c 0.1411121,3.2e-6 0.2822223,-0.141108 0.2820905,-0.2821547 L 8.4666675,1.2417766 C 8.4666031,1.1006655 8.3254919,0.95955426 8.1843808,0.95955426 l -0.8464973,0 0,-0.67733364 C 7.3377137,-1.6790706e-6 7.3377137,-1.6790706e-6 7.0554912,-1.6790706e-6 l -0.733778,0 c -0.2822223,0 -0.2822223,0 -0.2822223,0.2822222990706 l 0,0.5644446 -3.0480015,0 0,-0.5644446 c 0,-0.2822222990706 0,-0.2822222990706 -0.2822225,-0.2822222990706 l -0.7337781,0 c -0.2822224,0 -0.2820117,0 -0.2820117,0.2822222990706 z m 0.3757096,0.093698 0.5463824,0 0,1.13106048 c 0,0.4685759 -0.5463824,0.4685759 -0.5463824,0 z m 4.3462243,0 0.5463824,0 0,1.13105988 c 0,0.4685765 -0.5463824,0.4685765 -0.5463824,0 z m -5.2866565,2.44630308 6.7733396,0 0,5.6445786 -6.7733396,-1.072e-4 z" style="color:#000;fill:#cacaca"/><g style="font-style:normal;font-variant:normal;font-weight:400;font-stretch:normal;font-size:3.21420383px;line-height:125%;font-family:Ubuntu;-inkscape-font-specification:Ubuntu;letter-spacing:0;word-spacing:0;fill:#3798d6;fill-opacity:1;stroke:none;stroke-width:1px;stroke-linecap:butt;stroke-linejoin:miter;stroke-opacity:1" id="text4155" transform="scale(1.1417405,0.87585576)"><path style="font-style:normal;font-variant:normal;font-weight:700;font-stretch:normal;font-size:4.93889141px;font-family:'droid sans';-inkscape-font-specification:'droid sans Bold';text-align:center;letter-spacing:-.05644448px;word-spacing:.11288894px;text-anchor:middle;fill:#3798d6;fill-opacity:1" id="path4142" d="m 5.1730039,8.5930634 -2.3657483,0 0,-0.5184872 L 3.636835,7.1798845 Q 3.793587,7.0110747 3.9214001,6.8687922 4.0492132,6.7265097 4.1408528,6.5914619 4.2324924,6.456414 4.2831353,6.3165431 q 0.050643,-0.139871 0.050643,-0.301446 0,-0.1784561 -0.1085206,-0.2773303 -0.1061089,-0.098874 -0.2869766,-0.098874 -0.1905138,0 -0.3665583,0.094051 -0.1760445,0.094051 -0.3689699,0.2676841 L 2.7976094,5.5207256 Q 2.9061299,5.4218513 3.0242967,5.3326233 3.1424636,5.2409837 3.2847461,5.1710483 3.4270286,5.1011128 3.59825,5.0601161 q 0.1712213,-0.043408 0.3834393,-0.043408 0.2532146,0 0.4533748,0.069935 0.2025717,0.069936 0.3448542,0.2001601 0.1422825,0.1278131 0.2170411,0.3110923 0.07717,0.1832792 0.07717,0.4123781 0,0.2073949 -0.072347,0.3979088 Q 4.9294355,6.596285 4.804034,6.7795642 4.6786324,6.9604318 4.5122342,7.1412994 4.3482476,7.3197554 4.1601453,7.5054462 l -0.424436,0.4268475 0,0.033762 1.4372946,0 0,0.6270077 z"/></g></svg>