<svg xmlns="http://www.w3.org/2000/svg" xmlns:svg="http://www.w3.org/2000/svg" id="svg2" width="32" height="32" version="1.1" viewBox="0 0 9.031 9.031"><metadata id="metadata17"/><path id="path4" d="m 1.6934771,0.28222062 0,0.67733364 -0.84687768,0 c -0.16933346,0 -0.28222236,0.14111204 -0.2821155,0.28222234 l -3.96e-5,7.507126 c -6.726e-5,0.1411001 0.14104385,0.2822113 0.2821551,0.2822081 l 7.33778138,0 c 0.1411121,3.2e-6 0.2822223,-0.141108 0.2820905,-0.2821547 L 8.4666675,1.2417766 C 8.4666031,1.1006655 8.3254919,0.95955426 8.1843808,0.95955426 l -0.8464973,0 0,-0.67733364 C 7.3377137,-1.6790706e-6 7.3377137,-1.6790706e-6 7.0554912,-1.6790706e-6 l -0.733778,0 c -0.2822223,0 -0.2822223,0 -0.2822223,0.2822222990706 l 0,0.5644446 -3.0480015,0 0,-0.5644446 c 0,-0.2822222990706 0,-0.2822222990706 -0.2822225,-0.2822222990706 l -0.7337781,0 c -0.2822224,0 -0.2820117,0 -0.2820117,0.2822222990706 z m 0.3757096,0.093698 0.5463824,0 0,1.13106048 c 0,0.4685759 -0.5463824,0.4685759 -0.5463824,0 z m 4.3462243,0 0.5463824,0 0,1.13105988 c 0,0.4685765 -0.5463824,0.4685765 -0.5463824,0 z m -5.2866565,2.44630308 6.7733396,0 0,5.6445786 -6.7733396,-1.072e-4 z" style="color:#000;fill:#cacaca"/><g style="font-style:normal;font-variant:normal;font-weight:400;font-stretch:normal;font-size:3.21420383px;line-height:125%;font-family:Ubuntu;-inkscape-font-specification:Ubuntu;letter-spacing:0;word-spacing:0;fill:#3798d6;fill-opacity:1;stroke:none;stroke-width:1px;stroke-linecap:butt;stroke-linejoin:miter;stroke-opacity:1" id="text4155" transform="scale(1.1417405,0.87585576)"><path style="font-style:normal;font-variant:normal;font-weight:700;font-stretch:normal;font-size:4.93889141px;font-family:'droid sans';-inkscape-font-specification:'droid sans Bold';text-align:center;letter-spacing:-.05644448px;word-spacing:.11288894px;text-anchor:middle;fill:#3798d6;fill-opacity:1" id="path4142" d="m 3.1087016,8.5930634 1.2540154,-2.8938817 -1.6205737,0 0,-0.6270077 2.4308606,0 0,0.4678442 -1.2853658,3.0530452 -0.7789365,0 z"/></g></svg>