<svg xmlns="http://www.w3.org/2000/svg" xmlns:svg="http://www.w3.org/2000/svg" id="svg2" width="32" height="32" version="1.1"><metadata id="metadata7"/><g id="layer1" transform="translate(0,-1020.3622)"><g id="g3012" transform="translate(2,-14)"><path id="path3014" d="m 0,1037.3622 0,13 16,0 0,-7 -1,-5 -5,0 -1,-2 -8,0 c -0.5,0 -1,0.5 -1,1 z" style="fill:#ef6c00;fill-opacity:1;stroke:none"/><path style="opacity:.02999998;fill:#000;fill-opacity:1;stroke:none" id="path3016" d="M 1,0 C 0.5,0 0,0.5 0,1 L 0,2 C 0,1.5 0.5,1 1,1 L 8,1 9,3 15,3 16,8 16,7 15,2 10,2 9,0 z" transform="translate(0,1036.3622)"/><rect style="fill:#fffdf0;fill-opacity:1;stroke:none" id="rect3018" width="10" height="3" x="2" y="1039.362"/><path style="fill:#ffa726;fill-opacity:1;stroke:none" id="path3020" d="m 16,1039.3622 0,13 -16,0 0,-12 7,0 1,-2 7,0 c 0.5,0 1,0.5 1,1 z"/><path id="path3022" d="m 0,1051.3622 0,1 16,0 0,-1 z" style="opacity:.15;fill:#000;fill-opacity:1;stroke:none"/><path style="fill:none;stroke:none" id="path3024" d="m 11,1037.8622 -2.5,1.5 1.5,0 z"/><path style="opacity:.02999998;fill:#000;fill-opacity:1;stroke:none" id="path3026" d="M 8,2 7,4 0,4 0,5 8,5 9,3 15,3 c 0.5,0 1,0.5 1,1 L 16,3 C 16,2.5 15.5,2 15,2 z" transform="translate(0,1036.3622)"/></g><g id="layer1-6" transform="translate(14,-2)"><path style="fill:#ef6c00;fill-opacity:1;stroke:none" id="path3029" d="m 0,1037.3622 0,13 16,0 0,-7 -1,-5 -5,0 -1,-2 -8,0 c -0.5,0 -1,0.5 -1,1 z"/><path id="path3789" d="M 1,0 C 0.5,0 0,0.5 0,1 L 0,2 C 0,1.5 0.5,1 1,1 L 8,1 9,3 15,3 16,8 16,7 15,2 10,2 9,0 z" transform="translate(0,1036.3622)" style="opacity:.02999998;fill:#000;fill-opacity:1;stroke:none"/><rect id="rect3799" width="10" height="3" x="2" y="1039.362" style="fill:#fffdf0;fill-opacity:1;stroke:none"/><path id="rect2987" d="m 16,1039.3622 0,13 -16,0 0,-12 7,0 1,-2 7,0 c 0.5,0 1,0.5 1,1 z" style="fill:#ffa726;fill-opacity:1;stroke:none"/><path style="opacity:.15;fill:#000;fill-opacity:1;stroke:none" id="path3794" d="m 0,1051.3622 0,1 16,0 0,-1 z"/><path id="path3801" d="m 11,1037.8622 -2.5,1.5 1.5,0 z" style="fill:none;stroke:none"/><path id="path3784" d="M 8,2 7,4 0,4 0,5 8,5 9,3 15,3 c 0.5,0 1,0.5 1,1 L 16,3 C 16,2.5 15.5,2 15,2 z" transform="translate(0,1036.3622)" style="opacity:.02999998;fill:#000;fill-opacity:1;stroke:none"/></g></g></svg>