<svg xmlns="http://www.w3.org/2000/svg" xmlns:svg="http://www.w3.org/2000/svg" xmlns:xlink="http://www.w3.org/1999/xlink" id="svg2" width="32" height="32" version="1.1"><defs id="defs4"><radialGradient id="radialGradient3981" cx="32.5" cy="56.5" r="33.5" fx="32.5" fy="56.5" gradientTransform="matrix(1,0,0,0.10447761,0,50.597015)" gradientUnits="userSpaceOnUse" xlink:href="#linearGradient3958"/><linearGradient id="linearGradient3958"><stop id="stop3960" offset="0" style="stop-color:#000;stop-opacity:1"/><stop id="stop3962" offset="1" style="stop-color:#000;stop-opacity:0"/></linearGradient><radialGradient id="radialGradient3964" cx="32.5" cy="56.5" r="33.5" fx="32.5" fy="56.5" gradientTransform="matrix(1,0,0,0.10447761,0,50.597015)" gradientUnits="userSpaceOnUse" xlink:href="#linearGradient3958"/><radialGradient id="radialGradient3031" cx="32.5" cy="56.5" r="33.5" fx="32.5" fy="56.5" gradientTransform="matrix(1,0,0,0.10447761,0,50.597015)" gradientUnits="userSpaceOnUse" xlink:href="#linearGradient3958"/><radialGradient id="radialGradient3964-6" cx="32.5" cy="56.5" r="33.5" fx="32.5" fy="56.5" gradientTransform="matrix(1,0,0,0.10447761,0,50.597015)" gradientUnits="userSpaceOnUse" xlink:href="#linearGradient3958-5"/><linearGradient id="linearGradient3958-5"><stop id="stop3960-2" offset="0" style="stop-color:#000;stop-opacity:1"/><stop id="stop3962-0" offset="1" style="stop-color:#000;stop-opacity:0"/></linearGradient></defs><metadata id="metadata7"/><g id="layer1" transform="translate(0,-1020.3622)"><path style="opacity:.3;fill:url(#radialGradient3031);fill-opacity:1;stroke:none" id="path3956" d="m 66,56.5 a 33.5,3.5 0 1 1 -67,0 33.5,3.5 0 1 1 67,0 z" transform="matrix(0.71641791,0,0,0.85714286,-7.2835821,999.9336)"/><g id="g3855" transform="matrix(0.5,0,0,0.5,39,520.6811)"><path style="fill:#ef6c00;fill-opacity:1;stroke:none" id="path3029-0" d="m -78,1008.421 0,42.8235 64,0 0,-21.4117 -3.047619,-18.353 L -41,1011.3622 l -3,-6 -30.952381,0 c -1.523809,0 -3.047619,1.5294 -3.047619,3.0588 z"/><rect id="rect3799-6" width="31.571" height="11.882" x="-73" y="1013.362" style="fill:#fffdf0;fill-opacity:1;stroke:none"/><path id="path3790-8" d="m -74.9375,1005.3622 c -1.523809,0 -3.0625,1.5331 -3.0625,3.0625 l 0,2 c 0,-1.5294 1.538691,-3.0625 3.0625,-3.0625 l 29.9375,0 3,6 24.9375,0.125 3.0625,18.3438 0,-2 -3.0625,-18.3438 -23.9375,-0.125 -3,-6 z" style="opacity:.02999998;fill:#000;fill-opacity:1;stroke:none"/><path id="rect2987-2" d="m -14,1014.5387 0,42.8235 -64,0 0,-40 30,0 3,-6 27.952381,0.1176 c 1.523809,0 3.047619,1.5295 3.047619,3.0589 z" style="fill:#ffa726;fill-opacity:1;stroke:none"/><path style="opacity:.15;fill:#000;fill-opacity:1;stroke:none" id="path3794-3" d="m -78,1055.3622 0,2 64,0 0,-2 z"/><path id="path3015-5" d="m -45,1011.3622 -3,6 -30,0 0,2 31,0 3,-6 26.9375,0.125 c 1.523809,0 3.0625,1.5331 3.0625,3.0625 l 0,-2 c 0,-1.5294 -1.538691,-3.0625 -3.0625,-3.0625 z" style="opacity:.02999998;fill:#000;fill-opacity:1;stroke:none"/><g style="opacity:1" id="g3956" transform="matrix(2,0,0,2,-17.15747,-1029.5912)"><g style="fill:#b17621;fill-opacity:1" id="g8" transform="translate(-22.421265,1025.4767)"><g style="fill:#b17621;fill-opacity:1;fill-rule:evenodd" id="g10" transform="translate(0,-1036.3622)"><path id="path14" d="m 1,1046.3622 4,-5 3.2817389,3.6779 2.2182611,-2.1779 4.5,6.5 -3,2 -9,0 z" style="fill:#b17621;fill-opacity:1"/></g></g><path style="fill:#b17621;fill-opacity:1" id="rect3007-9" d="m -19.421265,1026.4767 c -1.108,0 -2,0.892 -2,2 l 0,10 c 0,1.108 0.892,2 2,2 l 10,0 c 1.108,0 2,-0.892 2,-2 l 0,-10 c 0,-1.108 -0.892,-2 -2,-2 z m 0,2 10,0 0,10 -10,0 z"/></g></g></g></svg>