<svg xmlns="http://www.w3.org/2000/svg" xmlns:svg="http://www.w3.org/2000/svg" xmlns:xlink="http://www.w3.org/1999/xlink" id="svg2" width="32" height="32" version="1.1" viewBox="0 0 32 32"><metadata id="metadata20"/><defs id="defs18"><radialGradient id="radialGradient3898" cx="33" cy="59" r="27" fx="33" fy="59" gradientTransform="matrix(1,0,0,0.18518519,0,48.074074)" gradientUnits="userSpaceOnUse" xlink:href="#linearGradient3892"/><linearGradient id="linearGradient3855"><stop style="stop-color:#000;stop-opacity:1" id="stop3857" offset="0"/><stop style="stop-color:#000;stop-opacity:.29411766" id="stop3859" offset="1"/></linearGradient><linearGradient id="linearGradient3833"><stop id="stop3835" offset="0" style="stop-color:#fdfeff;stop-opacity:1"/><stop id="stop3837" offset="1" style="stop-color:#dfe4e4;stop-opacity:1"/></linearGradient><linearGradient id="linearGradient3823"><stop style="stop-color:#49b7ef;stop-opacity:1" id="stop3825" offset="0"/><stop style="stop-color:#1d8de2;stop-opacity:1" id="stop3827" offset="1"/></linearGradient><linearGradient id="linearGradient3956"><stop style="stop-color:#f8f4e1;stop-opacity:1" id="stop3958" offset="0"/><stop style="stop-color:#eae5c8;stop-opacity:1" id="stop3960" offset="1"/></linearGradient><linearGradient id="linearGradient3915"><stop style="stop-color:#f8f4e1;stop-opacity:1" id="stop3917" offset="0"/><stop style="stop-color:#ad9e57;stop-opacity:1" id="stop3919" offset="1"/></linearGradient><linearGradient id="linearGradient3861"><stop style="stop-color:#000;stop-opacity:1" id="stop3863" offset="0"/><stop style="stop-color:#000;stop-opacity:0" id="stop3865" offset="1"/></linearGradient><linearGradient id="linearGradient3844"><stop style="stop-color:#000;stop-opacity:.39215687" id="stop3846" offset="0"/><stop style="stop-color:#000;stop-opacity:0" id="stop3848" offset="1"/></linearGradient><linearGradient id="linearGradient3810"><stop style="stop-color:#f2c66f;stop-opacity:1" id="stop3812" offset="0"/><stop style="stop-color:#fbd68f;stop-opacity:1" id="stop3814" offset="1"/></linearGradient><linearGradient id="linearGradient3816" x1="24" x2="24" y1="1046.362" y2="1014.362" gradientUnits="userSpaceOnUse" xlink:href="#linearGradient3810"/><linearGradient id="linearGradient3856" x1="24" x2="24" y1="1046.362" y2="1014.362" gradientTransform="translate(0,-3)" gradientUnits="userSpaceOnUse" xlink:href="#linearGradient3810"/><linearGradient id="linearGradient3858" x1="24" x2="24" y1="1046.362" y2="1014.362" gradientTransform="translate(0,-1004.3622)" gradientUnits="userSpaceOnUse" xlink:href="#linearGradient3810"/><linearGradient id="linearGradient3867" x1="1.995" x2="46.005" y1="28.563" y2="28.563" gradientUnits="userSpaceOnUse" xlink:href="#linearGradient3861"/><linearGradient id="linearGradient3921" x1="35" x2="38" y1="8" y2="5" gradientUnits="userSpaceOnUse" xlink:href="#linearGradient3915"/><linearGradient id="linearGradient3933" x1="35" x2="38" y1="8" y2="5" gradientTransform="matrix(1.0436562,0,0,1.2222222,26.301501,1003.2511)" gradientUnits="userSpaceOnUse" xlink:href="#linearGradient3915"/><linearGradient id="linearGradient3954" x1="35" x2="44" y1="11" y2="5" gradientTransform="translate(22,1004.3622)" gradientUnits="userSpaceOnUse" xlink:href="#linearGradient3915"/><linearGradient id="linearGradient3829" x1="21" x2="20" y1="14" y2="24" gradientUnits="userSpaceOnUse" xlink:href="#linearGradient3823"/><linearGradient id="linearGradient3839" x1="21" x2="20" y1="14" y2="26" gradientUnits="userSpaceOnUse" xlink:href="#linearGradient3833"/><linearGradient id="linearGradient3862" x1="22" x2="20" y1="15" y2="30" gradientUnits="userSpaceOnUse" xlink:href="#linearGradient3855"/><linearGradient id="linearGradient3892"><stop id="stop3894" offset="0" style="stop-color:#000;stop-opacity:1"/><stop id="stop3896" offset="1" style="stop-color:#000;stop-opacity:0"/></linearGradient><radialGradient id="radialGradient3102" cx="33" cy="59" r="27" fx="33" fy="59" gradientTransform="matrix(1,0,0,0.18518519,0,48.074074)" gradientUnits="userSpaceOnUse" xlink:href="#linearGradient3892"/></defs><path style="opacity:.5;fill:url(#radialGradient3102);fill-opacity:1;stroke:none" id="path3114" d="M 60,59 A 27,5 0 1 1 6,59 27,5 0 1 1 60,59 z" transform="matrix(0.51851852,0,0,0.5,-1.1111111,1)"/><path id="path3801" d="m 16.764717,7.4864723 -3.823533,2.432435 2.29412,0 z" style="fill:none;stroke:none"/><rect id="rect3054" width="20" height="24" x="6" y="7" rx="1" ry="1" style="fill:#8f98a8;fill-opacity:1;stroke:none"/><path style="fill:#8f98a8;fill-opacity:1;stroke:none" id="path3861" d="m 12.000007,1.0000003 c -0.764706,0 -1.500001,0.810789 -1.500001,1.621601 l 0,4.378404 0.147059,1.486467 1.529413,0 0.82353,-1.621623 0,-2.621625 c 0,-0.810811 0.705883,-1.743222 1.47059,-1.743222 l 3.058826,0 c 0.764706,0 1.470589,0.932411 1.470589,1.743222 l 0,2.621625 0,1.621623 2.352943,0 0.147059,-1.486467 0,-4.500003 c 0,-0.810812 -0.735295,-1.500002 -1.500002,-1.500002 z"/><path id="path3824" d="M 3,10.000008 C 3,8.4000063 4.529413,6.0000043 5.294119,6.0000043 l 21.411783,0 c 0.764706,0 2.294119,2.400002 2.294119,4.0000037 z" style="fill:#b0b6c5;fill-opacity:1;stroke:none"/><rect id="rect3826-0" width="2" height="17" x="10" y="12" rx=".5" ry=".5" style="fill:#687385;fill-opacity:1;stroke:none"/><rect style="fill:#687385;fill-opacity:1;stroke:none" id="rect4016" width="2" height="17" x="15" y="12" rx=".5" ry=".5"/><rect id="rect4018" width="2" height="17" x="20" y="12" rx=".5" ry=".5" style="fill:#687385;fill-opacity:1;stroke:none"/><rect id="rect3863" width="20" height="4" x="6" y="10" style="opacity:.1;fill:#000;fill-opacity:1;stroke:none"/></svg>