<svg xmlns="http://www.w3.org/2000/svg" xmlns:svg="http://www.w3.org/2000/svg" id="svg2" width="24" height="24" version="1.1" viewBox="0 0 6.773 6.773"><metadata id="metadata17"/><path id="path4" d="m 1.4465828,0.47625021 0,0.46566684 -0.51176785,0 c -0.11641673,0 -0.19402784,0.0970149 -0.19395437,0.19402775 l -2.723e-5,5.1611483 c -4.624e-5,0.097006 0.0969676,0.1940202 0.1939816,0.194018 l 4.90361115,0 c 0.097015,2.2e-6 0.1940278,-0.097012 0.1939372,-0.1939813 l 1.349e-4,-5.161185 C 6.0324539,1.038931 5.9354402,0.94191705 5.8384261,0.94191705 l -0.5113145,0 0,-0.46566697 C 5.3269949,0.28222227 5.3269949,0.28222227 5.132967,0.28222227 l -0.5044724,0 c -0.1940278,0 -0.1940278,0 -0.1940278,0.19402794 l 0,0.37041734 -2.0955007,0 0,-0.37041734 c 0,-0.19402794 0,-0.19402794 -0.1940279,-0.19402794 l -0.5044724,0 c -0.1940278,0 -0.193883,0 -0.193883,0.19402794 z m 0.2583003,0.0644174 0.3756378,0 0,0.77760379 c 0,0.3221459 -0.3756378,0.3221459 -0.3756378,0 z m 2.9880288,0 0.3756378,0 0,0.77760339 c 0,0.3221463 -0.3756378,0.3221463 -0.3756378,0 z m -3.5641153,1.68183299 4.5155575,0 0,3.8806472 -4.5155575,-7.37e-5 z" style="color:#000;fill:#cacaca"/><g style="font-style:normal;font-variant:normal;font-weight:400;font-stretch:normal;font-size:3.03820014px;line-height:125%;font-family:Ubuntu;-inkscape-font-specification:Ubuntu;letter-spacing:0;word-spacing:0;fill:#3798d6;fill-opacity:1;stroke:none;stroke-width:1px;stroke-linecap:butt;stroke-linejoin:miter;stroke-opacity:1" id="text4155" transform="scale(1.1417405,0.87585576)"><path style="font-style:normal;font-variant:normal;font-weight:700;font-stretch:normal;font-size:3.39523315px;font-family:'droid sans';-inkscape-font-specification:'droid sans Bold';text-align:center;letter-spacing:.02328032px;word-spacing:.02328032px;text-anchor:middle;fill:#3798d6;fill-opacity:1" id="path4142" d="m 3.0309701,4.5738553 q 0.1558359,0 0.29012,0.048077 0.1342841,0.048077 0.2337538,0.1409154 0.09947,0.092838 0.1558359,0.232096 0.056366,0.1375998 0.056366,0.3166453 0,0.1972816 -0.06134,0.3547754 -0.06134,0.1558359 -0.1807033,0.2652525 -0.1193636,0.1077589 -0.2967513,0.1657829 -0.1757299,0.058024 -0.4045102,0.058024 -0.091181,0 -0.1807033,-0.00829 -0.089523,-0.00829 -0.1724142,-0.024868 -0.081234,-0.01492 -0.1558359,-0.039788 -0.072944,-0.024868 -0.1326263,-0.058024 l 0,-0.4426403 q 0.058024,0.033157 0.1342841,0.062997 0.07626,0.028183 0.1574937,0.049735 0.082892,0.019894 0.1657829,0.033157 0.082891,0.011605 0.1574937,0.011605 0.2221491,0 0.3381971,-0.091181 0.116048,-0.092838 0.116048,-0.2934356 0,-0.1790455 -0.1143902,-0.2718839 -0.1127323,-0.094496 -0.3498019,-0.094496 -0.043103,0 -0.092838,0.00497 -0.048077,0.00497 -0.096154,0.013263 -0.046419,0.00829 -0.089523,0.018236 -0.043103,0.00829 -0.074602,0.018236 l -0.2039129,-0.1094167 0.091181,-1.2350824 1.2798437,0 0,0.4343511 -0.8355456,0 -0.039788,0.4757969 q 0.05305,-0.011605 0.1226793,-0.02321 0.071287,-0.011605 0.1823612,-0.011605 z"/></g></svg>