<svg xmlns="http://www.w3.org/2000/svg" xmlns:svg="http://www.w3.org/2000/svg" id="svg2" width="24" height="24" version="1.1" viewBox="0 0 6.773 6.773"><metadata id="metadata17"/><path id="path4" d="m 1.4465828,0.47625021 0,0.46566684 -0.51176785,0 c -0.11641673,0 -0.19402784,0.0970149 -0.19395437,0.19402775 l -2.723e-5,5.1611483 c -4.624e-5,0.097006 0.0969676,0.1940202 0.1939816,0.194018 l 4.90361115,0 c 0.097015,2.2e-6 0.1940278,-0.097012 0.1939372,-0.1939813 l 1.349e-4,-5.161185 C 6.0324539,1.038931 5.9354402,0.94191705 5.8384261,0.94191705 l -0.5113145,0 0,-0.46566697 C 5.3269949,0.28222227 5.3269949,0.28222227 5.132967,0.28222227 l -0.5044724,0 c -0.1940278,0 -0.1940278,0 -0.1940278,0.19402794 l 0,0.37041734 -2.0955007,0 0,-0.37041734 c 0,-0.19402794 0,-0.19402794 -0.1940279,-0.19402794 l -0.5044724,0 c -0.1940278,0 -0.193883,0 -0.193883,0.19402794 z m 0.2583003,0.0644174 0.3756378,0 0,0.77760379 c 0,0.3221459 -0.3756378,0.3221459 -0.3756378,0 z m 2.9880288,0 0.3756378,0 0,0.77760339 c 0,0.3221463 -0.3756378,0.3221463 -0.3756378,0 z m -3.5641153,1.68183299 4.5155575,0 0,3.8806472 -4.5155575,-7.37e-5 z" style="color:#000;fill:#cacaca"/><g style="font-style:normal;font-variant:normal;font-weight:400;font-stretch:normal;font-size:3.03820014px;line-height:125%;font-family:Ubuntu;-inkscape-font-specification:Ubuntu;letter-spacing:0;word-spacing:0;fill:#3798d6;fill-opacity:1;stroke:none;stroke-width:1px;stroke-linecap:butt;stroke-linejoin:miter;stroke-opacity:1" id="text4155" transform="scale(1.1417405,0.87585576)"><path style="font-style:normal;font-variant:normal;font-weight:700;font-stretch:normal;font-size:3.39523315px;font-family:'droid sans';-inkscape-font-specification:'droid sans Bold';text-align:center;letter-spacing:.02328032px;word-spacing:.02328032px;text-anchor:middle;fill:#3798d6;fill-opacity:1" id="path4142" d="m 3.8018604,6.1222672 -1.6263299,0 0,-0.3564331 0.570293,-0.6150545 Q 2.8535824,5.0347316 2.9414473,4.9369197 3.0293122,4.8391078 3.0923097,4.7462694 3.1553072,4.653431 3.1901216,4.557277 3.224936,4.4611229 3.224936,4.3500484 q 0,-0.1226793 -0.074602,-0.1906503 -0.072944,-0.067971 -0.1972816,-0.067971 -0.1309684,0 -0.2519899,0.064655 -0.1210215,0.064655 -0.2536478,0.184019 L 2.1688991,4.0101935 q 0.074602,-0.067971 0.1558359,-0.1293106 0.081234,-0.062997 0.1790455,-0.1110746 0.097812,-0.048077 0.2155178,-0.07626 0.1177058,-0.029841 0.2635947,-0.029841 0.174072,0 0.3116718,0.048077 0.1392576,0.048077 0.2370695,0.1375998 0.097812,0.087865 0.1492046,0.2138599 0.05305,0.125995 0.05305,0.2834887 0,0.1425733 -0.049735,0.2735418 Q 3.6344197,4.7495851 3.5482126,4.8755801 3.4620055,4.9999172 3.3476153,5.1242544 3.234883,5.2469337 3.1055724,5.3745865 l -0.2917779,0.2934357 0,0.02321 0.9880659,0 0,0.4310354 z"/></g></svg>