<svg xmlns="http://www.w3.org/2000/svg" xmlns:svg="http://www.w3.org/2000/svg" id="svg2" width="24" height="24" version="1.1" viewBox="0 0 6.773 6.773"><metadata id="metadata17"/><path id="path4" d="m 1.4465828,0.47625021 0,0.46566684 -0.51176785,0 c -0.11641673,0 -0.19402784,0.0970149 -0.19395437,0.19402775 l -2.723e-5,5.1611483 c -4.624e-5,0.097006 0.0969676,0.1940202 0.1939816,0.194018 l 4.90361115,0 c 0.097015,2.2e-6 0.1940278,-0.097012 0.1939372,-0.1939813 l 1.349e-4,-5.161185 C 6.0324539,1.038931 5.9354402,0.94191705 5.8384261,0.94191705 l -0.5113145,0 0,-0.46566697 C 5.3269949,0.28222227 5.3269949,0.28222227 5.132967,0.28222227 l -0.5044724,0 c -0.1940278,0 -0.1940278,0 -0.1940278,0.19402794 l 0,0.37041734 -2.0955007,0 0,-0.37041734 c 0,-0.19402794 0,-0.19402794 -0.1940279,-0.19402794 l -0.5044724,0 c -0.1940278,0 -0.193883,0 -0.193883,0.19402794 z m 0.2583003,0.0644174 0.3756378,0 0,0.77760379 c 0,0.3221459 -0.3756378,0.3221459 -0.3756378,0 z m 2.9880288,0 0.3756378,0 0,0.77760339 c 0,0.3221463 -0.3756378,0.3221463 -0.3756378,0 z m -3.5641153,1.68183299 4.5155575,0 0,3.8806472 -4.5155575,-7.37e-5 z" style="color:#000;fill:#cacaca"/><g style="font-style:normal;font-variant:normal;font-weight:400;font-stretch:normal;font-size:3.03820014px;line-height:125%;font-family:Ubuntu;-inkscape-font-specification:Ubuntu;letter-spacing:0;word-spacing:0;fill:#3798d6;fill-opacity:1;stroke:none;stroke-width:1px;stroke-linecap:butt;stroke-linejoin:miter;stroke-opacity:1" id="text4155" transform="scale(1.1417405,0.87585576)"><path style="font-style:normal;font-variant:normal;font-weight:700;font-stretch:normal;font-size:3.39523315px;font-family:'droid sans';-inkscape-font-specification:'droid sans Bold';text-align:center;letter-spacing:.02328032px;word-spacing:.02328032px;text-anchor:middle;fill:#3798d6;fill-opacity:1" id="path4142" d="m 3.7073642,4.2406317 q 0,0.125995 -0.041446,0.2271225 -0.039788,0.09947 -0.1110746,0.1757299 -0.069629,0.074602 -0.1657828,0.1259949 -0.094496,0.049735 -0.2055708,0.07626 l 0,0.00995 q 0.2934357,0.036472 0.4442981,0.1790455 0.1508624,0.1409155 0.1508624,0.3813006 0,0.1591516 -0.058024,0.2950935 -0.056366,0.1342842 -0.1757298,0.2337539 -0.1177059,0.09947 -0.2984092,0.1558359 -0.1790455,0.054708 -0.4227463,0.054708 -0.1956238,0 -0.368038,-0.033157 -0.1724142,-0.031499 -0.3216188,-0.097812 l 0,-0.436009 q 0.074602,0.039788 0.1574938,0.069629 0.082891,0.029841 0.1657828,0.051393 0.082892,0.019894 0.1624673,0.029841 0.081234,0.00995 0.1525202,0.00995 0.1425733,0 0.2370695,-0.026525 0.094496,-0.026525 0.1508624,-0.074602 0.056366,-0.048077 0.079576,-0.1143901 0.024867,-0.067971 0.024867,-0.1475468 0,-0.074602 -0.031499,-0.1342841 -0.029841,-0.06134 -0.09947,-0.1027854 -0.067971,-0.043103 -0.1790455,-0.066313 -0.1110745,-0.02321 -0.2735417,-0.02321 l -0.1724142,0 0,-0.3597489 0.1690986,0 q 0.1525202,0 0.2536477,-0.026525 0.1011276,-0.028183 0.1608094,-0.074602 0.06134,-0.048077 0.086207,-0.1110745 0.024868,-0.062997 0.024868,-0.1342842 0,-0.1293106 -0.081234,-0.2022551 -0.079576,-0.072944 -0.2536477,-0.072944 -0.079576,0 -0.1492046,0.016578 -0.067971,0.01492 -0.1276528,0.039788 -0.058024,0.02321 -0.1077589,0.053051 -0.048077,0.028183 -0.087865,0.056366 L 2.1374004,3.9024346 q 0.069629,-0.051393 0.1508624,-0.094496 0.082891,-0.043103 0.1790455,-0.074602 0.096154,-0.033157 0.2072286,-0.051393 0.1110745,-0.018236 0.2370695,-0.018236 0.1790455,0 0.3249344,0.039788 0.1475468,0.03813 0.25199,0.1127323 0.1044432,0.072944 0.1608094,0.1807034 0.058024,0.106101 0.058024,0.2437008 z"/></g></svg>