<svg xmlns="http://www.w3.org/2000/svg" xmlns:svg="http://www.w3.org/2000/svg" xmlns:xlink="http://www.w3.org/1999/xlink" id="svg2" width="24" height="24" version="1.1"><defs id="defs4"><linearGradient id="linearGradient3760"><stop style="stop-color:#000;stop-opacity:1" id="stop3762" offset="0"/><stop style="stop-color:#000;stop-opacity:0" id="stop3764" offset="1"/></linearGradient><radialGradient id="radialGradient3766" cx="11" cy="19" r="11" fx="11" fy="19" gradientTransform="matrix(1,0,0,0.09090909,0,17.272727)" gradientUnits="userSpaceOnUse" xlink:href="#linearGradient3760"/></defs><metadata id="metadata7"/><g id="layer1" transform="translate(0,-1028.3622)"><path style="opacity:.25;fill:url(#radialGradient3766);fill-opacity:1;stroke:none" id="path2990" d="M 22,19 A 11,1 0 1 1 0,19 11,1 0 1 1 22,19 z" transform="matrix(1.1818182,0,0,1,-1,1030.3622)"/><path id="path3029" d="m 1,1032.3622 0,14 22,0 0,-7 -1,-6 -8,0 -1,-2 -11,0 c -0.5,0 -1,0.5 -1,1 z" style="fill:#ef6c00;fill-opacity:1;stroke:none"/><path style="opacity:.02999998;fill:#000;fill-opacity:1;stroke:none" id="path3806" d="m 2,1031.3622 c -0.5,0 -1,0.5 -1,1 l 0,1 c 0,-0.5 0.5,-1 1,-1 l 10,0 1,2 9,0 0,6 0,-1 0,-6 -8,0 -1,-2 z"/><rect style="fill:#fffdf0;fill-opacity:1;stroke:none" id="rect3799" width="10" height="4" x="3" y="1034.362"/><path style="fill:#ffa726;fill-opacity:1;stroke:none" id="rect2987" d="m 23,1034.4289 0,14.9333 -22,0 0,-14 11,0 1,-2 9,0 c 0.5,0 1,0.5333 1,1.0667 z"/><path id="path3794" d="m 1,1048.3622 0,1 22,0 0,-1 z" style="opacity:.15;fill:#000;fill-opacity:1;stroke:none"/><path style="fill:none;stroke:none" id="path3801" d="m 12,1033.8622 -2.5,1.5 1.5,0 z"/><path style="opacity:.02999998;fill:#000;fill-opacity:1;stroke:none" id="path3033" d="m 13,1033.3622 -1,2 -11,0 0,1 12,0 1,-2 8,0 c 0.5,0 1,0.5 1,1 l 0,-1 c 0,-0.5 -0.5,-1 -1,-1 z"/><g id="g3964" transform="translate(-2.42e-5,-1)" style="opacity:1;fill:#b17621;fill-opacity:1"><path id="path3953" d="m 14,8 c -1.656854,0 -3,1.3431458 -3,3 0,1.656854 1.343146,3 3,3 1.656854,0 3,-1.343146 3,-3 0,-1.6568542 -1.343146,-3 -3,-3 z m 0,1 c 1.10457,0 2,0.8954305 2,2 0,1.104569 -0.89543,2 -2,2 -1.10457,0 -2,-0.895431 -2,-2 0,-1.1045695 0.89543,-2 2,-2 z" transform="translate(0,1030.3622)" style="fill:#b17621;fill-opacity:1;stroke:none"/><rect id="rect3958" width="2" height="6" x="745.547" y="728.576" rx=".5" ry=".5" transform="matrix(0.70710678,0.70710678,-0.70710678,0.70710678,0,0)" style="fill:#b17621;fill-opacity:1;stroke:none"/></g></g></svg>