<svg xmlns="http://www.w3.org/2000/svg" xmlns:svg="http://www.w3.org/2000/svg" xmlns:xlink="http://www.w3.org/1999/xlink" id="svg2" width="128" height="128" version="1.1" viewBox="0 0 128 128"><metadata id="metadata98"/><defs id="defs4"><path id="SVGCleanerId_0" d="m 14,12 20,0 c 1.105,0 2,0.895 2,2 l 0,20 c 0,1.105 -0.895,2 -2,2 l -20,0 c -1.105,0 -2,-0.895 -2,-2 l 0,-20 c 0,-1.105 0.895,-2 2,-2 m 0,0"/></defs><use style="fill:none;stroke:#af8566;stroke-width:2.87999988;stroke-linecap:butt;stroke-linejoin:miter;stroke-miterlimit:4;stroke-dasharray:none;stroke-opacity:1" id="use72" width="100%" height="100%" x="0" y="0" stroke-miterlimit="4" transform="matrix(4.1666667,0,0,4.1666667,-36.000001,-36.000001)" xlink:href="#SVGCleanerId_0"/><use style="fill:#fff4ab;fill-opacity:1;fill-rule:nonzero;stroke:none" id="use74" width="100%" height="100%" x="0" y="0" transform="matrix(3.9999999,0,0,3.9999999,-31.999999,-32.000001)" xlink:href="#SVGCleanerId_0"/><path style="fill:#e4d66a;fill-opacity:1;fill-rule:nonzero;stroke:none" id="path84" d="m 16,88 96,0 0,8 -96,0 z"/><path style="fill:#e4d66a;fill-opacity:1;fill-rule:nonzero;stroke:none" id="path84-3" d="m 16.000001,63.999999 95.999999,0 0,7.999998 -95.999999,0 z"/><path style="fill:#e4d66a;fill-opacity:1;fill-rule:nonzero;stroke:none" id="path84-3-9" d="m 16.000001,39.999999 95.999999,0 0,8 -95.999999,0 z"/><path style="fill:#e6b2a9;fill-opacity:1;fill-rule:nonzero;stroke:none" id="path86" d="m 40.000001,15.999998 7.999998,0 0,96.000002 -7.999998,0 z"/></svg>