<svg xmlns="http://www.w3.org/2000/svg" xmlns:svg="http://www.w3.org/2000/svg" id="svg2989" width="22" height="22" version="1.1" viewBox="0 0 22 22"><metadata id="metadata3017"/><path style="fill:#dcdcdc;fill-opacity:1" id="path4-1" d="M 4,0 C 3.527343,0 3,0.527344 3,1 l 0,20 c 0,0.445312 0.554687,1 1,1 l 14,0 c 0.445313,0 1,-0.554688 1,-1 L 19,1 C 19,0.527344 18.472657,0 18,0 z"/><path style="fill:#888" id="path16" d="m 6,10 0,1 10,0 0,-1 z"/><path style="fill:#888" id="path22" d="m 6,12 0,1 10,0 0,-1 z"/><path style="fill:#888" id="path28" d="m 6,16 0,1 10,0 0,-1 z"/><path style="fill:#888" id="path16-4" d="M 6,6 6,7 16,7 16,6 z"/><path style="fill:#888" id="path22-9" d="m 6,14 0,1 10,0 0,-1 z"/><path style="fill:#888" id="path16-6" d="m 6,8 0,0.9999997 10,0 L 16,8 z"/></svg>