<svg xmlns="http://www.w3.org/2000/svg" xmlns:svg="http://www.w3.org/2000/svg" id="svg2" width="22" height="22" version="1.1" viewBox="0 0 22 22"><metadata id="metadata30"/><path style="fill:#3468ce;fill-opacity:1" id="path4-5" d="m 4,-4e-7 c -0.472657,0 -1,0.527344 -1,1 L 3,21 c 0,0.445312 0.554687,1 1,1 l 14,0 c 0.445313,0 0.992367,-0.554753 1,-1 l 0,-15.0000004 -6,-6 z"/><path style="fill:#000;fill-opacity:.19599998" id="path6" d="M 14,5.9999996 19,11 19,5.9999996 z"/><path style="fill:#fff;fill-opacity:.39200003" id="path8" d="m 13,-4e-7 6,6 -5,0 c -0.445312,0 -1,-0.554688 -1,-1 z"/><rect style="fill:#f9f9f9;fill-opacity:1;fill-rule:evenodd;stroke:none" id="rect3029" width="8" height="1" x="7" y="16"/><rect style="fill:#f9f9f9;fill-opacity:1;fill-rule:evenodd;stroke:none" id="rect3031" width="8" height="1" x="7" y="14"/><rect style="fill:#f9f9f9;fill-opacity:1;fill-rule:evenodd;stroke:none" id="rect3033" width="8" height="1" x="7" y="12"/><rect style="fill:#f9f9f9;fill-opacity:1;fill-rule:evenodd;stroke:none" id="rect3035" width="4" height="3" x="7" y="8"/><rect style="fill:#f9f9f9;fill-opacity:1;fill-rule:evenodd;stroke:none" id="rect3037" width="3" height="1" x="12" y="10"/><rect style="fill:#f9f9f9;fill-opacity:1;fill-rule:evenodd;stroke:none" id="rect3039" width="3" height="1" x="12" y="8"/></svg>