<svg xmlns="http://www.w3.org/2000/svg" xmlns:svg="http://www.w3.org/2000/svg" id="svg2" width="22" height="22" version="1.1" viewBox="0 0 22 22"><metadata id="metadata18"/><path style="fill:#7c9c35;fill-opacity:1" id="path4-0" d="m 4,-2e-7 c -0.472657,0 -1,0.527344 -1,1 L 3,21 c 0,0.445312 0.554687,1 1,1 l 14,0 c 0.445313,0 0.992367,-0.554753 1,-1 L 19,6 13,-2e-7 z"/><path style="fill:#000;fill-opacity:.19599998" id="path6" d="m 14,6 5,5 0,-5 z"/><path style="fill:#fff;fill-opacity:.39200003" id="path8" d="M 13,-2e-7 19,6 14,6 C 13.554688,6 13,5.445312 13,5 z"/><path style="fill:#fff" id="path12" d="M 11,15.172512 7.7456483,11.91816 11,8.6593919 12.086256,9.7456483 9.9137436,11.91816 11,13 14.254352,9.7456483 11.419489,6.9107849 c -0.229615,-0.2340305 -0.609363,-0.2340305 -0.838978,0 L 5.9926248,11.498671 c -0.2296139,0.229615 -0.2296139,0.604947 0,0.838977 l 4.5878862,4.587886 c 0.229615,0.229615 0.609363,0.229615 0.838978,0 l 4.587886,-4.587886 c 0.229614,-0.23403 0.229614,-0.609362 0,-0.838977 l -0.666767,-0.666767 z"/></svg>