<svg xmlns="http://www.w3.org/2000/svg" xmlns:svg="http://www.w3.org/2000/svg" id="svg2" width="22" height="22" version="1.1" viewBox="0 0 22 22"><metadata id="metadata22"/><path style="fill:#df1818;fill-opacity:1" id="path4" d="M 4,0 C 3.527343,0 3,0.527344 3,1 l 0,20 c 0,0.445312 0.554687,1 1,1 l 14,0 c 0.445313,0 0.992367,-0.554753 1,-1 L 19,6 13,0 z"/><path style="fill:#fff" id="path12" d="m 11.020826,6.966798 c 0,0 0.32556,3.15112 -1.9754365,7.317794 -2.2954771,4.160871 -2.9686693,3.603765 -3.21146,3.458688 -0.2427909,-0.14508 -0.5517975,-0.609333 0.4635097,-1.549447 1.0208249,-0.934309 1.418119,-0.9169 1.418119,-0.9169 0,0 -0.9325372,0.591924 -1.2967229,1.172238 -0.364187,0.574516 -0.6566392,0.934311 -0.5683516,1.0968 0.088288,0.162487 1.1256666,-0.661561 1.5615856,-1.369548 C 8.0962994,15.062215 9.3930222,12.984682 10,11 10.60146,9.0211185 11.020826,6.966798 11.020826,6.966798 z"/><path style="fill:#000;fill-opacity:.19599998" id="path6" d="m 14,6 5,5 0,-5 z"/><path style="fill:#fff" id="path14" d="m 16.687784,14.267181 c 0,0 -0.05518,0.145086 -0.65664,0.08705 -0.606975,-0.05222 -2.957634,-0.829847 -4.221248,-2.414111 -1.258099,-1.584265 -1.36294,-3.766256 -1.451227,-4.9036767 -0.08277,-1.1374208 0.391776,-0.8182462 0.463509,-0.6731673 0.104843,0.092849 0.160021,0.400418 0.160021,0.400418 0,0 -0.03863,-0.4642534 -0.226237,-0.6615617 -0.193129,-0.1973144 -0.358667,-0.2031171 -0.551797,0.1392686 -0.187612,0.3423873 -0.2758996,1.2999095 -0.121395,2.2168106 0.154501,0.9227041 0.794587,3.0292505 1.589176,4.0041855 0.794588,0.974932 2.389284,1.822195 3.564612,2.07173 1.175326,0.255341 1.451226,-0.266946 1.451226,-0.266946 z"/><path style="fill:#fff;fill-opacity:.39200003" id="path8" d="m 13,0 6,6 -5,0 C 13.554688,6 13,5.445312 13,5 z"/><path style="fill:#fff" id="path16" d="m 9.0288367,14.679206 c 0,0 2.2844413,-0.77182 4.4419683,-0.992341 2.163045,-0.214717 2.902453,0.01741 3.095583,0.179898 0.187611,0.162489 0.187611,0.342387 0.187611,0.342387 0,0 0.242792,-0.249536 0.08277,-0.504875 -0.132431,-0.266946 -0.342109,-0.481664 -2.052683,-0.429434 -1.710571,0.05223 -1.831966,0.127675 -3.404588,0.429434 -1.5726223,0.307568 -2.3506563,0.974931 -2.3506563,0.974931 z"/></svg>