<svg xmlns="http://www.w3.org/2000/svg" xmlns:svg="http://www.w3.org/2000/svg" id="svg2" width="22" height="22" version="1.1" viewBox="0 0 22 22"><metadata id="metadata16"/><path style="fill:#dc322f;fill-opacity:1" id="path4" d="M 4,0 C 3.527343,0 3,0.527344 3,1 l 0,20 c 0,0.445312 0.554687,1 1,1 l 14,0 c 0.445313,0 0.992367,-0.554753 1,-1 L 19,6 13,0 z"/><path style="fill:#000;fill-opacity:.19599998" id="path6" d="m 14,6 5,5 0,-5 z"/><path style="fill:#fff;fill-opacity:.39200003" id="path8" d="m 13,0 6,6 -5,0 C 13.554688,6 13,5.445312 13,5 z"/><path style="fill:#fff" id="path10" d="m 6,8 0,2 10,0 0,-2 z m 0,3 0,7 10,0 0,-7 z m 6.57556,0.884739 c 0.388896,0 0.771128,0.04294 1.062799,0.229117 0.291672,0.186196 0.501912,0.429416 0.654693,0.787487 0.152781,0.350908 0.153179,1.059896 0.153179,1.554034 0,1.052723 -0.23326,1.361082 -0.670768,1.883863 C 13.344896,16.862039 12.881961,17 12,17 11.687495,17 11.458323,16.97851 11.298599,16.94271 l 0,-0.895173 c 0.201392,0.05013 0.486121,0.108732 0.701401,0.108732 0.375008,0 0.567272,-0.04886 0.803387,-0.156269 0.236113,-0.114575 0.340677,-0.222989 0.465678,-0.459315 0.125,-0.243488 0.1954,-0.351191 0.216233,-0.773714 l -0.05556,0.006 c 0,0 -0.124837,0.133939 -0.305394,0.227036 -0.187504,0.0931 -0.401833,0.145492 -0.672671,0.145492 -0.458342,0 -0.88728,-0.109611 -1.151175,-0.410388 -0.263892,-0.300779 -0.370919,-0.475274 -0.370919,-1.005215 0,-0.572913 0.02285,-0.937701 0.342304,-1.267125 0.319449,-0.336585 0.755053,-0.578029 1.303677,-0.578032 z M 9,12 l 1,0 0,5 -1,0 0,-4 -1.3125606,0.552597 -0.3139648,-0.831311 z m 3.390635,0.669562 c -0.152782,0.02864 -0.291674,0.107426 -0.388896,0.229165 -0.131947,0.15755 -0.187504,0.401038 -0.187504,0.701815 0,0.257809 0.04861,0.458328 0.16667,0.61588 0.118054,0.150389 0.298616,0.229165 0.534731,0.229165 0.229172,0 0.416674,-0.08593 0.5764,-0.229165 0.159725,-0.157552 0.24306,-0.322264 0.24306,-0.515619 0,-0.293619 -0.07639,-0.544268 -0.222227,-0.744785 -0.152781,-0.200521 -0.347229,-0.286456 -0.576398,-0.286456 -0.05556,0 -0.09723,-0.01433 -0.145836,0 z"/></svg>