<svg xmlns="http://www.w3.org/2000/svg" xmlns:svg="http://www.w3.org/2000/svg" id="svg2" width="22" height="22" version="1.1" viewBox="0 0 22 22"><metadata id="metadata22"/><path style="fill:#dcdcdc" id="path4" d="m 4,3e-7 c -0.472657,0 -1,0.527344 -1,1 L 3,21 c 0,0.445312 0.554687,1 1,1 l 14,0 c 0.445313,0 0.992367,-0.554753 1,-1 l 0,-14.9999997 -6,-6 z"/><path style="fill:#000;fill-opacity:.19599998" id="path6" d="M 14,6.0000003 19,11 19,6.0000003 z"/><path style="fill:#fff;fill-opacity:.39200003" id="path8" d="m 13,3e-7 6,6 -5,0 c -0.445312,0 -1,-0.554688 -1,-1 z"/><g style="fill:#888" id="g10" transform="matrix(1.333333,0,0,1.3749616,0.333334,6.1364538e-4)"><path id="path12" d="M 5.0000008,5.817898 5,8 3.5000004,7.9997771 l 0,0.7272931 1.5000004,0 0,1.4545858 -1.5000004,0 0,0.727293 1.5000004,0 0,2.181879 0.7500001,0 0,-2.181879 1.5000004,0 0,2.181879 0.7500002,0 0,-2.181879 1.5000004,0 0,-0.727293 -1.5000004,0 0,-1.4545858 1.5000004,0 0,-0.7272931 L 8,8 l 1.5e-6,-2.182102 -0.7500002,0 0,2.1818791 -1.5000004,0 0,-2.1818791 z m 0.7500001,2.9091722 1.5000004,0 0,1.4545858 -1.5000004,0 z"/><path id="path14" d="m 11.000002,11.636242 0,1.454586 0.75,0 0,-1.454586 z"/><path id="path16" d="m 11.000002,10.908949 0.75,0 0,-5.091051 -0.75,0 z"/></g></svg>