<svg xmlns="http://www.w3.org/2000/svg" xmlns:svg="http://www.w3.org/2000/svg" id="svg2" width="22" height="22" version="1.1" viewBox="0 0 22 22"><metadata id="metadata22"/><path style="fill:#dcdcdc" id="path4" d="M 4,0 C 3.527343,0 3,0.527344 3,1 l 0,20 c 0,0.445312 0.554687,1 1,1 l 14,0 c 0.445313,0 0.992367,-0.554753 1,-1 L 19,6 13,0 z"/><path style="fill:#000;fill-opacity:.19599998" id="path6" d="m 14,6 5,5 0,-5 z"/><path style="fill:#fff;fill-opacity:.39200003" id="path8" d="m 13,0 6,6 -5,0 C 13.554688,6 13,5.445312 13,5 z"/><g style="fill:#888" id="g10" transform="matrix(1.5,0,0,1.4995815,-0.99999868,-1.4970705)"><path id="path12" d="M 6,7 4,9 c 0,0.332031 0,0.332031 0,0.667969 l 2,2 0,-1.335938 -1,-1 1,-1 z"/><path id="path14" d="m 10,7 2,2 c 0,0.332031 0,0.332031 0,0.667969 l -2,2 0,-1.335938 1,-1 -1,-1 z"/><path id="path16" d="M 8.667969,7 9.332031,7 8,11.667969 l -0.667969,0 z"/></g></svg>