<svg xmlns="http://www.w3.org/2000/svg" xmlns:svg="http://www.w3.org/2000/svg" id="svg2" width="16" height="16" version="1.1"><metadata id="metadata7"/><g id="layer1" transform="translate(0,-1036.3622)"><path id="path3029" d="m 0,1037.3622 0,13 16,0 0,-7 -1,-5 -5,0 -1,-2 -8,0 c -0.5,0 -1,0.5 -1,1 z" style="fill:#ef6c00;fill-opacity:1;stroke:none"/><path style="fill:#000;fill-opacity:1;stroke:none;opacity:.03" id="path3789" d="M 1,0 C 0.5,0 0,0.5 0,1 L 0,2 C 0,1.5 0.5,1 1,1 L 8,1 9,3 15,3 16,8 16,7 15,2 10,2 9,0 z" transform="translate(0,1036.3622)"/><rect style="fill:#fffdf0;fill-opacity:1;stroke:none" id="rect3799" width="10" height="3" x="2" y="1039.362"/><path style="fill:#ffa726;fill-opacity:1;stroke:none" id="rect2987" d="m 16,1039.3622 0,13 -16,0 0,-12 7,0 1,-2 7,0 c 0.5,0 1,0.5 1,1 z"/><path id="path3794" d="m 0,1051.3622 0,1 16,0 0,-1 z" style="opacity:.15;fill:#000;fill-opacity:1;stroke:none"/><path style="fill:none;stroke:none" id="path3801" d="m 11,1037.8622 -2.5,1.5 1.5,0 z"/><path style="fill:#000;fill-opacity:1;stroke:none;opacity:.03" id="path3784" d="M 8,2 7,4 0,4 0,5 8,5 9,3 15,3 c 0.5,0 1,0.5 1,1 L 16,3 C 16,2.5 15.5,2 15,2 z" transform="translate(0,1036.3622)"/><path style="fill:#4caf50;fill-opacity:1" id="path8" d="m 16,1046.3622 -4,0 0,-4 -2,0 0,4 -4,0 0,2 4,0 0,4 2,0 0,-4 4,0 z"/></g></svg>