<svg xmlns="http://www.w3.org/2000/svg" xmlns:svg="http://www.w3.org/2000/svg" id="svg2" width="16" height="16" version="1.1" viewBox="0 0 16 16"><metadata id="metadata16"/><defs id="defs14"><clipPath id="clip1"><path id="path4225" d="m 17,10 14,0 0,20 -14,0 m 0,-20"/></clipPath><clipPath id="clip2"><path id="path4228" d="m 41.895,19.992 c 0,10.582 -8.02,19.16 -17.895,19.16 -9.875,0 -17.891,-8.574 -17.891,-19.16 0,-10.586 8.02,-19.16 17.891,-19.16 9.879,0 17.895,8.574 17.895,19.16 m 0,0"/></clipPath></defs><path id="path4152" d="m 2.8663334,0 7.2669476,0 c 1.866667,0 1.866667,0 1.866667,1.80022 l 0,10.39967 c 0,1.80022 0,1.80022 -1.866667,1.80022 l -7.2669476,0 c -1.8666668,0 -1.8666668,0 -1.8666668,-1.80022 l 0,-10.39967 C 0.9996666,0 0.9996666,0 2.8663334,0 Z" style="fill:#fff;fill-opacity:1;fill-rule:evenodd"/><g style="fill:#888" id="g4154" transform="matrix(0.46666668,0,0,0.45005492,-7.5003856,-5.6014281)"><path id="path4156" d="m 22.500413,16.890123 0,4.443902 14.999999,0 0,-4.443902 z"/><path id="path4158" d="m 22.500619,34.665731 -2.06e-4,4.443903 8.571325,0 2.06e-4,-4.443903 z"/><path id="path4160" d="m 22.500413,25.777927 0,4.443902 14.999999,0 0,-4.443902 z"/></g><path id="path4288" d="m 14.999304,6.501058 c 0,0 5.2e-4,-0.389685 -0.868286,-0.891285 -0.838139,-0.4839 -1.229092,-0.271149 -1.229092,-0.271149 L 8.382,13.16766 8.132218,16 10.458,14.36646" style="fill:#ff6f03;fill-opacity:1;fill-rule:nonzero;stroke:none"/><path id="path4290" d="M 8.382,13.168 8.132218,16 10.458,14.366" style="fill:#ffc13d;fill-opacity:1;fill-rule:nonzero;stroke:none"/><path id="path4292" d="M 8.244699,14.679577 8.132218,16 9.221056,15.243277" style="fill:#2d2d2d;fill-opacity:1;fill-rule:nonzero;stroke:none"/></svg>