<svg xmlns="http://www.w3.org/2000/svg" xmlns:svg="http://www.w3.org/2000/svg" id="svg3011" width="32" height="32" version="1.1" viewBox="0 0 32 32"><metadata id="metadata3039"/><path style="fill:#dcdcdc;fill-opacity:1" id="path4-1" d="M 5.34375,-4e-7 C 4.656277,1.46e-5 4,0.68900658 4,1.4062496 L 4,30.59375 C 4,31.270239 4.695337,32 5.34375,32 l 21.3125,0 C 27.304664,32 28,31.270239 28,30.59375 L 28,8.9999992 28,1.3749996 C 28,0.70204858 27.297951,-4e-7 26.625,-4e-7 l -7.625,0 -13.65625,0 z"/><rect style="fill:#888;fill-opacity:1;fill-rule:evenodd;stroke:none" id="rect3031" width="12" height="1" x="10" y="10"/><rect style="fill:#888;fill-opacity:1;fill-rule:evenodd;stroke:none" id="rect3033" width="12" height="1" x="10" y="12"/><rect style="fill:#888;fill-opacity:1;fill-rule:evenodd;stroke:none" id="rect3035" width="12" height="1" x="10" y="14"/><rect style="fill:#888;fill-opacity:1;fill-rule:evenodd;stroke:none" id="rect3037" width="12" height="1" x="10" y="16"/><rect style="fill:#888;fill-opacity:1;fill-rule:evenodd;stroke:none" id="rect3039" width="12" height="1" x="10" y="18"/><rect style="fill:#888;fill-opacity:1;fill-rule:evenodd;stroke:none" id="rect3041" width="12" height="1" x="10" y="20"/><rect style="fill:#888;fill-opacity:1;fill-rule:evenodd;stroke:none" id="rect3043" width="12" height="1" x="10" y="22"/></svg>