<svg xmlns="http://www.w3.org/2000/svg" xmlns:svg="http://www.w3.org/2000/svg" id="svg2" width="32" height="32" version="1.1" viewBox="0 0 32 32"><metadata id="metadata18"/><path style="fill:#7c9c35;fill-opacity:1" id="path4-1" d="M 5.335888,2.969e-4 C 4.648414,3.118e-4 4,0.6767877 4,1.394031 L 4,30.606268 C 4,31.282757 4.687474,32 5.335888,32 l 21.327332,0 c 0.648414,0 1.335888,-0.717243 1.335888,-1.393732 L 28,8.9999995 l -9,-9 z"/><path style="fill:#000;fill-opacity:.19599998" id="path6-4" d="M 21,8.9999995 28,16 28,8.9999995 z"/><path style="fill:#fff;fill-opacity:.39200003" id="path8-6" d="m 19.000306,2.969e-4 8.991594,8.9997026 -7.613262,0 c -0.672951,0 -1.378332,-0.7134896 -1.378332,-1.3864402 z"/><path style="fill:#fff" id="path12" d="M 16,21.886744 11.445118,17.331862 16,12.781225 17.51971,14.296688 14.48029,17.331862 16,18.851571 20.554882,14.296688 16.585809,10.331862 c -0.322619,-0.32262 -0.848999,-0.32262 -1.171618,0 L 9,16.746053 c -0.3268656,0.322619 -0.3268656,0.848999 0,1.175863 l 6.414191,6.414191 c 0.322619,0.32262 0.848999,0.32262 1.171618,0 L 23,17.921916 c 0.326866,-0.326864 0.326866,-0.853244 0,-1.175863 l -0.929654,-0.929655 z"/></svg>