<svg xmlns="http://www.w3.org/2000/svg" xmlns:svg="http://www.w3.org/2000/svg" id="svg2" width="32" height="32" version="1.1" viewBox="0 0 32 32"><metadata id="metadata40"/><path style="fill:#3468ce;fill-opacity:1" id="path4-1" d="M 5.335888,2.969e-4 C 4.648414,3.119e-4 4,0.6767879 4,1.3940308 L 4,30.606268 C 4,31.282757 4.687474,32 5.335888,32 l 21.327333,0 c 0.648413,0 1.335888,-0.717243 1.335888,-1.393732 l 8.92e-4,-21.6062685 -9,-8.999999599999998 z"/><path style="fill:#000;fill-opacity:.19599998" id="path6-4" d="M 21,8.9999995 28,16 28,8.9999995 z"/><path style="fill:#fff;fill-opacity:.39200003" id="path8-6" d="m 19.000306,2.969e-4 8.991594,8.9997026 -7.613262,0 c -0.67295,0 -1.378332,-0.7134896 -1.378332,-1.3864402 z"/><rect style="fill:#f9f9f9;fill-opacity:1;fill-rule:evenodd;stroke:none" id="rect3029" width="6" height="5" x="10" y="11"/><rect style="fill:#f9f9f9;fill-opacity:1;fill-rule:evenodd;stroke:none" id="rect3031" width="5" height="1" x="17" y="11"/><path style="fill:#000;fill-opacity:.19599998" id="path26" d="m 4,24 0,6.667969 C 4,31.316407 4.6874999,32 5.3320309,32 L 26.667969,32 C 27.3125,32 28,31.316407 28,30.667969 L 28,24 z"/><rect style="fill:#f9f9f9;fill-opacity:1;fill-rule:evenodd;stroke:none" id="rect3033" width="5" height="1" x="17" y="13"/><rect style="fill:#f9f9f9;fill-opacity:1;fill-rule:evenodd;stroke:none" id="rect3035" width="5" height="1" x="17" y="15"/><g style="fill:#fff" id="g28" transform="matrix(1.0538957,0,0,1.0538957,-0.88967469,-0.50749552)"><path id="path30" d="m 10.484375,27.332031 c 0,0.25 0.0078,0.484375 0.02734,0.703125 0.02344,0.214844 0.06641,0.402344 0.128906,0.5625 0.06641,0.160156 0.160156,0.285156 0.277344,0.378906 0.117187,0.09375 0.273437,0.140626 0.46875,0.140626 0.191406,0 0.34375,-0.04688 0.460937,-0.140626 0.121094,-0.09375 0.214844,-0.21875 0.277344,-0.378906 0.06641,-0.167968 0.109375,-0.355468 0.128906,-0.570312 0.02344,-0.214844 0.03516,-0.445313 0.03516,-0.695313 0,-0.246093 -0.01172,-0.476562 -0.03516,-0.691406 -0.01953,-0.222656 -0.0625,-0.410156 -0.128906,-0.570313 -0.0625,-0.160156 -0.152344,-0.285156 -0.269531,-0.378906 -0.117188,-0.09375 -0.273438,-0.140625 -0.46875,-0.140625 -0.195313,0 -0.351563,0.04687 -0.46875,0.140625 -0.117188,0.09375 -0.210938,0.222656 -0.277344,0.386719 -0.0625,0.160156 -0.105469,0.347656 -0.128906,0.5625 -0.01953,0.214844 -0.02734,0.445313 -0.02734,0.691406 m -1.152344,0 c 0,-0.878906 0.183594,-1.542969 0.542969,-1.988281 0.363281,-0.453125 0.867188,-0.675781 1.511719,-0.675781 0.667969,0 1.179687,0.222656 1.527343,0.675781 0.351563,0.445312 0.527344,1.109375 0.527344,1.988281 0,0.882813 -0.179687,1.546875 -0.535156,2 C 12.550781,29.777344 12.046875,30 11.394531,30 c -0.667969,0 -1.179687,-0.222656 -1.535156,-0.667969 -0.351563,-0.453125 -0.527344,-1.117187 -0.527344,-2"/><path id="path32" d="m 15.320312,29.066406 c 0.02734,0.0078 0.0625,0.0078 0.09766,0.0078 0.03906,0 0.07422,0 0.101562,0 0.257813,0 0.472657,-0.04297 0.644531,-0.132813 0.179688,-0.08594 0.320313,-0.207031 0.425782,-0.363281 0.109375,-0.152344 0.1875,-0.335937 0.230468,-0.542969 0.04688,-0.214844 0.07422,-0.449218 0.07422,-0.703125 0,-0.21875 -0.01953,-0.433593 -0.05859,-0.644531 -0.03516,-0.207031 -0.09766,-0.390625 -0.191407,-0.550781 -0.09375,-0.160157 -0.21875,-0.285157 -0.378906,-0.378907 -0.160156,-0.101562 -0.363281,-0.148437 -0.617187,-0.148437 -0.04688,0 -0.101563,0 -0.164063,0.0078 -0.0625,0 -0.117187,0.0039 -0.164063,0.01562 l 0,3.433594 m 2.722657,-1.734375 c 0,0.472657 -0.06641,0.878907 -0.203125,1.214844 -0.128906,0.332031 -0.308594,0.601563 -0.542969,0.808594 -0.230469,0.210937 -0.511719,0.363281 -0.835937,0.460937 -0.320313,0.09375 -0.671876,0.140625 -1.058594,0.140625 -0.203125,0 -0.402344,-0.0078 -0.597656,-0.03125 -0.191407,-0.01563 -0.398438,-0.04687 -0.617188,-0.08984 l 0,-4.988282 c 0.257812,-0.05078 0.5,-0.08203 0.726562,-0.09766 0.226563,-0.01563 0.4375,-0.02734 0.632813,-0.02734 0.375,0 0.71875,0.05078 1.023437,0.148438 0.3125,0.101562 0.578126,0.257812 0.792969,0.472656 0.214844,0.207031 0.378907,0.480469 0.496094,0.808594 0.125,0.324218 0.183594,0.71875 0.183594,1.179687"/><path id="path34" d="m 22.667969,24.78125 0,0.84375 -1.503907,0 0,4.265625 -1.140624,0 0,-4.265625 -1.5,0 0,-0.84375 4.144531,0"/></g><rect style="fill:#f9f9f9;fill-opacity:1;fill-rule:evenodd;stroke:none" id="rect3037" width="12" height="1" x="10" y="17"/><rect style="fill:#f9f9f9;fill-opacity:1;fill-rule:evenodd;stroke:none" id="rect3039" width="12" height="1" x="10" y="19"/><rect style="fill:#f9f9f9;fill-opacity:1;fill-rule:evenodd;stroke:none" id="rect3041" width="12" height="1" x="10" y="21"/></svg>