<svg xmlns="http://www.w3.org/2000/svg" xmlns:svg="http://www.w3.org/2000/svg" id="svg2" width="32" height="32" version="1.1" viewBox="0 0 32 32"><metadata id="metadata34"/><path style="fill:#7099c3;fill-opacity:1" id="path4-1" d="M 5.335888,2.971e-4 C 4.648414,3.121e-4 4,0.676788 4,1.3940313 L 4,30.606268 C 4,31.282757 4.687474,32 5.335888,32 l 21.327332,0 c 0.648414,0 1.335888,-0.717243 1.335888,-1.393732 L 28,8.9999998 l -9,-9 z"/><path style="fill:#000;fill-opacity:.19599998" id="path6-4" d="M 21,8.9999998 28,16 28,8.9999998 z"/><path style="fill:#fff;fill-opacity:.39200003" id="path8-6" d="m 19.000306,2.971e-4 8.991594,8.9997027 -7.613262,0 c -0.672951,0 -1.378332,-0.7134896 -1.378332,-1.3864402 z"/><path style="fill:#fff" id="path12" d="m 10.296038,15 0,1 11.459919,0 0,-1 z"/><path style="fill:#fff" id="path14" d="m 9.6367098,17.362003 0,1.276298 12.7271662,0 0,-1.276298 z"/><path style="fill:#fff" id="path16" d="m 10.270333,20 0,1 11.459919,0 0,-1 z"/><path style="fill:#fff" id="path18" d="m 15.5,11.636896 0,12.726513 1,0 0,-12.726513 z"/><g style="fill:none;stroke:#fff" id="g20" transform="matrix(1.1669608,0,0,1.1669009,-2.6710799,-3.0040641)"><g style="stroke-width:2" id="g22"><path id="path24" d="m 20.440814,33.002083 c -1.998076,-6.001389 -1.998076,-12.002777 0,-18.004166" transform="matrix(0.54545,0,0,0.54545,2.90922,4.90928)"/><path id="path26" d="m 27.466306,33.002083 c 2.005237,-4.99877 2.005237,-12.002777 0,-18.004166" transform="matrix(0.54545,0,0,0.54545,2.90922,4.90928)"/></g><path style="stroke-width:1.82099998;stroke-linecap:round" id="path28" d="m 33.055052,27.317092 c 0,5.026824 -4.074922,9.101746 -9.101746,9.101746 -5.026824,0 -9.101747,-4.074922 -9.101747,-9.101746 0,-5.026824 4.074923,-9.101747 9.101747,-9.101747 5.026824,0 9.101746,4.074923 9.101746,9.101747 z" transform="matrix(0.59913,0,0,0.59913,1.64887,1.63352)"/></g></svg>