<svg xmlns="http://www.w3.org/2000/svg" xmlns:svg="http://www.w3.org/2000/svg" id="svg2" width="32" height="32" version="1.1" viewBox="0 0 32 32"><metadata id="metadata22"/><path style="fill:#dcdcdc;fill-opacity:1" id="path4-1" d="M 5.335888,2.9728305e-4 C 4.648414,3.1228305e-4 4,0.67678818 4,1.3940315 L 4,30.606268 C 4,31.282757 4.687474,32 5.335888,32 l 21.327332,0 c 0.648414,0 1.335888,-0.717243 1.335888,-1.393732 L 28,9 19,-1.6949151e-8 z"/><path style="fill:#000;fill-opacity:.19599998" id="path6-4" d="m 21,9 7,7 0,-7 z"/><path style="fill:#fff;fill-opacity:.39200003" id="path8-6" d="M 19.000306,2.9728305e-4 27.9919,9 20.378638,9 C 19.705687,9 19.000306,8.2865104 19.000306,7.6135598 z"/><g style="fill:#888" id="g10"><path id="path12" d="m 12,13 0,3 -2,0 0,1 2,0 0,2 -2,0 0,1 2,0 0,3 1,0 0,-3 2,0 0,3 1,0 0,-3 2,0 0,-1 -2,0 0,-2 2,0 0,-1 -2,0 0,-3 -1,0 0,3 -2,0 0,-3 z m 1,4 2,0 0,2 -2,0 z"/><path id="path14" d="m 20,22 0,1 1,0 0,-1 z"/><path id="path16" d="m 20,21 1,0 0,-8 -1,0 z"/></g></svg>