<svg xmlns="http://www.w3.org/2000/svg" xmlns:svg="http://www.w3.org/2000/svg" id="svg2" width="32" height="32" version="1.1" viewBox="0 0 32 32"><metadata id="metadata32"/><path style="fill:#dcdcdc;fill-opacity:1" id="path4-1" d="M 5.335888,2.972e-4 C 4.648414,3.121e-4 4,0.676788 4,1.3940313 L 4,30.606268 C 4,31.282757 4.687474,32 5.335888,32 l 21.327332,0 c 0.648414,0 1.335888,-0.717243 1.335888,-1.393732 L 28,8.9999998 l -9,-9 z"/><path style="fill:#000;fill-opacity:.19599998" id="path6-4" d="M 21,8.9999998 28,16 28,8.9999998 z"/><path style="fill:#fff;fill-opacity:.39200003" id="path8-6" d="m 19.000306,2.972e-4 8.991594,8.9997026 -7.613262,0 c -0.672951,0 -1.378332,-0.7134896 -1.378332,-1.3864402 z"/><rect style="fill:#888;fill-opacity:1;fill-rule:evenodd;stroke:none" id="rect3029" width="6" height="5" x="10" y="11"/><rect style="fill:#888;fill-opacity:1;fill-rule:evenodd;stroke:none" id="rect3031" width="5" height="1" x="17" y="11"/><rect style="fill:#888;fill-opacity:1;fill-rule:evenodd;stroke:none" id="rect3033" width="5" height="1" x="17" y="13"/><rect style="fill:#888;fill-opacity:1;fill-rule:evenodd;stroke:none" id="rect3035" width="5" height="1" x="17" y="15"/><rect style="fill:#888;fill-opacity:1;fill-rule:evenodd;stroke:none" id="rect3037" width="12" height="1" x="10" y="17"/><rect style="fill:#888;fill-opacity:1;fill-rule:evenodd;stroke:none" id="rect3039" width="12" height="1" x="10" y="19"/><rect style="fill:#888;fill-opacity:1;fill-rule:evenodd;stroke:none" id="rect3041" width="12" height="1" x="10" y="21"/><rect style="fill:#888;fill-opacity:1;fill-rule:evenodd;stroke:none" id="rect3043" width="12" height="1" x="10" y="23"/></svg>