<svg xmlns="http://www.w3.org/2000/svg" xmlns:svg="http://www.w3.org/2000/svg" id="svg2" width="32" height="32" version="1.1" viewBox="0 0 32 32"><metadata id="metadata10"/><path style="fill:#002b36;stroke:none;stroke-width:1px;stroke-linecap:butt;stroke-linejoin:miter;stroke-opacity:1;fill-opacity:1" id="path2989" d="M 5,5 5,27 27,27 27,8 24,5 z"/><path style="fill:#93a1a1;stroke:none;stroke-width:1px;stroke-linecap:butt;stroke-linejoin:miter;stroke-opacity:1;fill-opacity:1" id="path3759" d="m 13,5 0,6 9,0 0,-6 z"/><path style="fill:#eee8d5;stroke:none;stroke-width:1px;stroke-linecap:butt;stroke-linejoin:miter;stroke-opacity:1;fill-opacity:1" id="path3761" d="m 8,13 0,14 16,0 0,-14 z"/><path style="fill:#002b36;stroke:none;stroke-width:1px;stroke-linecap:butt;stroke-linejoin:miter;stroke-opacity:1;fill-opacity:1" id="path3763" d="m 21,6 -2,0 0,4 2,0 z"/><path style="fill:#002b36;stroke:none;stroke-width:1px;stroke-linecap:butt;stroke-linejoin:miter;stroke-opacity:1;fill-opacity:1" id="path3765" d="m 9,17 0,1 14,0 0,-1 z"/><path style="fill:#002b36;stroke:none;stroke-width:1px;stroke-linecap:butt;stroke-linejoin:miter;stroke-opacity:1;fill-opacity:1" id="path3767" d="m 9,22 0,1 14,0 0,-1 -14,0 z"/><path style="fill:#fdf6e3;stroke:none;stroke-width:1px;stroke-linecap:butt;stroke-linejoin:miter;stroke-opacity:1;fill-opacity:.24899599" id="path3769" d="m 25,27 -2,0 0,-22 1,0 1,1 z"/></svg>