<svg xmlns="http://www.w3.org/2000/svg" xmlns:svg="http://www.w3.org/2000/svg" id="svg2" width="22" height="22" version="1.1" viewBox="0 0 6.209 6.209"><metadata id="metadata17"/><path id="path4" d="m 1.1642656,0.19402711 0,0.46566681 -0.51176782,0 c -0.11641673,0 -0.19402784,0.0970145 -0.19395437,0.1940278 l -2.723e-5,5.16114838 c -4.624e-5,0.097006 0.0969676,0.1940202 0.1939816,0.194018 l 4.90361112,0 c 0.097015,2.2e-6 0.1940278,-0.097012 0.1939372,-0.1939813 L 5.750181,0.85372172 C 5.7501367,0.75670792 5.653123,0.65969392 5.5561089,0.65969392 l -0.5113145,0 0,-0.46566694 C 5.0446777,-8.2504714e-7 5.0446777,-8.2504714e-7 4.8506498,-8.2504714e-7 l -0.5044724,0 c -0.1940278,0 -0.1940278,0 -0.1940278,0.19402793504714 l 0,0.37041734 -2.0955007,0 0,-0.37041734 c 0,-0.19402793504714 0,-0.19402793504714 -0.1940279,-0.19402793504714 l -0.5044724,0 c -0.1940278,0 -0.193883,0 -0.193883,0.19402793504714 z m 0.2583003,0.0644174 0.3756378,0 0,0.77760389 c 0,0.3221459 -0.3756378,0.3221459 -0.3756378,0 z m 2.9880288,0 0.3756378,0 0,0.77760349 c 0,0.3221463 -0.3756378,0.3221463 -0.3756378,0 z m -3.56411531,1.68183309 4.51555751,0 0,3.8806472 -4.51555751,-7.37e-5 z" style="color:#000;fill:#cacaca"/><g style="font-style:normal;font-variant:normal;font-weight:400;font-stretch:normal;font-size:3.03820014px;line-height:125%;font-family:Ubuntu;-inkscape-font-specification:Ubuntu;letter-spacing:0;word-spacing:0;fill:#3798d6;fill-opacity:1;stroke:none;stroke-width:1px;stroke-linecap:butt;stroke-linejoin:miter;stroke-opacity:1" id="text4155" transform="scale(1.1417405,0.87585576)"><path style="font-style:normal;font-variant:normal;font-weight:700;font-stretch:normal;font-size:3.39523315px;font-family:'droid sans';-inkscape-font-specification:'droid sans Bold';text-align:center;letter-spacing:.02328032px;word-spacing:.02328032px;text-anchor:middle;fill:#3798d6;fill-opacity:1" id="path4142" d="m 2.1354899,5.8000417 0.8620709,-1.9893945 -1.1140609,0 0,-0.4310354 1.6710914,0 0,0.3216188 -0.8836227,2.0988111 -0.5354787,0 z"/></g></svg>