<svg xmlns="http://www.w3.org/2000/svg" xmlns:svg="http://www.w3.org/2000/svg" xmlns:xlink="http://www.w3.org/1999/xlink" id="svg2" width="22" height="22" version="1.1"><defs id="defs4"><linearGradient id="linearGradient3760"><stop style="stop-color:#000;stop-opacity:1" id="stop3762" offset="0"/><stop style="stop-color:#000;stop-opacity:0" id="stop3764" offset="1"/></linearGradient><radialGradient id="radialGradient3766" cx="11" cy="19" r="11" fx="11" fy="19" gradientTransform="matrix(1,0,0,0.09090909,0,17.272727)" gradientUnits="userSpaceOnUse" xlink:href="#linearGradient3760"/></defs><metadata id="metadata7"/><g id="layer1" transform="translate(0,-1030.3622)"><path style="opacity:.25;fill:url(#radialGradient3766);fill-opacity:1;stroke:none" id="path2990" d="m 22,19 c 0,0.552285 -4.924868,1 -11,1 -6.0751322,0 -11,-0.447715 -11,-1 0,-0.552285 4.9248678,-1 11,-1 6.075132,0 11,0.447715 11,1 z" transform="matrix(1.1818182,0,0,1,-2,1031.3622)"/><path id="path3029" d="m 0,1033.3622 0,14 22,0 0,-7 -1,-6 -8,0 -1,-2 -11,0 c -0.5,0 -1,0.5 -1,1 z" style="fill:#ef6c00;fill-opacity:1;stroke:none"/><path style="opacity:.02999998;fill:#000;fill-opacity:1;stroke:none" id="path3806" d="m 1,1032.3622 c -0.5,0 -1,0.5 -1,1 l 0,1 c 0,-0.5 0.5,-1 1,-1 l 10,0 1,2 9,0 0,6 0,-1 0,-6 -8,0 -1,-2 z"/><rect style="fill:#fffdf0;fill-opacity:1;stroke:none" id="rect3799" width="10" height="4" x="2" y="1035.362"/><path style="fill:#ffa726;fill-opacity:1;stroke:none" id="rect2987" d="m 22,1035.4289 0,14.9333 -22,0 0,-14 11,0 1,-2 9,0 c 0.5,0 1,0.5333 1,1.0667 z"/><path id="path3794" d="m 0,1049.3622 0,1 22,0 0,-1 z" style="opacity:.15;fill:#000;fill-opacity:1;stroke:none"/><path style="fill:none;stroke:none" id="path3801" d="m 11,1034.8622 -2.5,1.5 1.5,0 z"/><path style="opacity:.02999998;fill:#000;fill-opacity:1;stroke:none" id="path3033" d="m 12,1034.3622 -1,2 -11,0 0,1 12,0 1,-2 8,0 c 0.5,0 1,0.5 1,1 l 0,-1 c 0,-0.5 -0.5,-1 -1,-1 z"/><g id="g3920" transform="translate(0,-1)" style="opacity:1;fill:#b17621;fill-opacity:1"><path id="path3910" d="M 11,9 C 8.9543075,9 7.2117722,10.240478 6.4375,12 l 2.34375,0 C 9.3303238,11.391094 10.115532,11 11,11 c 1.656854,0 3,1.343146 3,3 0,1.656854 -1.343146,3 -3,3 -0.884468,0 -1.6696762,-0.391094 -2.21875,-1 L 6.4375,16 c 0.7742722,1.759522 2.5168075,3 4.5625,3 2.761424,0 5,-2.238576 5,-5 0,-2.761424 -2.238576,-5 -5,-5 z" transform="translate(0,1030.3622)" style="fill:#b17621;fill-opacity:1;stroke:none"/><path id="path3918" d="M 6,13 10,13 6,9 z" transform="translate(0,1030.3622)" style="fill:#b17621;fill-opacity:1;stroke:none"/></g></g></svg>