<svg xmlns="http://www.w3.org/2000/svg" xmlns:svg="http://www.w3.org/2000/svg" xmlns:xlink="http://www.w3.org/1999/xlink" id="svg2" width="22" height="22" version="1.1"><defs id="defs4"><linearGradient id="linearGradient3760"><stop style="stop-color:#000;stop-opacity:1" id="stop3762" offset="0"/><stop style="stop-color:#000;stop-opacity:0" id="stop3764" offset="1"/></linearGradient><radialGradient id="radialGradient3766" cx="11" cy="19" r="11" fx="11" fy="19" gradientTransform="matrix(1,0,0,0.09090909,0,17.272727)" gradientUnits="userSpaceOnUse" xlink:href="#linearGradient3760"/></defs><metadata id="metadata7"/><g id="layer1" transform="translate(0,-1030.3622)"><g id="g3787" transform="translate(0,-2)"><path id="path3773" d="m 2,1035.8622 0,7 11,0 0,-3.5 -0.5,-3 -4,0 -0.5,-1 -5.5,0 c -0.25,0 -0.5,0.25 -0.5,0.5 z" style="fill:#ef6c00;fill-opacity:1;stroke:none"/><rect style="fill:#fffdf0;fill-opacity:1;stroke:none" id="rect3775" width="4" height="2.5" x="4" y="1036.362"/><path style="opacity:.02999998;fill:#000;fill-opacity:1;stroke:none" id="path3777" d="m 2.5,1035.3622 c -0.25,0 -0.5,0.25 -0.5,0.5 l 0,1 c 0,-0.25 0.25,-0.5 0.5,-0.5 l 5.5,0 0.5,1 4,0 0.5,3 0,-1 -0.5,-3 -4,0 -0.5,-1 -5.5,0 z"/><path style="fill:#ffa726;fill-opacity:1;stroke:none" id="path3779" d="m 13,1036.8956 0,7.4666 -11,0 0,-7 5.5,0 0.5,-1 4.5,0 c 0.25,0 0.5,0.2667 0.5,0.5334 z"/><path id="path3781" d="m 2,1043.3622 0,1 11,0 0,-1 z" style="opacity:.15;fill:#000;fill-opacity:1;stroke:none"/><path style="fill:none;stroke:none" id="path3783" d="m 7.5,1036.6122 -1.25,0.75 0.75,0 z"/><path style="opacity:.02999998;fill:#000;fill-opacity:1;stroke:none" id="path3785" d="m 8,1036.3622 -0.5,1 -5.5,0 0,1 6.25,0 0.5,-1 3.75,0 c 0.25,0 0.5,0.2646 0.5,0.5313 l 0,-1 c 0,-0.2667 -0.25,-0.5313 -0.5,-0.5313 z"/></g><path id="path3029" d="m 9,1040.8622 0,7 11,0 0,-3.5 -0.5,-3 -4,0 -0.5,-1 -5.5,0 c -0.25,0 -0.5,0.25 -0.5,0.5 z" style="fill:#ef6c00;fill-opacity:1;stroke:none"/><rect style="fill:#fffdf0;fill-opacity:1;stroke:none" id="rect3799" width="4" height="2.5" x="11" y="1041.362"/><path style="opacity:.02999998;fill:#000;fill-opacity:1;stroke:none" id="path3768" d="m 9.5,1040.3622 c -0.25,0 -0.5,0.25 -0.5,0.5 l 0,1 c 0,-0.25 0.25,-0.5 0.5,-0.5 l 5.5,0 0.5,1 4,0 0.5,3 0,-1 -0.5,-3 -4,0 -0.5,-1 -5.5,0 z"/><path style="fill:#ffa726;fill-opacity:1;stroke:none" id="rect2987" d="m 20,1041.8956 0,7.4666 -11,0 0,-7 5.5,0 0.5,-1 4.5,0 c 0.25,0 0.5,0.2667 0.5,0.5334 z"/><path id="path3794" d="m 9,1048.3622 0,1 11,0 0,-1 z" style="opacity:.15;fill:#000;fill-opacity:1;stroke:none"/><path style="fill:none;stroke:none" id="path3801" d="m 14.5,1041.6122 -1.25,0.75 0.75,0 z"/><path style="opacity:.02999998;fill:#000;fill-opacity:1;stroke:none" id="path2995" d="m 15,1041.3622 -0.5,1 -5.5,0 0,1 6.25,0 0.5,-1 3.75,0 c 0.25,0 0.5,0.2646 0.5,0.5313 l 0,-1 c 0,-0.2667 -0.25,-0.5313 -0.5,-0.5313 z"/></g></svg>