<svg xmlns="http://www.w3.org/2000/svg" xmlns:svg="http://www.w3.org/2000/svg" id="svg2" width="64" height="64" version="1.1" viewBox="0 0 64 64"><metadata id="metadata16"/><defs id="defs14"><clipPath id="clip1"><path id="path4225" d="m 17,10 14,0 0,20 -14,0 m 0,-20"/></clipPath><clipPath id="clip2"><path id="path4228" d="m 41.895,19.992 c 0,10.582 -8.02,19.16 -17.895,19.16 -9.875,0 -17.891,-8.574 -17.891,-19.16 0,-10.586 8.02,-19.16 17.891,-19.16 9.879,0 17.895,8.574 17.895,19.16 m 0,0"/></clipPath></defs><path id="path4152" d="m 10.466334,0 30.066791,0 c 7.466667,0 7.466667,0 7.466667,7.200879 l 0,43.598682 c 0,7.200878 0,7.200878 -7.466667,7.200878 l -30.066791,0 c -7.4666675,0 -7.4666675,0 -7.4666675,-7.200878 l 0,-43.598682 C 2.9996665,0 2.9996665,0 10.466334,0 Z" style="fill:#fff;fill-opacity:1;fill-rule:evenodd"/><g style="fill:#888" id="g4154" transform="matrix(1.8666667,0,0,1.8002197,-30.400208,-21.605932)"><path id="path4156" d="m 22.178682,18.112318 0,3.332927 15.535603,0 0,-3.332927 z"/><path id="path4158" d="m 22.178682,34.776951 0,3.332926 7.821318,0 0,-3.332926 z"/><path id="path4160" d="m 22.178682,26.444635 0,3.332926 15.535603,0 0,-3.332926 z"/></g><path id="path4288" d="m 60.999992,26.004716 c 0,0 0.0021,-1.558719 -3.473099,-3.565094 -3.352515,-1.935575 -4.916308,-1.084583 -4.916308,-1.084583 L 34.530433,52.671 33.532,64 42.836,57.465922" style="fill:#ff6f03;fill-opacity:1;fill-rule:nonzero;stroke:none"/><path id="path4290" d="M 34.53,52.671 33.532,64 42.836,57.466" style="fill:#ffc13d;fill-opacity:1;fill-rule:nonzero;stroke:none"/><path id="path4292" d="M 33.981917,58.718376 33.532,64 37.887296,60.973147 m -3.905379,-2.254771" style="fill:#2d2d2d;fill-opacity:1;fill-rule:nonzero;stroke:none"/></svg>