<svg xmlns="http://www.w3.org/2000/svg" xmlns:svg="http://www.w3.org/2000/svg" id="svg2" width="256" height="256" version="1.1" viewBox="0 0 72.249 72.249"><metadata id="metadata17"/><path id="path4" d="m 13.547806,2.2577928 0,5.418656 -6.7750212,0 c -1.3546676,0 -2.2577784,1.12896 -2.2569236,2.2577761 L 4.5155444,69.991231 c -5.38e-4,1.1288 1.1283504,2.257696 2.2572404,2.257664 l 58.7022452,0 c 1.128896,3.2e-5 2.257776,-1.1288 2.25672,-2.257232 L 67.73335,9.9342249 C 67.732806,8.8052648 66.603914,7.6764488 65.47503,7.6764488 l -6.77198,0 0,-5.418656 C 58.701694,8.289712e-7 58.701694,8.289712e-7 56.443914,8.289712e-7 l -5.870224,0 c -2.25778,0 -2.25778,0 -2.25778,2.2577919710288 l 0,4.515552 -24.384006,0 0,-4.515552 c 0,-2.2577919710288 0,-2.2577919710288 -2.257782,-2.2577919710288 l -5.870223,0 c -2.257779,0 -2.256093,0 -2.256093,2.2577919710288 z m 3.005676,0.7496 4.371058,0 0,9.0484802 c 0,3.748608 -4.371058,3.748608 -4.371058,0 z m 34.769788,0 4.37106,0 0,9.0484802 c 0,3.748608 -4.37106,3.748608 -4.37106,0 z M 9.0300252,22.577829 l 54.1867088,0 0,45.156618 -54.1867088,-8.64e-4 z" style="color:#000;fill:#cacaca"/><g style="font-style:normal;font-variant:normal;font-weight:400;font-stretch:normal;font-size:25.71362686px;line-height:125%;font-family:Ubuntu;-inkscape-font-specification:Ubuntu;letter-spacing:0;word-spacing:0;fill:#3798d6;fill-opacity:1;stroke:none;stroke-width:1px;stroke-linecap:butt;stroke-linejoin:miter;stroke-opacity:1" id="text4155" transform="scale(1.1417405,0.87585576)"><path style="font-style:normal;font-variant:normal;font-weight:700;font-stretch:normal;font-size:39.51112366px;font-family:'droid sans';-inkscape-font-specification:'droid sans Bold';text-align:center;letter-spacing:-.45155576px;word-spacing:.9031114px;text-anchor:middle;fill:#3798d6;fill-opacity:1" id="path4142" d="m 25.982836,68.744522 -5.961395,0 0,-16.321489 q 0,-0.501607 0,-1.196138 0.01929,-0.713824 0.03859,-1.466233 0.03858,-0.771702 0.05788,-1.543403 0.03859,-0.771702 0.05788,-1.408356 -0.09646,0.115755 -0.327973,0.347266 -0.231511,0.23151 -0.520899,0.520898 -0.289388,0.270096 -0.598069,0.559484 -0.30868,0.289388 -0.598068,0.520899 l -3.241147,2.604493 -2.893881,-3.588413 9.086786,-7.234703 4.900306,0 0,28.205695 z"/><path style="font-style:normal;font-variant:normal;font-weight:700;font-stretch:normal;font-size:39.51112366px;font-family:'droid sans';-inkscape-font-specification:'droid sans Bold';text-align:center;letter-spacing:-.45155576px;word-spacing:.9031114px;text-anchor:middle;fill:#3798d6;fill-opacity:1" id="path4144" d="m 52.077816,54.641675 q 0,3.414779 -0.540191,6.096443 -0.520898,2.681663 -1.697743,4.553039 -1.157553,1.871377 -3.009637,2.855296 -1.832791,0.98392 -4.437284,0.98392 -2.450153,0 -4.263652,-0.98392 -1.813498,-0.983919 -3.009636,-2.855296 -1.196137,-1.871376 -1.794206,-4.553039 -0.578776,-2.681664 -0.578776,-6.096443 0,-3.41478 0.520898,-6.115736 0.540191,-2.700955 1.697744,-4.572332 1.157552,-1.871376 2.990344,-2.855296 1.832791,-1.003212 4.437284,-1.003212 2.43086,0 4.244359,0.98392 1.813499,0.983919 3.028929,2.855296 1.21543,1.871376 1.813499,4.572332 0.598068,2.700955 0.598068,6.135028 z m -13.389023,0 q 0,4.823135 0.829579,7.253995 0.82958,2.43086 2.874589,2.43086 2.006424,0 2.874589,-2.411567 0.887456,-2.411568 0.887456,-7.273288 0,-4.842428 -0.887456,-7.273288 -0.868165,-2.450153 -2.874589,-2.450153 -1.022505,0 -1.736329,0.617361 -0.694531,0.617362 -1.13826,1.832792 -0.443728,1.21543 -0.636653,3.048221 -0.192926,1.813499 -0.192926,4.225067 z"/></g></svg>