<svg xmlns="http://www.w3.org/2000/svg" xmlns:svg="http://www.w3.org/2000/svg" id="svg2" width="256" height="256" version="1.1" viewBox="0 0 72.249 72.249"><metadata id="metadata17"/><path id="path4" d="m 13.547806,2.2577928 0,5.418656 -6.7750212,0 c -1.3546676,0 -2.2577784,1.12896 -2.2569236,2.2577761 L 4.5155444,69.991231 c -5.38e-4,1.1288 1.1283504,2.257696 2.2572404,2.257664 l 58.7022452,0 c 1.128896,3.2e-5 2.257776,-1.1288 2.25672,-2.257232 L 67.73335,9.9342249 C 67.732806,8.8052648 66.603914,7.6764488 65.47503,7.6764488 l -6.77198,0 0,-5.418656 C 58.701694,8.289712e-7 58.701694,8.289712e-7 56.443914,8.289712e-7 l -5.870224,0 c -2.25778,0 -2.25778,0 -2.25778,2.2577919710288 l 0,4.515552 -24.384006,0 0,-4.515552 c 0,-2.2577919710288 0,-2.2577919710288 -2.257782,-2.2577919710288 l -5.870223,0 c -2.257779,0 -2.256093,0 -2.256093,2.2577919710288 z m 3.005676,0.7496 4.371058,0 0,9.0484802 c 0,3.748608 -4.371058,3.748608 -4.371058,0 z m 34.769788,0 4.37106,0 0,9.0484802 c 0,3.748608 -4.37106,3.748608 -4.37106,0 z M 9.0300252,22.577829 l 54.1867088,0 0,45.156618 -54.1867088,-8.64e-4 z" style="color:#000;fill:#cacaca"/><g style="font-style:normal;font-variant:normal;font-weight:400;font-stretch:normal;font-size:25.71362686px;line-height:125%;font-family:Ubuntu;-inkscape-font-specification:Ubuntu;letter-spacing:0;word-spacing:0;fill:#3798d6;fill-opacity:1;stroke:none;stroke-width:1px;stroke-linecap:butt;stroke-linejoin:miter;stroke-opacity:1" id="text4155" transform="scale(1.1417405,0.87585576)"><path style="font-style:normal;font-variant:normal;font-weight:700;font-stretch:normal;font-size:39.51112366px;font-family:'droid sans';-inkscape-font-specification:'droid sans Bold';text-align:center;letter-spacing:-.45155576px;word-spacing:.9031114px;text-anchor:middle;fill:#3798d6;fill-opacity:1" id="path4142" d="m 31.776331,40.172269 q 1.755621,0 3.318317,0.424436 1.562695,0.424436 2.73954,1.273308 1.176845,0.848871 1.871377,2.122179 0.694531,1.273308 0.694531,2.990344 0,1.273308 -0.38585,2.315105 -0.385851,1.022505 -1.06109,1.871376 -0.675239,0.82958 -1.601281,1.485526 -0.926042,0.655946 -2.006424,1.196138 1.118967,0.598068 2.180057,1.331185 1.080382,0.733116 1.909961,1.659158 0.82958,0.90675 1.331186,2.04501 0.501606,1.13826 0.501606,2.546615 0,1.755621 -0.694532,3.183269 -0.694531,1.427648 -1.948546,2.430861 -1.254015,1.003212 -3.009637,1.543403 -1.736328,0.540191 -3.839215,0.540191 -2.27652,0 -4.051434,-0.520899 -1.774914,-0.520898 -2.990344,-1.485525 -1.21543,-0.964627 -1.852084,-2.372983 -0.617361,-1.408355 -0.617361,-3.163977 0,-1.44694 0.424436,-2.604493 0.424436,-1.157552 1.157552,-2.083594 0.733117,-0.926042 1.717037,-1.639866 0.983919,-0.713824 2.102886,-1.254015 -0.945334,-0.598069 -1.774913,-1.2926 -0.82958,-0.713824 -1.446941,-1.562696 -0.598069,-0.868164 -0.964627,-1.909962 -0.347266,-1.041797 -0.347266,-2.295812 0,-1.678451 0.694532,-2.932466 0.713824,-1.273308 1.909961,-2.12218 1.196138,-0.868164 2.758834,-1.2926 1.562696,-0.424436 3.279732,-0.424436 z m -3.993556,21.067455 q 0,0.771701 0.250803,1.427648 0.250803,0.636654 0.733116,1.099675 0.501606,0.463021 1.234723,0.733116 0.733116,0.250803 1.697743,0.250803 2.025717,0 3.028929,-0.945334 1.003213,-0.964627 1.003213,-2.527323 0,-0.810287 -0.347266,-1.446941 -0.327973,-0.655946 -0.868165,-1.196137 -0.520898,-0.559484 -1.196137,-1.022505 -0.675239,-0.463021 -1.350478,-0.887457 L 31.54482,56.455174 q -0.848872,0.424435 -1.543403,0.926042 -0.694532,0.482313 -1.196138,1.080382 -0.482313,0.578776 -0.752409,1.273308 -0.270095,0.694531 -0.270095,1.504818 z m 3.954971,-16.707341 q -0.636654,0 -1.196138,0.192926 -0.540191,0.192925 -0.945334,0.559483 -0.385851,0.366559 -0.617362,0.90675 -0.23151,0.540191 -0.23151,1.21543 0,0.810287 0.23151,1.408355 0.250803,0.578777 0.655947,1.041798 0.424436,0.443728 0.964627,0.810286 0.559483,0.347266 1.176845,0.694532 0.598068,-0.308681 1.13826,-0.675239 0.540191,-0.366558 0.945334,-0.829579 0.424436,-0.482314 0.675239,-1.080383 0.250803,-0.598068 0.250803,-1.36977 0,-0.675239 -0.23151,-1.21543 -0.231511,-0.540191 -0.636654,-0.90675 -0.405144,-0.366558 -0.964627,-0.559483 -0.559484,-0.192926 -1.21543,-0.192926 z"/></g></svg>