<svg xmlns="http://www.w3.org/2000/svg" xmlns:svg="http://www.w3.org/2000/svg" xmlns:xlink="http://www.w3.org/1999/xlink" id="svg2" width="256" height="256" version="1.1"><defs id="defs4"><linearGradient id="linearGradient3810"><stop style="stop-color:#000;stop-opacity:1" id="stop3812" offset="0"/><stop style="stop-color:#000;stop-opacity:0" id="stop3814" offset="1"/></linearGradient><radialGradient id="radialGradient3815" cx="-9" cy="93.5" r="15" fx="-9" fy="93.5" gradientTransform="matrix(1,0,0,0.36666667,0,59.216667)" gradientUnits="userSpaceOnUse" xlink:href="#linearGradient3809"/><radialGradient id="radialGradient3964" cx="32.5" cy="56.5" r="33.5" fx="32.5" fy="56.5" gradientTransform="matrix(1,0,0,0.10447761,0,50.597015)" gradientUnits="userSpaceOnUse" xlink:href="#linearGradient3958"/><linearGradient id="linearGradient3958"><stop style="stop-color:#000;stop-opacity:1" id="stop3960" offset="0"/><stop style="stop-color:#000;stop-opacity:0" id="stop3962" offset="1"/></linearGradient><radialGradient id="radialGradient3981" cx="32.5" cy="56.5" r="33.5" fx="32.5" fy="56.5" gradientTransform="matrix(1,0,0,0.10447761,0,50.597015)" gradientUnits="userSpaceOnUse" xlink:href="#linearGradient3958"/><linearGradient id="linearGradient3809"><stop id="stop3811" offset="0" style="stop-color:#000;stop-opacity:1"/><stop id="stop3813" offset="1" style="stop-color:#000;stop-opacity:0"/></linearGradient><radialGradient id="radialGradient3816" cx="-25" cy="203.5" r="35" fx="-25" fy="203.5" gradientTransform="matrix(1,0,0,0.78571429,0,43.607143)" gradientUnits="userSpaceOnUse" xlink:href="#linearGradient3810"/><radialGradient id="radialGradient3964-3" cx="32.5" cy="56.5" r="33.5" fx="32.5" fy="56.5" gradientTransform="matrix(1,0,0,0.10447761,0,50.597015)" gradientUnits="userSpaceOnUse" xlink:href="#linearGradient3958-1"/><linearGradient id="linearGradient3958-1"><stop style="stop-color:#000;stop-opacity:1" id="stop3960-9" offset="0"/><stop style="stop-color:#000;stop-opacity:0" id="stop3962-9" offset="1"/></linearGradient><radialGradient id="radialGradient3981-1" cx="32.5" cy="56.5" r="33.5" fx="32.5" fy="56.5" gradientTransform="matrix(1,0,0,0.10447761,0,50.597015)" gradientUnits="userSpaceOnUse" xlink:href="#linearGradient3958-1"/><radialGradient id="radialGradient3815-2" cx="-9" cy="93.5" r="15" fx="-9" fy="93.5" gradientTransform="matrix(1,0,0,0.36666667,0,59.216667)" gradientUnits="userSpaceOnUse" xlink:href="#linearGradient3809-4"/><radialGradient id="radialGradient3964-5" cx="32.5" cy="56.5" r="33.5" fx="32.5" fy="56.5" gradientTransform="matrix(1,0,0,0.10447761,0,50.597015)" gradientUnits="userSpaceOnUse" xlink:href="#linearGradient3958-0"/><linearGradient id="linearGradient3958-0"><stop style="stop-color:#000;stop-opacity:1" id="stop3960-0" offset="0"/><stop style="stop-color:#000;stop-opacity:0" id="stop3962-2" offset="1"/></linearGradient><radialGradient id="radialGradient3981-2" cx="32.5" cy="56.5" r="33.5" fx="32.5" fy="56.5" gradientTransform="matrix(1,0,0,0.10447761,0,50.597015)" gradientUnits="userSpaceOnUse" xlink:href="#linearGradient3958-0"/><linearGradient id="linearGradient3809-4"><stop id="stop3811-9" offset="0" style="stop-color:#000;stop-opacity:1"/><stop id="stop3813-5" offset="1" style="stop-color:#000;stop-opacity:0"/></linearGradient><radialGradient id="radialGradient3964-3-6" cx="32.5" cy="56.5" r="33.5" fx="32.5" fy="56.5" gradientTransform="matrix(1,0,0,0.10447761,0,50.597015)" gradientUnits="userSpaceOnUse" xlink:href="#linearGradient3958-1-5"/><linearGradient id="linearGradient3958-1-5"><stop style="stop-color:#000;stop-opacity:1" id="stop3960-9-7" offset="0"/><stop style="stop-color:#000;stop-opacity:0" id="stop3962-9-1" offset="1"/></linearGradient><radialGradient id="radialGradient3964-53" cx="32.5" cy="56.5" r="33.5" fx="32.5" fy="56.5" gradientTransform="matrix(1,0,0,0.10447761,0,50.597015)" gradientUnits="userSpaceOnUse" xlink:href="#linearGradient3958-8"/><linearGradient id="linearGradient3958-8"><stop style="stop-color:#000;stop-opacity:1" id="stop3960-1" offset="0"/><stop style="stop-color:#000;stop-opacity:0" id="stop3962-4" offset="1"/></linearGradient><radialGradient id="radialGradient3964-3-5" cx="32.5" cy="56.5" r="33.5" fx="32.5" fy="56.5" gradientTransform="matrix(1,0,0,0.10447761,0,50.597015)" gradientUnits="userSpaceOnUse" xlink:href="#linearGradient3958-1-6"/><linearGradient id="linearGradient3958-1-6"><stop style="stop-color:#000;stop-opacity:1" id="stop3960-9-3" offset="0"/><stop style="stop-color:#000;stop-opacity:0" id="stop3962-9-8" offset="1"/></linearGradient><radialGradient id="radialGradient3964-0" cx="32.5" cy="56.5" r="33.5" fx="32.5" fy="56.5" gradientTransform="matrix(1,0,0,0.10447761,0,50.597015)" gradientUnits="userSpaceOnUse" xlink:href="#linearGradient3958-80"/><linearGradient id="linearGradient3958-80"><stop style="stop-color:#000;stop-opacity:1" id="stop3960-99" offset="0"/><stop style="stop-color:#000;stop-opacity:0" id="stop3962-43" offset="1"/></linearGradient><radialGradient id="radialGradient3964-3-68" cx="32.5" cy="56.5" r="33.5" fx="32.5" fy="56.5" gradientTransform="matrix(1,0,0,0.10447761,0,50.597015)" gradientUnits="userSpaceOnUse" xlink:href="#linearGradient3958-1-1"/><linearGradient id="linearGradient3958-1-1"><stop style="stop-color:#000;stop-opacity:1" id="stop3960-9-0" offset="0"/><stop style="stop-color:#000;stop-opacity:0" id="stop3962-9-0" offset="1"/></linearGradient><radialGradient id="radialGradient3964-4" cx="32.5" cy="56.5" r="33.5" fx="32.5" fy="56.5" gradientTransform="matrix(1,0,0,0.10447761,0,50.597015)" gradientUnits="userSpaceOnUse" xlink:href="#linearGradient3958-4"/><linearGradient id="linearGradient3958-4"><stop style="stop-color:#000;stop-opacity:1" id="stop3960-6" offset="0"/><stop style="stop-color:#000;stop-opacity:0" id="stop3962-5" offset="1"/></linearGradient><radialGradient id="radialGradient3964-3-1" cx="32.5" cy="56.5" r="33.5" fx="32.5" fy="56.5" gradientTransform="matrix(1,0,0,0.10447761,0,50.597015)" gradientUnits="userSpaceOnUse" xlink:href="#linearGradient3958-1-56"/><linearGradient id="linearGradient3958-1-56"><stop style="stop-color:#000;stop-opacity:1" id="stop3960-9-6" offset="0"/><stop style="stop-color:#000;stop-opacity:0" id="stop3962-9-3" offset="1"/></linearGradient><radialGradient id="radialGradient3815-7" cx="-9" cy="93.5" r="15" fx="-9" fy="93.5" gradientTransform="matrix(1,0,0,0.36666667,0,59.216667)" gradientUnits="userSpaceOnUse" xlink:href="#linearGradient3809-6"/><radialGradient id="radialGradient3964-6" cx="32.5" cy="56.5" r="33.5" fx="32.5" fy="56.5" gradientTransform="matrix(1,0,0,0.10447761,0,50.597015)" gradientUnits="userSpaceOnUse" xlink:href="#linearGradient3958-44"/><linearGradient id="linearGradient3958-44"><stop style="stop-color:#000;stop-opacity:1" id="stop3960-8" offset="0"/><stop style="stop-color:#000;stop-opacity:0" id="stop3962-1" offset="1"/></linearGradient><linearGradient id="linearGradient3809-6"><stop id="stop3811-7" offset="0" style="stop-color:#000;stop-opacity:1"/><stop id="stop3813-1" offset="1" style="stop-color:#000;stop-opacity:0"/></linearGradient></defs><metadata id="metadata7"/><g id="layer1" transform="translate(0,-796.3622)"><path style="opacity:.55;fill:url(#radialGradient3816);fill-opacity:1;stroke:none" id="path3039" d="m 10,203.5 a 35,27.5 0 1 1 -70,0 35,27.5 0 1 1 70,0 z" transform="matrix(5.0857143,0,0,1.0909091,255.14286,788.3622)"/><path id="path3029" d="m 0,832.59752 0,171.29388 256,0 0,-85.6468 -12.19048,-73.412 L 148,844.3622 l -12,-24 -123.809524,0 C 6.09524,820.3622 0,826.47984 0,832.59752 z" style="fill:#ef6c00;fill-opacity:1;stroke:none"/><rect style="fill:#fffdf0;fill-opacity:1;stroke:none" id="rect3799" width="126.286" height="47.529" x="20" y="852.362"/><path style="opacity:.02999998;fill:#000;fill-opacity:1;stroke:none" id="path3790" d="m 12.25,820.3622 c -6.095236,0 -12.25,6.13232 -12.25,12.25 l 0,8 c 0,-6.11768 6.154764,-12.25 12.25,-12.25 l 119.75,0 12,24 99.75,0.5 12.25,73.3752 0,-8 -12.25,-73.3752 -95.75,-0.5 -12,-24 z"/><path style="fill:#ffa726;fill-opacity:1;stroke:none" id="rect2987" d="m 256,857.0682 0,171.294 -256,0 0,-160 120,0 12,-24 111.80952,0.4704 c 6.09524,0 12.19048,6.118 12.19048,12.2356 z"/><path id="path3794" d="m 0,1020.3622 0,8 256,0 0,-8 z" style="opacity:.15;fill:#000;fill-opacity:1;stroke:none"/><path style="opacity:.02999998;fill:#000;fill-opacity:1;stroke:none" id="path3015" d="m 132,844.3622 -12,24 -120,0 0,8 124,0 12,-24 107.75,0.5 c 6.09524,0 12.25,6.1324 12.25,12.25 l 0,-8 c 0,-6.1176 -6.15476,-12.25 -12.25,-12.25 z"/><g id="g3956" transform="matrix(8,0,0,8,243.37012,-7319.4514)" style="opacity:1"><g id="g8" transform="translate(-22.421265,1025.4767)" style="fill:#b17621;fill-opacity:1"><g id="g10" transform="translate(0,-1036.3622)" style="fill:#b17621;fill-opacity:1;fill-rule:evenodd"><path style="fill:#b17621;fill-opacity:1" id="path14" d="m 1,1046.3622 4,-5 3.2817389,3.6779 2.2182611,-2.1779 4.5,6.5 -3,2 -9,0 z"/></g></g><path id="rect3007-9" d="m -19.421265,1026.4767 c -1.108,0 -2,0.892 -2,2 l 0,10 c 0,1.108 0.892,2 2,2 l 10,0 c 1.108,0 2,-0.892 2,-2 l 0,-10 c 0,-1.108 -0.892,-2 -2,-2 z m 0,2 10,0 0,10 -10,0 z" style="fill:#b17621;fill-opacity:1"/></g></g></svg>