<svg xmlns="http://www.w3.org/2000/svg" xmlns:svg="http://www.w3.org/2000/svg" xmlns:xlink="http://www.w3.org/1999/xlink" id="svg2" width="256" height="256" version="1.1" viewBox="0 0 256 256"><metadata id="metadata20"/><defs id="defs18"><radialGradient id="radialGradient3295" cx="33" cy="59" r="27" fx="33" fy="59" gradientTransform="matrix(1,0,0,0.18518519,0,48.074074)" gradientUnits="userSpaceOnUse" xlink:href="#linearGradient3892"/><linearGradient id="linearGradient3892"><stop style="stop-color:#000;stop-opacity:1" id="stop3894" offset="0"/><stop style="stop-color:#000;stop-opacity:0" id="stop3896" offset="1"/></linearGradient><linearGradient id="linearGradient3862" x1="22" x2="20" y1="15" y2="30" gradientUnits="userSpaceOnUse" xlink:href="#linearGradient3855"/><linearGradient id="linearGradient3839" x1="21" x2="20" y1="14" y2="26" gradientUnits="userSpaceOnUse" xlink:href="#linearGradient3833"/><linearGradient id="linearGradient3829" x1="21" x2="20" y1="14" y2="24" gradientUnits="userSpaceOnUse" xlink:href="#linearGradient3823"/><linearGradient id="linearGradient3954" x1="35" x2="44" y1="11" y2="5" gradientTransform="translate(22,1004.3622)" gradientUnits="userSpaceOnUse" xlink:href="#linearGradient3915"/><linearGradient id="linearGradient3933" x1="35" x2="38" y1="8" y2="5" gradientTransform="matrix(1.0436562,0,0,1.2222222,26.301501,1003.2511)" gradientUnits="userSpaceOnUse" xlink:href="#linearGradient3915"/><linearGradient id="linearGradient3921" x1="35" x2="38" y1="8" y2="5" gradientUnits="userSpaceOnUse" xlink:href="#linearGradient3915"/><linearGradient id="linearGradient3867" x1="1.995" x2="46.005" y1="28.563" y2="28.563" gradientUnits="userSpaceOnUse" xlink:href="#linearGradient3861"/><linearGradient id="linearGradient3858" x1="24" x2="24" y1="1046.362" y2="1014.362" gradientTransform="translate(0,-1004.3622)" gradientUnits="userSpaceOnUse" xlink:href="#linearGradient3810"/><linearGradient id="linearGradient3856" x1="24" x2="24" y1="1046.362" y2="1014.362" gradientTransform="translate(0,-3)" gradientUnits="userSpaceOnUse" xlink:href="#linearGradient3810"/><linearGradient id="linearGradient3816" x1="24" x2="24" y1="1046.362" y2="1014.362" gradientUnits="userSpaceOnUse" xlink:href="#linearGradient3810"/><linearGradient id="linearGradient3810"><stop id="stop3812" offset="0" style="stop-color:#f2c66f;stop-opacity:1"/><stop id="stop3814" offset="1" style="stop-color:#fbd68f;stop-opacity:1"/></linearGradient><linearGradient id="linearGradient3844"><stop id="stop3846" offset="0" style="stop-color:#000;stop-opacity:.39215687"/><stop id="stop3848" offset="1" style="stop-color:#000;stop-opacity:0"/></linearGradient><linearGradient id="linearGradient3861"><stop id="stop3863" offset="0" style="stop-color:#000;stop-opacity:1"/><stop id="stop3865" offset="1" style="stop-color:#000;stop-opacity:0"/></linearGradient><linearGradient id="linearGradient3915"><stop id="stop3917" offset="0" style="stop-color:#f8f4e1;stop-opacity:1"/><stop id="stop3919" offset="1" style="stop-color:#ad9e57;stop-opacity:1"/></linearGradient><linearGradient id="linearGradient3956"><stop id="stop3958" offset="0" style="stop-color:#f8f4e1;stop-opacity:1"/><stop id="stop3960" offset="1" style="stop-color:#eae5c8;stop-opacity:1"/></linearGradient><linearGradient id="linearGradient3823"><stop id="stop3825" offset="0" style="stop-color:#49b7ef;stop-opacity:1"/><stop id="stop3827" offset="1" style="stop-color:#1d8de2;stop-opacity:1"/></linearGradient><linearGradient id="linearGradient3833"><stop style="stop-color:#fdfeff;stop-opacity:1" id="stop3835" offset="0"/><stop style="stop-color:#dfe4e4;stop-opacity:1" id="stop3837" offset="1"/></linearGradient><linearGradient id="linearGradient3855"><stop id="stop3857" offset="0" style="stop-color:#000;stop-opacity:1"/><stop id="stop3859" offset="1" style="stop-color:#000;stop-opacity:.29411766"/></linearGradient><radialGradient id="radialGradient3898" cx="33" cy="59" r="27" fx="33" fy="59" gradientTransform="matrix(1,0,0,0.18518519,0,48.074074)" gradientUnits="userSpaceOnUse" xlink:href="#linearGradient3892"/><radialGradient id="radialGradient3106" cx="33" cy="59" r="27" fx="33" fy="59" gradientTransform="matrix(1,0,0,0.18518519,0,48.074074)" gradientUnits="userSpaceOnUse" xlink:href="#linearGradient3892"/></defs><path style="opacity:.5;fill:url(#radialGradient3106);fill-opacity:1;stroke:none" id="path3114" d="M 60,59 A 27,5 0 1 1 6,59 27,5 0 1 1 60,59 z" transform="matrix(4.0740741,0,0,4.3999999,-6.4444446,-21.599994)"/><path id="path3801" d="m 134.11771,59.891761 -30.58825,19.459499 18.35297,0 z" style="fill:none;stroke:none"/><rect id="rect3054" width="160" height="196" x="48" y="52" rx="6" ry="6" style="fill:#8f98a8;fill-opacity:1;stroke:none"/><path style="fill:#8f98a8;fill-opacity:1;stroke:none" id="path3861" d="m 96.000056,8.0000038 c -6.11764,0 -12.000019,6.4862992 -12.000019,12.9727992 l 0,35.027238 1.176479,11.891739 12.2353,0 6.588244,-12.972979 0,-20.972999 c 0,-6.486499 5.64708,-13.945779 11.76474,-13.945779 l 24.47057,0 c 6.11768,0 11.76472,7.45928 11.76472,13.945779 l 0,20.972999 0,12.972979 18.82354,0 1.17648,-11.891739 0,-36.000018 c 0,-6.486499 -5.88236,-12.0000192 -12.00002,-12.0000192 z"/><path id="path3824" d="M 24,80.00006 C 24,67.20004 36.23528,48.000042 42.35294,48.000042 l 171.29427,0 c 6.11766,0 18.35294,19.199998 18.35294,32.000018 z" style="fill:#b0b6c5;fill-opacity:1;stroke:none"/><rect id="rect3826" width="24" height="128" x="72" y="100" rx="6" ry="6" style="fill:#687385;fill-opacity:1;stroke:none"/><rect style="fill:#687385;fill-opacity:1;stroke:none" id="rect3110" width="24" height="128" x="116" y="100" rx="6" ry="6"/><rect id="rect3112" width="24" height="128" x="160" y="100" rx="6" ry="6" style="fill:#687385;fill-opacity:1;stroke:none"/><rect id="rect3863" width="160" height="32" x="48" y="80" style="opacity:.1;fill:#000;fill-opacity:1;stroke:none"/></svg>