<svg xmlns="http://www.w3.org/2000/svg" xmlns:svg="http://www.w3.org/2000/svg" id="svg2" width="16" height="16" version="1.1" viewBox="0 0 4.516 4.516"><metadata id="metadata17"/><path id="path4" d="m 0.84677197,0.141111 0,0.33866671 -0.42343871,0 c -0.0846667,2e-8 -0.14111113,0.0705556 -0.1410577,0.14111113 l -1.98e-5,3.75356166 c -3.363e-5,0.07055 0.0705219,0.1411056 0.1410775,0.141104 l 3.66888944,0 c 0.070556,1.6e-6 0.1411111,-0.070554 0.1410452,-0.1410773 L 4.233366,0.62088884 C 4.2333338,0.55033329 4.1627782,0.47977773 4.0922227,0.47977771 l -0.4232485,0 0,-0.33866674 C 3.6688893,-1.3457406e-7 3.6688893,-1.3457406e-7 3.5277781,-1.3457406e-7 l -0.3668889,0 c -0.1411111,0 -0.1411111,0 -0.1411111,0.14111113457406 l 0,0.28222226 -1.5240002,0 0,-0.28222226 c 0,-0.14111113457406 0,-0.14111113457406 -0.1411112,-0.14111113457406 l -0.36688892,0 c -0.14111113,0 -0.14100581,0 -0.14100581,0.14111113457406 z m 0.18785473,0.0468489 0.2731911,0 0,0.56553 c 0,0.23428788 -0.2731911,0.23428788 -0.2731911,0 z m 2.1731114,-1e-8 0.2731911,0 0,0.5655297 c 0,0.23428819 -0.2731911,0.23428819 -0.2731911,0 z M 0.56441076,1.411111 l 3.38666864,0 0,2.8222883 -3.38666864,-5.36e-5 z" style="color:#000;fill:#cacaca"/><g style="font-style:normal;font-variant:normal;font-weight:400;font-stretch:normal;font-size:1.60710132px;line-height:125%;font-family:Ubuntu;-inkscape-font-specification:Ubuntu;letter-spacing:0;word-spacing:0;fill:#3798d6;fill-opacity:1;stroke:none;stroke-width:1px;stroke-linecap:butt;stroke-linejoin:miter;stroke-opacity:1" id="text4155" transform="scale(1.1417405,0.87585576)"><path style="font-style:normal;font-variant:normal;font-weight:700;font-stretch:normal;font-size:2.46944475px;font-family:'droid sans';-inkscape-font-specification:'droid sans Bold';text-align:center;letter-spacing:-.02822223px;word-spacing:.05644445px;text-anchor:middle;fill:#3798d6;fill-opacity:1" id="path4142" d="m 1.9860503,2.5107657 q 0.1097264,0 0.2073948,0.026527 0.097669,0.026527 0.1712213,0.079582 0.073553,0.053055 0.116961,0.1326362 0.043408,0.079582 0.043408,0.1868964 0,0.079582 -0.024116,0.1446941 -0.024116,0.063906 -0.066318,0.116961 -0.042202,0.051849 -0.10008,0.092845 -0.057878,0.040997 -0.1254015,0.074759 0.069936,0.037379 0.1362536,0.083199 0.067524,0.04582 0.1193725,0.1036973 0.051849,0.056672 0.083199,0.1278131 0.03135,0.071141 0.03135,0.1591634 0,0.1097263 -0.043408,0.1989543 -0.043408,0.089228 -0.1217842,0.1519287 -0.078376,0.062701 -0.1881022,0.096463 -0.1085205,0.033762 -0.239951,0.033762 -0.1422824,0 -0.2532145,-0.032556 Q 1.6219037,4.2555346 1.5459393,4.1952454 1.469975,4.1349562 1.4301841,4.046934 1.391599,3.9589118 1.391599,3.8491855 q 0,-0.090434 0.026527,-0.1627808 0.026527,-0.072347 0.072347,-0.1302246 0.04582,-0.057878 0.1073147,-0.1024916 0.061495,-0.044614 0.1314304,-0.078376 -0.059083,-0.037379 -0.110932,-0.080788 -0.051849,-0.044614 -0.090434,-0.097669 -0.037379,-0.05426 -0.060289,-0.1193726 -0.021704,-0.065112 -0.021704,-0.1434882 0,-0.1049032 0.043408,-0.1832791 0.044614,-0.079582 0.1193726,-0.1326362 0.074759,-0.05426 0.172427,-0.080788 0.097668,-0.026527 0.2049832,-0.026527 z M 1.7364531,3.8274814 q 0,0.048231 0.015675,0.089228 0.015675,0.039791 0.04582,0.06873 0.03135,0.028939 0.07717,0.04582 0.04582,0.015675 0.1061089,0.015675 0.1266073,0 0.189308,-0.059083 0.062701,-0.060289 0.062701,-0.1579576 0,-0.050643 -0.021704,-0.090434 -0.020498,-0.040997 -0.05426,-0.074759 -0.032556,-0.034968 -0.074759,-0.063907 -0.042202,-0.028939 -0.084405,-0.055466 l -0.026527,-0.016881 q -0.053054,0.026527 -0.096463,0.057878 -0.043408,0.030145 -0.074759,0.067524 -0.030145,0.036174 -0.047026,0.079582 -0.016881,0.043408 -0.016881,0.094051 z M 1.9836388,2.7832728 q -0.039791,0 -0.074759,0.012058 -0.033762,0.012058 -0.059083,0.034968 -0.024116,0.02291 -0.038585,0.056672 -0.014469,0.033762 -0.014469,0.075964 0,0.050643 0.014469,0.088022 0.015675,0.036174 0.040997,0.065112 0.026527,0.027733 0.060289,0.050643 0.034968,0.021704 0.073553,0.043408 0.037379,-0.019293 0.071141,-0.042202 0.033762,-0.02291 0.059083,-0.051849 0.026527,-0.030145 0.042202,-0.067524 0.015675,-0.037379 0.015675,-0.085611 0,-0.042203 -0.014469,-0.075964 -0.014469,-0.033762 -0.039791,-0.056672 -0.025321,-0.02291 -0.060289,-0.034968 -0.034968,-0.012058 -0.075964,-0.012058 z"/></g></svg>