<svg xmlns="http://www.w3.org/2000/svg" xmlns:svg="http://www.w3.org/2000/svg" id="svg2" width="16" height="16" version="1.1" viewBox="0 0 4.516 4.516"><metadata id="metadata17"/><path id="path4" d="m 0.84677197,0.141111 0,0.33866671 -0.42343871,0 c -0.0846667,2e-8 -0.14111113,0.0705556 -0.1410577,0.14111113 l -1.98e-5,3.75356166 c -3.363e-5,0.07055 0.0705219,0.1411056 0.1410775,0.141104 l 3.66888944,0 c 0.070556,1.6e-6 0.1411111,-0.070554 0.1410452,-0.1410773 L 4.233366,0.62088884 C 4.2333338,0.55033329 4.1627782,0.47977773 4.0922227,0.47977771 l -0.4232485,0 0,-0.33866674 C 3.6688893,-1.3457406e-7 3.6688893,-1.3457406e-7 3.5277781,-1.3457406e-7 l -0.3668889,0 c -0.1411111,0 -0.1411111,0 -0.1411111,0.14111113457406 l 0,0.28222226 -1.5240002,0 0,-0.28222226 c 0,-0.14111113457406 0,-0.14111113457406 -0.1411112,-0.14111113457406 l -0.36688892,0 c -0.14111113,0 -0.14100581,0 -0.14100581,0.14111113457406 z m 0.18785473,0.0468489 0.2731911,0 0,0.56553 c 0,0.23428788 -0.2731911,0.23428788 -0.2731911,0 z m 2.1731114,-1e-8 0.2731911,0 0,0.5655297 c 0,0.23428819 -0.2731911,0.23428819 -0.2731911,0 z M 0.56441076,1.411111 l 3.38666864,0 0,2.8222883 -3.38666864,-5.36e-5 z" style="color:#000;fill:#cacaca"/><g style="font-style:normal;font-variant:normal;font-weight:400;font-stretch:normal;font-size:1.60710132px;line-height:125%;font-family:Ubuntu;-inkscape-font-specification:Ubuntu;letter-spacing:0;word-spacing:0;fill:#3798d6;fill-opacity:1;stroke:none;stroke-width:1px;stroke-linecap:butt;stroke-linejoin:miter;stroke-opacity:1" id="text4155" transform="scale(1.1417405,0.87585576)"><path style="font-style:normal;font-variant:normal;font-weight:700;font-stretch:normal;font-size:2.46944475px;font-family:'droid sans';-inkscape-font-specification:'droid sans Bold';text-align:center;letter-spacing:-.02822223px;word-spacing:.05644445px;text-anchor:middle;fill:#3798d6;fill-opacity:1" id="path4142" d="m 2.2899078,4.2965312 -0.3725871,0 0,-1.0200929 q 0,-0.03135 0,-0.074759 0.00121,-0.044614 0.00241,-0.09164 0.00241,-0.048231 0.00362,-0.096463 0.00241,-0.048231 0.00362,-0.088022 -0.00603,0.00723 -0.020498,0.021704 -0.014469,0.014469 -0.032556,0.032556 -0.018087,0.016881 -0.037379,0.034968 -0.019293,0.018087 -0.037379,0.032556 L 1.5965823,3.2101202 1.4157147,2.9858445 1.9836388,2.5336756 l 0.306269,0 0,1.7628556 z"/></g></svg>