<svg xmlns="http://www.w3.org/2000/svg" xmlns:svg="http://www.w3.org/2000/svg" id="svg2" width="24" height="24" version="1.1" viewBox="0 0 24 24"><metadata id="metadata10"/><path style="fill:#78cf72" id="path4" d="M 6.039063,3.9994685 C 4.910156,3.9994685 4,4.9096245 4,6.0385315 L 4,17.957031 C 4,19.085938 4.910156,20 6.039063,20 l 11.918452,0 c 1.128907,0 2.042969,-0.914062 2.042969,-2.042969 l 0,-11.9184995 c 0,-1.128907 -0.914062,-2.039063 -2.042969,-2.039063 z M 11,7 l 2,0 0,2 -2,0 z m -1,3 3,0 0,6 2,0 0,1 -6,0 0,-1 2,0 0,-5 -1,0 z"/></svg>