<svg xmlns="http://www.w3.org/2000/svg" xmlns:svg="http://www.w3.org/2000/svg" id="svg2" width="48" height="48" version="1.1" viewBox="0 0 48 48"><metadata id="metadata22"/><path style="fill:#dcdcdc" id="path4" d="M 8,1 C 6.9714285,1 6,1.9714285 6,3 l 0,42 c 0,0.971429 1.0285714,2 2,2 l 32,0 c 0.971429,0 2,-1.028571 2,-2 L 42,14 29,1 z"/><path style="fill-opacity:.196" id="path6" d="M 29,12 29.0625,12.0625 29.21875,12 29,12 z m 2,2 11,11 0,-11 -11,0 z"/><path style="fill:#fff;fill-opacity:.392" id="path8" d="m 29,1 13,13 -11,0 c -0.971429,0 -2,-1.028571 -2,-2 L 29,1 z"/><g id="g10" transform="translate(3)"><path style="fill:#888" id="path12" d="m 15,21 -6,6 c 0,1 0,1 0,2 l 6,6 0,-4 -3,-3 3,-3 z"/><path style="fill:#888" id="path14" d="m 27,21 6,6 c 0,1 0,1 0,2 l -6,6 0,-4 3,-3 -3,-3 z"/><path style="fill:#888" id="path16" d="m 23,21 2,0 -4,14 -2,0 z"/></g></svg>