<svg xmlns="http://www.w3.org/2000/svg" xmlns:svg="http://www.w3.org/2000/svg" id="svg2" width="48" height="48" version="1.1" viewBox="0 0 48 48"><metadata id="metadata34"/><path style="fill:#dcdcdc" id="path4" d="M 8,1 C 6.9714285,1 6,1.9714285 6,3 l 0,42 c 0,0.971429 1.0285714,2 2,2 l 32,0 c 0.971429,0 2,-1.028571 2,-2 L 42,14 29,1 z"/><path style="fill-opacity:.196" id="path6" d="M 29,12 29.0625,12.0625 29.21875,12 29,12 z m 2,2 11,11 0,-11 -11,0 z"/><path style="fill:#fff;fill-opacity:.392" id="path8" d="m 29,1 13,13 -11,0 c -0.971429,0 -2,-1.028571 -2,-2 L 29,1 z"/><g id="g10" transform="translate(-1,0)"><rect style="fill:#888" id="rect12" width="8" height="7" x="16" y="17" rx=".579" ry=".601"/></g><path style="fill:#555;stroke:#888;stroke-linecap:round;stroke-linejoin:round;stroke-dashoffset:.774" id="path16" d="m 25.5,17.5 6,0"/><path style="fill:#555;stroke:#888;stroke-linecap:round;stroke-linejoin:round;stroke-dashoffset:.774" id="path22" d="m 15.5,26.5 16,0"/><path style="fill:#555;stroke:#888;stroke-linecap:round;stroke-linejoin:round;stroke-dashoffset:.774" id="path24" d="m 15.5,29.5 16,0"/><path style="fill:#555;stroke:#888;stroke-linecap:round;stroke-linejoin:round;stroke-dashoffset:.774" id="path26" d="m 15.5,32.5 16,0"/><path style="fill:#555;stroke:#888;stroke-linecap:round;stroke-linejoin:round;stroke-dashoffset:.774" id="path28" d="m 15.5,35.5 16,0"/><path style="fill:#555;stroke:#888;stroke-linecap:round;stroke-linejoin:round;stroke-dashoffset:.774" id="path16-1" d="m 25.5,20.5 6,0"/><path style="fill:#555;stroke:#888;stroke-linecap:round;stroke-linejoin:round;stroke-dashoffset:.774" id="path16-1-8" d="m 25.5,23.5 6,0"/></svg>