<svg xmlns="http://www.w3.org/2000/svg" xmlns:xlink="http://www.w3.org/1999/xlink" width="256" height="256" version="1.1" viewBox="0 0 256 256"><g id="surface1"><path style="stroke:none;fill-rule:nonzero;fill:#dcdcdc;fill-opacity:1" d="M 42.6875 0 C 37.1875 0 32 5.421875 32 11.15625 L 32 244.84375 C 32 250.265625 37.5 256 42.6875 256 L 213.3125 256 C 218.5 256 224 250.265625 224 244.84375 L 224 72 L 152 0 Z M 42.6875 0"/><path style="stroke:none;fill-rule:nonzero;fill:#000;fill-opacity:.196078" d="M 168 72 L 224 128 L 224 72 Z M 168 72"/><path style="stroke:none;fill-rule:nonzero;fill:#fff;fill-opacity:.392157" d="M 152 0 L 223.9375 72 L 163.03125 72 C 157.640625 72 152 66.296875 152 60.90625 Z M 152 0"/><path style="stroke:none;fill-rule:nonzero;fill:#888;fill-opacity:1" d="M 96 104 L 96 128 L 80 128 L 80 136 L 96 136 L 96 152 L 80 152 L 80 160 L 96 160 L 96 184 L 104 184 L 104 160 L 120 160 L 120 184 L 128 184 L 128 160 L 144 160 L 144 152 L 128 152 L 128 136 L 144 136 L 144 128 L 128 128 L 128 104 L 120 104 L 120 128 L 104 128 L 104 104 Z M 104 136 L 120 136 L 120 152 L 104 152 Z M 104 136"/><path style="stroke:none;fill-rule:nonzero;fill:#888;fill-opacity:1" d="M 160 176 L 160 184 L 168 184 L 168 176 Z M 160 176"/><path style="stroke:none;fill-rule:nonzero;fill:#888;fill-opacity:1" d="M 160 168 L 168 168 L 168 104 L 160 104 Z M 160 168"/></g></svg>