<svg xmlns="http://www.w3.org/2000/svg" xmlns:svg="http://www.w3.org/2000/svg" id="svg2" width="48" height="48" version="1.1" viewBox="0 0 38.4 38.4"><metadata id="metadata10"/><path style="fill:#54cdee" id="path4" d="m 8.4,4.8 c -2,-3.24e-5 -3.6,1.587794 -3.6,3.56045 l 0,21.67705 C 4.8,32.010156 6.4065792,33.6 8.4,33.6 l 21.6,0 c 1.993421,0 3.6,-1.589844 3.6,-3.5625 l 0,-21.67465 C 33.6,6.390194 31.993421,4.8003823 30,4.80035 Z m 3.6,4 14.4,0 0,12.8 -4.8,0 0,0.8 -4.8,0 0,-5.6 4.8,0 0,-3.2 -4.8,0 0,1.6 -4.8,0 z m 4.8,16 4.8,0 0,4.8 -4.8,0 z"/></svg>