<svg xmlns="http://www.w3.org/2000/svg" xmlns:svg="http://www.w3.org/2000/svg" id="svg2" width="48" height="48" version="1.1" viewBox="0 0 38.4 38.4"><metadata id="metadata10"/><path style="fill:#79d073" id="path4" d="M 8.3625,4.80035 C 6.389844,4.80035 4.8,6.390194 4.8,8.36285 l 0,21.67465 C 4.8,32.010156 6.389844,33.6 8.3625,33.6 l 21.67465,0 c 1.972656,0 3.5625,-1.589844 3.5625,-3.5625 l 0,-21.67465 c 0,-1.972656 -1.589844,-3.5625 -3.5625,-3.5625 z M 16.8,8.8 l 4.8,0 0,4.8 -4.8,0 z m -1.6,7.2 6.4,0 0,10.4 2.4,0 0,2.4 -9.6,0 0,-2.4 2.4,0 0,-8 -1.6,0 z"/></svg>