<svg xmlns="http://www.w3.org/2000/svg" xmlns:svg="http://www.w3.org/2000/svg" id="svg2" width="22" height="22" version="1.1" viewBox="0 0 22 22"><metadata id="metadata10"/><path style="fill:#53cded" id="path4" d="M 5.039063,2.9994685 C 3.910156,2.9994685 3,3.9096245 3,5.0385315 L 3,16.957031 C 3,18.085938 3.910156,19 5.039063,19 l 11.918452,0 c 1.128907,0 2.042969,-0.914062 2.042969,-2.042969 l 0,-11.9184995 c 0,-1.128907 -0.914062,-2.039063 -2.042969,-2.039063 z M 6.4998045,5 l 9.0003915,0 0,7 -3,0 0,1 -3.0000005,0 0,-3 3.0000005,0 0,-2 -3.0000005,0 0,1 -3.000391,0 z m 3.000391,9 3.0000005,0 0,3 -3.0000005,0 z"/></svg>