<svg xmlns="http://www.w3.org/2000/svg" xmlns:svg="http://www.w3.org/2000/svg" id="svg2" width="128" height="128" version="1.1" viewBox="0 0 128 128"><metadata id="metadata10"/><path style="fill:#53cded" id="path4" d="M 27.874814,16 C 21.312418,16 16,21.312416 16,27.874814 l 0,72.250376 C 16,106.70321 21.312418,112 27.874814,112 l 72.250376,0 C 106.70321,112 112,106.70321 112,100.12519 l 0,-72.250376 C 112,21.312416 106.70321,16 100.12519,16 Z m 12.124812,12.001312 47.99925,0 0,43.999312 -15.99975,0 0,3.999938 -15.99975,0 0,-19.999688 15.99975,0 0,-11.999812 -15.99975,0 0,3.999938 -15.99975,0 z m 15.99975,55.999126 15.99975,0 0,15.999752 -15.99975,0 z"/></svg>