<svg xmlns="http://www.w3.org/2000/svg" xmlns:svg="http://www.w3.org/2000/svg" id="svg2" width="128" height="128" version="1.1" viewBox="0 0 128 128"><metadata id="metadata10"/><path style="fill:#78cf72" id="path4" d="M 27.874814,16 C 21.312416,16 16,21.312416 16,27.874814 l 0,72.250366 C 16,106.7032 21.312416,112 27.874814,112 l 72.250376,0 C 106.70321,112 112,106.7032 112,100.12518 l 0,-72.250366 C 112,21.312416 106.70321,16 100.12519,16 Z m 28.124562,12.001312 15.99975,0 0,15.99975 -15.99975,0 z m -3.999938,23.999626 19.999688,0 0,35.999442 7.999874,0 0,7.99986 -31.9995,0 0,-7.99986 7.999876,0 0,-27.999568 -3.999938,0 z"/></svg>