<svg xmlns="http://www.w3.org/2000/svg" xmlns:svg="http://www.w3.org/2000/svg" xmlns:xlink="http://www.w3.org/1999/xlink" id="svg2" version="1.1" viewBox="0 0 48 48"><metadata id="metadata98"/><defs id="defs4"><path id="SVGCleanerId_0" d="m 14 12 l 20 0 c 1.105 0 2 0.895 2 2 l 0 20 c 0 1.105 -0.895 2 -2 2 l -20 0 c -1.105 0 -2 -0.895 -2 -2 l 0 -20 c 0 -1.105 0.895 -2 2 -2 m 0 0"/></defs><use style="fill:none;stroke:#af8566;stroke-width:2.32258081;stroke-linecap:butt;stroke-linejoin:miter;stroke-miterlimit:4;stroke-dasharray:none;stroke-opacity:1" id="use72" width="100%" height="100%" x="0" y="0" stroke-miterlimit="4" transform="matrix(1.2916667,0,0,1.2916667,-7.0000008,-7.0000008)" xlink:href="#SVGCleanerId_0"/><use style="fill:#fff4ab;fill-opacity:1;fill-rule:nonzero;stroke:none" id="use74" width="100%" height="100%" x="0" y="0" transform="matrix(1.25,0,0,1.25,-6,-6)" xlink:href="#SVGCleanerId_0"/><path style="fill:#e4d66a;fill-opacity:1;fill-rule:nonzero;stroke:none" id="path84" d="m 9,30 30,0 0,2 -30,0 z"/><path style="fill:#e4d66a;fill-opacity:1;fill-rule:nonzero;stroke:none" id="path84-3" d="M 9.0000002,24 39,24 39,26 9.0000002,26 Z"/><path style="fill:#e4d66a;fill-opacity:1;fill-rule:nonzero;stroke:none" id="path84-3-9" d="M 9.0000002,18 39,18 39,20 9.0000002,20 Z"/><path style="fill:#e6b2a9;fill-opacity:1;fill-rule:nonzero;stroke:none" id="path86" d="m 17,9 2,0 0,30 -2,0 z"/></svg>