<svg xmlns="http://www.w3.org/2000/svg" xmlns:svg="http://www.w3.org/2000/svg" id="svg2" width="128" height="128" version="1.1" viewBox="0 0 36.124 36.124"><metadata id="metadata17"/><path id="path4" d="m 6.7739099,1.1288969 0,2.7093279 -3.3875103,0 c -0.6773338,0 -1.1288892,0.56448 -1.1284618,1.128888 L 2.2577794,34.995616 c -2.69e-4,0.5644 0.5641752,1.128848 1.1286202,1.128832 l 29.3511224,0 c 0.564448,1.6e-5 1.128888,-0.5644 1.12836,-1.128616 l 7.86e-4,-30.0287192 c -2.58e-4,-0.56448 -0.564704,-1.128888 -1.129146,-1.128888 l -3.38599,0 0,-2.7093279 C 29.350854,9.1448558e-7 29.350854,9.1448558e-7 28.221964,9.1448558e-7 l -2.935112,0 c -1.12889,0 -1.12889,0 -1.12889,1.12889598551442 l 0,2.2577759 -12.192003,0 0,-2.2577759 c 0,-1.12889598551442 0,-1.12889598551442 -1.128891,-1.12889598551442 l -2.9351115,0 c -1.1288892,0 -1.1280466,0 -1.1280466,1.12889598551442 z m 1.502838,0.3748 2.1855291,0 0,4.5242399 c 0,1.8743039 -2.1855291,1.8743039 -2.1855291,0 z m 17.3848941,0 2.18553,0 0,4.5242399 c 0,1.8743039 -2.18553,1.8743039 -2.18553,0 z m -21.1466222,9.7852181 27.0933542,0 0,22.578309 -27.0933542,-4.32e-4 z" style="color:#000;fill:#cacaca"/><g style="font-style:normal;font-variant:normal;font-weight:400;font-stretch:normal;font-size:12.85681343px;line-height:125%;font-family:Ubuntu;-inkscape-font-specification:Ubuntu;letter-spacing:0;word-spacing:0;fill:#3798d6;fill-opacity:1;stroke:none;stroke-width:1px;stroke-linecap:butt;stroke-linejoin:miter;stroke-opacity:1" id="text4155" transform="scale(1.1417405,0.87585576)"><path style="font-style:normal;font-variant:normal;font-weight:700;font-stretch:normal;font-size:19.75556183px;font-family:'droid sans';-inkscape-font-specification:'droid sans Bold';text-align:center;letter-spacing:-.22577788px;word-spacing:.4515557px;text-anchor:middle;fill:#3798d6;fill-opacity:1" id="path4142" d="m 15.888172,20.086131 q 0.877811,0 1.659159,0.212218 0.781347,0.212218 1.36977,0.636654 0.588422,0.424435 0.935688,1.061089 0.347266,0.636654 0.347266,1.495172 0,0.636654 -0.192926,1.157553 -0.192925,0.511252 -0.530544,0.935688 -0.33762,0.41479 -0.800641,0.742763 -0.463021,0.327973 -1.003212,0.598068 0.559484,0.299035 1.090029,0.665593 0.540191,0.366558 0.95498,0.829579 0.41479,0.453375 0.665593,1.022505 0.250803,0.56913 0.250803,1.273308 0,0.87781 -0.347266,1.591634 -0.347265,0.713824 -0.974273,1.21543 -0.627008,0.501606 -1.504818,0.771702 -0.868165,0.270096 -1.919608,0.270096 -1.13826,0 -2.025717,-0.26045 -0.887457,-0.260449 -1.495172,-0.742762 -0.607715,-0.482314 -0.926042,-1.186492 -0.30868,-0.704177 -0.30868,-1.581988 0,-0.72347 0.212218,-1.302247 0.212218,-0.578776 0.578776,-1.041797 0.366558,-0.463021 0.858518,-0.819933 0.49196,-0.356912 1.051443,-0.627007 -0.472667,-0.299035 -0.887456,-0.6463 -0.41479,-0.356912 -0.723471,-0.781348 -0.299034,-0.434083 -0.482313,-0.954981 -0.173633,-0.520899 -0.173633,-1.147906 0,-0.839226 0.347266,-1.466233 0.356912,-0.636654 0.95498,-1.06109 0.598069,-0.434082 1.379417,-0.6463 0.781348,-0.212218 1.639866,-0.212218 z m -1.996778,10.533727 q 0,0.385851 0.125402,0.713824 0.125401,0.318327 0.366558,0.549837 0.250803,0.231511 0.617361,0.366559 0.366558,0.125401 0.848872,0.125401 1.012858,0 1.514464,-0.472667 0.501606,-0.482314 0.501606,-1.263661 0,-0.405144 -0.173632,-0.723471 -0.163987,-0.327973 -0.434083,-0.598068 -0.260449,-0.279742 -0.598068,-0.511253 -0.33762,-0.23151 -0.675239,-0.443728 l -0.212218,-0.135048 q -0.424436,0.212218 -0.771702,0.463021 -0.347266,0.241157 -0.598069,0.540191 -0.241156,0.289388 -0.376204,0.636654 -0.135048,0.347266 -0.135048,0.752409 z m 1.977485,-8.35367 q -0.318326,0 -0.598068,0.09646 -0.270096,0.09646 -0.472668,0.279741 -0.192925,0.18328 -0.30868,0.453375 -0.115755,0.270096 -0.115755,0.607715 0,0.405144 0.115755,0.704178 0.125401,0.289388 0.327973,0.520898 0.212218,0.221865 0.482314,0.405144 0.279741,0.173633 0.588422,0.347266 0.299034,-0.154341 0.56913,-0.33762 0.270096,-0.183279 0.472667,-0.41479 0.212218,-0.241156 0.33762,-0.540191 0.125401,-0.299034 0.125401,-0.684885 0,-0.337619 -0.115755,-0.607715 -0.115755,-0.270095 -0.318327,-0.453375 -0.202572,-0.183279 -0.482313,-0.279741 -0.279742,-0.09646 -0.607716,-0.09646 z"/></g></svg>