<svg xmlns="http://www.w3.org/2000/svg" xmlns:svg="http://www.w3.org/2000/svg" id="svg2" width="128" height="128" version="1.1" viewBox="0 0 36.124 36.124"><metadata id="metadata17"/><path id="path4" d="m 6.7739099,1.1288969 0,2.7093279 -3.3875103,0 c -0.6773338,0 -1.1288892,0.56448 -1.1284618,1.128888 L 2.2577794,34.995616 c -2.69e-4,0.5644 0.5641752,1.128848 1.1286202,1.128832 l 29.3511224,0 c 0.564448,1.6e-5 1.128888,-0.5644 1.12836,-1.128616 l 7.86e-4,-30.0287192 c -2.58e-4,-0.56448 -0.564704,-1.128888 -1.129146,-1.128888 l -3.38599,0 0,-2.7093279 C 29.350854,9.1448558e-7 29.350854,9.1448558e-7 28.221964,9.1448558e-7 l -2.935112,0 c -1.12889,0 -1.12889,0 -1.12889,1.12889598551442 l 0,2.2577759 -12.192003,0 0,-2.2577759 c 0,-1.12889598551442 0,-1.12889598551442 -1.128891,-1.12889598551442 l -2.9351115,0 c -1.1288892,0 -1.1280466,0 -1.1280466,1.12889598551442 z m 1.502838,0.3748 2.1855291,0 0,4.5242399 c 0,1.8743039 -2.1855291,1.8743039 -2.1855291,0 z m 17.3848941,0 2.18553,0 0,4.5242399 c 0,1.8743039 -2.18553,1.8743039 -2.18553,0 z m -21.1466222,9.7852181 27.0933542,0 0,22.578309 -27.0933542,-4.32e-4 z" style="color:#000;fill:#cacaca"/><g style="font-style:normal;font-variant:normal;font-weight:400;font-stretch:normal;font-size:12.85681343px;line-height:125%;font-family:Ubuntu;-inkscape-font-specification:Ubuntu;letter-spacing:0;word-spacing:0;fill:#3798d6;fill-opacity:1;stroke:none;stroke-width:1px;stroke-linecap:butt;stroke-linejoin:miter;stroke-opacity:1" id="text4155" transform="scale(1.1417405,0.87585576)"><path style="font-style:normal;font-variant:normal;font-weight:700;font-stretch:normal;font-size:19.75556183px;font-family:'droid sans';-inkscape-font-specification:'droid sans Bold';text-align:center;letter-spacing:-.22577788px;word-spacing:.4515557px;text-anchor:middle;fill:#3798d6;fill-opacity:1" id="path4142" d="m 12.991425,34.372257 -2.980698,0 0,-8.160745 q 0,-0.250803 0,-0.598068 0.0096,-0.356912 0.01929,-0.733117 0.01929,-0.385851 0.02894,-0.771701 0.01929,-0.385851 0.02894,-0.704178 -0.04823,0.05788 -0.1639864,0.173633 -0.1157553,0.115755 -0.2604493,0.260449 -0.1446941,0.135048 -0.2990344,0.279742 -0.1543403,0.144694 -0.2990344,0.260449 l -1.6205734,1.302247 -1.4469406,-1.794207 4.5433935,-3.617351 2.450153,0 0,14.102847 z"/><path style="font-style:normal;font-variant:normal;font-weight:700;font-stretch:normal;font-size:19.75556183px;font-family:'droid sans';-inkscape-font-specification:'droid sans Bold';text-align:center;letter-spacing:-.22577788px;word-spacing:.4515557px;text-anchor:middle;fill:#3798d6;fill-opacity:1" id="path4144" d="m 26.038915,27.320834 q 0,1.707389 -0.270096,3.048221 -0.260449,1.340832 -0.848871,2.27652 -0.578777,0.935688 -1.504819,1.427648 -0.916395,0.49196 -2.218642,0.49196 -1.225076,0 -2.131826,-0.49196 -0.906749,-0.49196 -1.504818,-1.427648 -0.598069,-0.935688 -0.897103,-2.27652 -0.289388,-1.340832 -0.289388,-3.048221 0,-1.70739 0.260449,-3.057868 0.270096,-1.350478 0.848872,-2.286166 0.578776,-0.935688 1.495172,-1.427648 0.916396,-0.501606 2.218642,-0.501606 1.21543,0 2.12218,0.491959 0.906749,0.49196 1.514464,1.427648 0.607715,0.935689 0.90675,2.286167 0.299034,1.350477 0.299034,3.067514 z m -6.694512,0 q 0,2.411567 0.41479,3.626997 0.414789,1.21543 1.437294,1.21543 1.003212,0 1.437294,-1.205783 0.443729,-1.205784 0.443729,-3.636644 0,-2.421214 -0.443729,-3.636644 -0.434082,-1.225077 -1.437294,-1.225077 -0.511252,0 -0.868164,0.308681 -0.347266,0.308681 -0.56913,0.916396 -0.221864,0.607715 -0.318327,1.52411 -0.09646,0.90675 -0.09646,2.112534 z"/></g></svg>