<svg xmlns="http://www.w3.org/2000/svg" xmlns:svg="http://www.w3.org/2000/svg" id="svg2" width="128" height="128" version="1.1" viewBox="0 0 36.124 36.124"><metadata id="metadata17"/><path id="path4" d="m 6.7739099,1.1288969 0,2.7093279 -3.3875103,0 c -0.6773338,0 -1.1288892,0.56448 -1.1284618,1.128888 L 2.2577794,34.995616 c -2.69e-4,0.5644 0.5641752,1.128848 1.1286202,1.128832 l 29.3511224,0 c 0.564448,1.6e-5 1.128888,-0.5644 1.12836,-1.128616 l 7.86e-4,-30.0287192 c -2.58e-4,-0.56448 -0.564704,-1.128888 -1.129146,-1.128888 l -3.38599,0 0,-2.7093279 C 29.350854,9.1448558e-7 29.350854,9.1448558e-7 28.221964,9.1448558e-7 l -2.935112,0 c -1.12889,0 -1.12889,0 -1.12889,1.12889598551442 l 0,2.2577759 -12.192003,0 0,-2.2577759 c 0,-1.12889598551442 0,-1.12889598551442 -1.128891,-1.12889598551442 l -2.9351115,0 c -1.1288892,0 -1.1280466,0 -1.1280466,1.12889598551442 z m 1.502838,0.3748 2.1855291,0 0,4.5242399 c 0,1.8743039 -2.1855291,1.8743039 -2.1855291,0 z m 17.3848941,0 2.18553,0 0,4.5242399 c 0,1.8743039 -2.18553,1.8743039 -2.18553,0 z m -21.1466222,9.7852181 27.0933542,0 0,22.578309 -27.0933542,-4.32e-4 z" style="color:#000;fill:#cacaca"/><g style="font-style:normal;font-variant:normal;font-weight:400;font-stretch:normal;font-size:12.85681343px;line-height:125%;font-family:Ubuntu;-inkscape-font-specification:Ubuntu;letter-spacing:0;word-spacing:0;fill:#3798d6;fill-opacity:1;stroke:none;stroke-width:1px;stroke-linecap:butt;stroke-linejoin:miter;stroke-opacity:1" id="text4155" transform="scale(1.1417405,0.87585576)"><path style="font-style:normal;font-variant:normal;font-weight:700;font-stretch:normal;font-size:19.75556183px;font-family:'droid sans';-inkscape-font-specification:'droid sans Bold';text-align:center;letter-spacing:-.22577788px;word-spacing:.4515557px;text-anchor:middle;fill:#3798d6;fill-opacity:1" id="path4142" d="m 20.142177,23.42374 q 0,0.733117 -0.241156,1.321539 -0.231511,0.578777 -0.646301,1.022505 -0.405143,0.434082 -0.964627,0.733117 -0.549837,0.289388 -1.196137,0.443728 l 0,0.05788 q 1.70739,0.212218 2.5852,1.041797 0.877811,0.819933 0.877811,2.218642 0,0.926042 -0.33762,1.717036 -0.327973,0.781348 -1.022504,1.360124 -0.684885,0.578777 -1.736329,0.90675 -1.041797,0.318327 -2.459799,0.318327 -1.13826,0 -2.141472,-0.192926 -1.003212,-0.183279 -1.871376,-0.56913 l 0,-2.536969 q 0.434082,0.231511 0.916395,0.405144 0.482314,0.173632 0.964627,0.299034 0.482314,0.115755 0.945335,0.173633 0.472667,0.05788 0.887457,0.05788 0.829579,0 1.379416,-0.15434 0.549838,-0.15434 0.877811,-0.434082 0.327973,-0.279742 0.463021,-0.665593 0.144694,-0.395497 0.144694,-0.858518 0,-0.434082 -0.183279,-0.781348 -0.173633,-0.356912 -0.578776,-0.598069 -0.395497,-0.250803 -1.041798,-0.38585 -0.6463,-0.135048 -1.591634,-0.135048 l -1.003212,0 0,-2.093241 0.983919,0 q 0.887457,0 1.47588,-0.15434 0.588422,-0.163987 0.935688,-0.434082 0.356912,-0.279742 0.501606,-0.6463 0.144694,-0.366559 0.144694,-0.781348 0,-0.752409 -0.472667,-1.176845 -0.463021,-0.424436 -1.47588,-0.424436 -0.463021,0 -0.868164,0.09646 -0.395497,0.08682 -0.742763,0.23151 -0.337619,0.135048 -0.627007,0.308681 -0.279742,0.163986 -0.511253,0.327973 l -1.504818,-1.987132 q 0.405144,-0.299034 0.877811,-0.549837 0.482313,-0.250803 1.041797,-0.434082 0.559484,-0.192926 1.205784,-0.299035 0.6463,-0.106109 1.379416,-0.106109 1.041798,0 1.890669,0.231511 0.858519,0.221864 1.466234,0.655946 0.607715,0.424436 0.935688,1.051444 0.337619,0.617361 0.337619,1.418001 z"/></g></svg>