<svg xmlns="http://www.w3.org/2000/svg" xmlns:svg="http://www.w3.org/2000/svg" xmlns:xlink="http://www.w3.org/1999/xlink" id="svg2" width="128" height="128" version="1.1"><defs id="defs4"><linearGradient id="linearGradient3809"><stop style="stop-color:#000;stop-opacity:1" id="stop3811" offset="0"/><stop style="stop-color:#000;stop-opacity:0" id="stop3813" offset="1"/></linearGradient><linearGradient id="linearGradient3958"><stop id="stop3960" offset="0" style="stop-color:#000;stop-opacity:1"/><stop id="stop3962" offset="1" style="stop-color:#000;stop-opacity:0"/></linearGradient><radialGradient id="radialGradient3964" cx="32.5" cy="56.5" r="33.5" fx="32.5" fy="56.5" gradientTransform="matrix(1,0,0,0.10447761,0,50.597015)" gradientUnits="userSpaceOnUse" xlink:href="#linearGradient3958"/><radialGradient id="radialGradient3815" cx="-9" cy="93.5" r="15" fx="-9" fy="93.5" gradientTransform="matrix(1,0,0,0.36666667,0,59.216667)" gradientUnits="userSpaceOnUse" xlink:href="#linearGradient3809"/><linearGradient id="linearGradient3958-1"><stop id="stop3960-9" offset="0" style="stop-color:#000;stop-opacity:1"/><stop id="stop3962-9" offset="1" style="stop-color:#000;stop-opacity:0"/></linearGradient><radialGradient id="radialGradient3964-3" cx="32.5" cy="56.5" r="33.5" fx="32.5" fy="56.5" gradientTransform="matrix(1,0,0,0.10447761,0,50.597015)" gradientUnits="userSpaceOnUse" xlink:href="#linearGradient3958-1"/></defs><metadata id="metadata7"/><g id="layer1" transform="translate(0,-924.3622)"><path style="opacity:.6;fill:url(#radialGradient3815);fill-opacity:1;stroke:none" id="path3031" d="m 6,93.5 a 15,5.5 0 1 1 -30,0 15,5.5 0 1 1 30,0 z" transform="matrix(6.6666667,0,0,4.5454545,124,596.3622)"/><path id="path3029" d="m 0,942.4798 0,85.647 128,0 0,-42.8234 -6.09524,-36.706 L 74,948.3622 l -6,-12 -61.904762,0 C 3.04762,936.3622 0,939.421 0,942.4798 z" style="fill:#ef6c00;fill-opacity:1;stroke:none"/><rect style="fill:#fffdf0;fill-opacity:1;stroke:none" id="rect3799" width="63.143" height="23.765" x="10" y="952.362"/><path style="opacity:.02999998;fill:#000;fill-opacity:1;stroke:none" id="path3790" d="m 6.125,936.3622 c -3.047618,0 -6.125,3.0662 -6.125,6.125 l 0,4 c 0,-3.0588 3.077382,-6.125 6.125,-6.125 l 59.875,0 6,12 49.875,0.25 6.125,36.6876 0,-4 -6.125,-36.6876 -47.875,-0.25 -6,-12 z"/><path style="fill:#ffa726;fill-opacity:1;stroke:none" id="rect2987" d="m 128,954.7152 0,85.647 -128,0 0,-80 60,0 6,-12 55.90476,0.2352 c 3.04762,0 6.09524,3.059 6.09524,6.1178 z"/><path id="path3794" d="m 0,1036.3622 0,4 128,0 0,-4 z" style="opacity:.15;fill:#000;fill-opacity:1;stroke:none"/><path style="opacity:.02999998;fill:#000;fill-opacity:1;stroke:none" id="path3015" d="m 66,948.3622 -6,12 -60,0 0,4 62,0 6,-12 53.875,0.25 c 3.04762,0 6.125,3.0662 6.125,6.125 l 0,-4 c 0,-3.0588 -3.07738,-6.125 -6.125,-6.125 z"/><g id="g4056" transform="matrix(4,0,0,4,28.000296,968.3622)" style="opacity:1;fill:#b17621;fill-opacity:1"><path id="rect2989" d="m 3,7 0,6 c 0,1.108 0.892,2 2,2 l 1.499926,0 0,-5 3,0 0,5 L 11,15 c 1.108,0 2,-0.892 2,-2 l 0,-6 z" style="fill:#b17621;fill-opacity:1"/><path id="path3761" d="M 3,6 C 0.79661017,8 0,8 3,8 l 10,0 c 3,0 2.288136,0 0,-2 L 9,2 C 8,1 8,1 7,2 z" style="fill:#b17621;fill-opacity:1;stroke:none"/><path id="rect3763" d="m 12,2 c 1,0 1,0.446 1,1 l 0,4 -2,0 0,-4 c 0,-0.554 0,-1 1,-1 z" style="fill:#b17621;fill-opacity:1;stroke:none"/></g></g></svg>